M48
INCH,TZ
T1C0.0295
T2C0.0315
T3C0.0394
T4C0.0433
%
G90
G05
T1
X16500Y-32750
X17000Y-32750
X17500Y-32750
T2
X18500Y-27000
X18500Y-31000
X20000Y-21800
X20000Y-22800
X20000Y-23800
X20000Y-24800
X20000Y-25800
X20000Y-26800
X20000Y-27800
X20000Y-28800
X20000Y-29800
X20000Y-30800
X20000Y-31800
X20000Y-32800
X20000Y-33800
X20000Y-34800
X20000Y-35800
X26000Y-21800
X26000Y-22800
X26000Y-23800
X26000Y-24800
X26000Y-25800
X26000Y-26800
X26000Y-27800
X26000Y-28800
X26000Y-29800
X26000Y-30800
X26000Y-31800
X26000Y-32800
X26000Y-33800
X26000Y-34800
X26000Y-35800
T3
X16600Y-22500
X16600Y-23500
X22600Y-17600
X23600Y-17600
X24600Y-17600
X19000Y-17600
X20000Y-17600
X21000Y-17600
X21500Y-19500
X22500Y-19500
X23500Y-19500
X24500Y-19500
X15500Y-22500
X15500Y-23500
X15500Y-24500
T4
X15600Y-35900
X15600Y-37672
X18159Y-35900
X18159Y-37672
X15600Y-19000
X15600Y-20772
X18159Y-19000
X18159Y-20772
T0
M30
