<?xml version="1.0" standalone="no"?>
 <!DOCTYPE svg PUBLIC "-//W3C//DTD SVG 1.1//EN" 
 "http://www.w3.org/Graphics/SVG/1.1/DTD/svg11.dtd"> 
<svg xmlns="http://www.w3.org/2000/svg" version="1.1" 
    width="29.7002cm" height="21.0007cm" viewBox="0 0 116930 82680 ">
<title>SVG Picture created as pHmeter-B_Mask.svg date 2021/06/07 19:50:08 </title>
  <desc>Picture generated by PCBNEW </desc>
<g style="fill:#000000; fill-opacity:1;stroke:#000000; stroke-opacity:1;
stroke-linecap:round; stroke-linejoin:round; "
 transform="translate(0 0) scale(1 1)">
</g>
<g style="fill:#000000; fill-opacity:0.0; 
stroke:#000000; stroke-width:-0.000393701; stroke-opacity:1; 
stroke-linecap:round; stroke-linejoin:round;">
</g>
<g style="fill:#000000; fill-opacity:0.0; 
stroke:#000000; stroke-width:39.3701; stroke-opacity:1; 
stroke-linecap:round; stroke-linejoin:round;">
</g>
<g style="fill:#000000; fill-opacity:0.0; 
stroke:#000000; stroke-width:59.0551; stroke-opacity:1; 
stroke-linecap:round; stroke-linejoin:round;">
<rect x="69685.9" y="65357.2" width="42519.7" height="12598.4" rx="0" />
</g>
<g style="fill:#000000; fill-opacity:0.0; 
stroke:#000000; stroke-width:39.3701; stroke-opacity:1; 
stroke-linecap:round; stroke-linejoin:round;">
</g>
<g style="fill:#000000; fill-opacity:0.0; 
stroke:#000000; stroke-width:59.0551; stroke-opacity:1; 
stroke-linecap:round; stroke-linejoin:round;">
<rect x="3937.01" y="3937.01" width="109056" height="74806" rx="0" />
</g>
<g style="fill:#000000; fill-opacity:0.0; 
stroke:#000000; stroke-width:39.3701; stroke-opacity:1; 
stroke-linecap:round; stroke-linejoin:round;">
</g>
<g style="fill:#000000; fill-opacity:0.0; 
stroke:#000000; stroke-width:59.0551; stroke-opacity:1; 
stroke-linecap:round; stroke-linejoin:round;">
<rect x="4724.41" y="4724.41" width="107481" height="73231.2" rx="0" />
</g>
<g style="fill:#000000; fill-opacity:0.0; 
stroke:#000000; stroke-width:39.3701; stroke-opacity:1; 
stroke-linecap:round; stroke-linejoin:round;">
</g>
<g style="fill:#000000; fill-opacity:0.0; 
stroke:#000000; stroke-width:59.0551; stroke-opacity:1; 
stroke-linecap:round; stroke-linejoin:round;">
<path d="M23622 4724
L23622 3937
" />
</g>
<g style="fill:#000000; fill-opacity:0.0; 
stroke:#000000; stroke-width:39.3701; stroke-opacity:1; 
stroke-linecap:round; stroke-linejoin:round;">
</g>
<g style="fill:#000000; fill-opacity:0.0; 
stroke:#000000; stroke-width:59.0551; stroke-opacity:1; 
stroke-linecap:round; stroke-linejoin:round;">
<path d="M43307 4724
L43307 3937
" />
</g>
<g style="fill:#000000; fill-opacity:0.0; 
stroke:#000000; stroke-width:39.3701; stroke-opacity:1; 
stroke-linecap:round; stroke-linejoin:round;">
</g>
<g style="fill:#000000; fill-opacity:0.0; 
stroke:#000000; stroke-width:59.0551; stroke-opacity:1; 
stroke-linecap:round; stroke-linejoin:round;">
<path d="M62992 4724
L62992 3937
" />
</g>
<g style="fill:#000000; fill-opacity:0.0; 
stroke:#000000; stroke-width:39.3701; stroke-opacity:1; 
stroke-linecap:round; stroke-linejoin:round;">
</g>
<g style="fill:#000000; fill-opacity:0.0; 
stroke:#000000; stroke-width:59.0551; stroke-opacity:1; 
stroke-linecap:round; stroke-linejoin:round;">
<path d="M82677 4724
L82677 3937
" />
</g>
<g style="fill:#000000; fill-opacity:0.0; 
stroke:#000000; stroke-width:39.3701; stroke-opacity:1; 
stroke-linecap:round; stroke-linejoin:round;">
</g>
<g style="fill:#000000; fill-opacity:0.0; 
stroke:#000000; stroke-width:59.0551; stroke-opacity:1; 
stroke-linecap:round; stroke-linejoin:round;">
<path d="M102362 4724
L102362 3937
" />
</g>
<g style="fill:#000000; fill-opacity:0.0; 
stroke:#000000; stroke-width:39.3701; stroke-opacity:1; 
stroke-linecap:round; stroke-linejoin:round;">
</g>
<g style="fill:#000000; fill-opacity:0.0; 
stroke:#000000; stroke-width:59.0551; stroke-opacity:1; 
stroke-linecap:round; stroke-linejoin:round;">
<text x="13779.5" y="4586.61"
textLength="487.439" font-size="682.415" lengthAdjust="spacingAndGlyphs"
text-anchor="start" opacity="0">1</text>
<path d="M14199 4562
L13906 4562
" />
<path d="M14052 4562
L14052 4050
L14004 4123
L13955 4172
L13906 4196
" />
</g>
<g style="fill:#000000; fill-opacity:0.0; 
stroke:#000000; stroke-width:39.3701; stroke-opacity:1; 
stroke-linecap:round; stroke-linejoin:round;">
</g>
<g style="fill:#000000; fill-opacity:0.0; 
stroke:#000000; stroke-width:59.0551; stroke-opacity:1; 
stroke-linecap:round; stroke-linejoin:round;">
<text x="33464.6" y="4586.61"
textLength="546.494" font-size="682.415" lengthAdjust="spacingAndGlyphs"
text-anchor="start" opacity="0">2</text>
<path d="M33591 4099
L33615 4074
L33664 4050
L33786 4050
L33835 4074
L33859 4099
L33884 4147
L33884 4196
L33859 4269
L33567 4562
L33884 4562
" />
</g>
<g style="fill:#000000; fill-opacity:0.0; 
stroke:#000000; stroke-width:39.3701; stroke-opacity:1; 
stroke-linecap:round; stroke-linejoin:round;">
</g>
<g style="fill:#000000; fill-opacity:0.0; 
stroke:#000000; stroke-width:59.0551; stroke-opacity:1; 
stroke-linecap:round; stroke-linejoin:round;">
<text x="53149.6" y="4586.61"
textLength="546.494" font-size="682.415" lengthAdjust="spacingAndGlyphs"
text-anchor="start" opacity="0">3</text>
<path d="M53252 4050
L53569 4050
L53398 4245
L53471 4245
L53520 4269
L53544 4294
L53569 4342
L53569 4464
L53544 4513
L53520 4537
L53471 4562
L53325 4562
L53276 4537
L53252 4513
" />
</g>
<g style="fill:#000000; fill-opacity:0.0; 
stroke:#000000; stroke-width:39.3701; stroke-opacity:1; 
stroke-linecap:round; stroke-linejoin:round;">
</g>
<g style="fill:#000000; fill-opacity:0.0; 
stroke:#000000; stroke-width:59.0551; stroke-opacity:1; 
stroke-linecap:round; stroke-linejoin:round;">
<text x="72834.6" y="4586.61"
textLength="546.494" font-size="682.415" lengthAdjust="spacingAndGlyphs"
text-anchor="start" opacity="0">4</text>
<path d="M73205 4221
L73205 4562
" />
<path d="M73083 4026
L72961 4391
L73278 4391
" />
</g>
<g style="fill:#000000; fill-opacity:0.0; 
stroke:#000000; stroke-width:39.3701; stroke-opacity:1; 
stroke-linecap:round; stroke-linejoin:round;">
</g>
<g style="fill:#000000; fill-opacity:0.0; 
stroke:#000000; stroke-width:59.0551; stroke-opacity:1; 
stroke-linecap:round; stroke-linejoin:round;">
<text x="92519.7" y="4586.61"
textLength="546.494" font-size="682.415" lengthAdjust="spacingAndGlyphs"
text-anchor="start" opacity="0">5</text>
<path d="M92914 4050
L92671 4050
L92646 4294
L92671 4269
L92719 4245
L92841 4245
L92890 4269
L92914 4294
L92939 4342
L92939 4464
L92914 4513
L92890 4537
L92841 4562
L92719 4562
L92671 4537
L92646 4513
" />
</g>
<g style="fill:#000000; fill-opacity:0.0; 
stroke:#000000; stroke-width:39.3701; stroke-opacity:1; 
stroke-linecap:round; stroke-linejoin:round;">
</g>
<g style="fill:#000000; fill-opacity:0.0; 
stroke:#000000; stroke-width:59.0551; stroke-opacity:1; 
stroke-linecap:round; stroke-linejoin:round;">
<text x="112205" y="4586.61"
textLength="546.494" font-size="682.415" lengthAdjust="spacingAndGlyphs"
text-anchor="start" opacity="0">6</text>
<path d="M112575 4050
L112477 4050
L112429 4074
L112404 4099
L112356 4172
L112331 4269
L112331 4464
L112356 4513
L112380 4537
L112429 4562
L112526 4562
L112575 4537
L112599 4513
L112624 4464
L112624 4342
L112599 4294
L112575 4269
L112526 4245
L112429 4245
L112380 4269
L112356 4294
L112331 4342
" />
</g>
<g style="fill:#000000; fill-opacity:0.0; 
stroke:#000000; stroke-width:39.3701; stroke-opacity:1; 
stroke-linecap:round; stroke-linejoin:round;">
</g>
<g style="fill:#000000; fill-opacity:0.0; 
stroke:#000000; stroke-width:59.0551; stroke-opacity:1; 
stroke-linecap:round; stroke-linejoin:round;">
<path d="M23622 77955
L23622 78742
" />
</g>
<g style="fill:#000000; fill-opacity:0.0; 
stroke:#000000; stroke-width:39.3701; stroke-opacity:1; 
stroke-linecap:round; stroke-linejoin:round;">
</g>
<g style="fill:#000000; fill-opacity:0.0; 
stroke:#000000; stroke-width:59.0551; stroke-opacity:1; 
stroke-linecap:round; stroke-linejoin:round;">
<path d="M43307 77955
L43307 78742
" />
</g>
<g style="fill:#000000; fill-opacity:0.0; 
stroke:#000000; stroke-width:39.3701; stroke-opacity:1; 
stroke-linecap:round; stroke-linejoin:round;">
</g>
<g style="fill:#000000; fill-opacity:0.0; 
stroke:#000000; stroke-width:59.0551; stroke-opacity:1; 
stroke-linecap:round; stroke-linejoin:round;">
<path d="M62992 77955
L62992 78742
" />
</g>
<g style="fill:#000000; fill-opacity:0.0; 
stroke:#000000; stroke-width:39.3701; stroke-opacity:1; 
stroke-linecap:round; stroke-linejoin:round;">
</g>
<g style="fill:#000000; fill-opacity:0.0; 
stroke:#000000; stroke-width:59.0551; stroke-opacity:1; 
stroke-linecap:round; stroke-linejoin:round;">
<path d="M82677 77955
L82677 78742
" />
</g>
<g style="fill:#000000; fill-opacity:0.0; 
stroke:#000000; stroke-width:39.3701; stroke-opacity:1; 
stroke-linecap:round; stroke-linejoin:round;">
</g>
<g style="fill:#000000; fill-opacity:0.0; 
stroke:#000000; stroke-width:59.0551; stroke-opacity:1; 
stroke-linecap:round; stroke-linejoin:round;">
<path d="M102362 77955
L102362 78742
" />
</g>
<g style="fill:#000000; fill-opacity:0.0; 
stroke:#000000; stroke-width:39.3701; stroke-opacity:1; 
stroke-linecap:round; stroke-linejoin:round;">
</g>
<g style="fill:#000000; fill-opacity:0.0; 
stroke:#000000; stroke-width:59.0551; stroke-opacity:1; 
stroke-linecap:round; stroke-linejoin:round;">
<text x="13779.5" y="78605.2"
textLength="546.494" font-size="682.415" lengthAdjust="spacingAndGlyphs"
text-anchor="start" opacity="0">1</text>
<path d="M14199 78580
L13906 78580
" />
<path d="M14052 78580
L14052 78069
L14004 78142
L13955 78190
L13906 78215
" />
</g>
<g style="fill:#000000; fill-opacity:0.0; 
stroke:#000000; stroke-width:39.3701; stroke-opacity:1; 
stroke-linecap:round; stroke-linejoin:round;">
</g>
<g style="fill:#000000; fill-opacity:0.0; 
stroke:#000000; stroke-width:59.0551; stroke-opacity:1; 
stroke-linecap:round; stroke-linejoin:round;">
<text x="33464.6" y="78605.2"
textLength="546.494" font-size="682.415" lengthAdjust="spacingAndGlyphs"
text-anchor="start" opacity="0">2</text>
<path d="M33591 78117
L33615 78093
L33664 78069
L33786 78069
L33835 78093
L33859 78117
L33884 78166
L33884 78215
L33859 78288
L33567 78580
L33884 78580
" />
</g>
<g style="fill:#000000; fill-opacity:0.0; 
stroke:#000000; stroke-width:39.3701; stroke-opacity:1; 
stroke-linecap:round; stroke-linejoin:round;">
</g>
<g style="fill:#000000; fill-opacity:0.0; 
stroke:#000000; stroke-width:59.0551; stroke-opacity:1; 
stroke-linecap:round; stroke-linejoin:round;">
<text x="53149.6" y="78605.2"
textLength="546.494" font-size="682.415" lengthAdjust="spacingAndGlyphs"
text-anchor="start" opacity="0">3</text>
<path d="M53252 78069
L53569 78069
L53398 78263
L53471 78263
L53520 78288
L53544 78312
L53569 78361
L53569 78483
L53544 78532
L53520 78556
L53471 78580
L53325 78580
L53276 78556
L53252 78532
" />
</g>
<g style="fill:#000000; fill-opacity:0.0; 
stroke:#000000; stroke-width:39.3701; stroke-opacity:1; 
stroke-linecap:round; stroke-linejoin:round;">
</g>
<g style="fill:#000000; fill-opacity:0.0; 
stroke:#000000; stroke-width:59.0551; stroke-opacity:1; 
stroke-linecap:round; stroke-linejoin:round;">
<text x="72834.6" y="78605.2"
textLength="546.494" font-size="682.415" lengthAdjust="spacingAndGlyphs"
text-anchor="start" opacity="0">4</text>
<path d="M73205 78239
L73205 78580
" />
<path d="M73083 78044
L72961 78410
L73278 78410
" />
</g>
<g style="fill:#000000; fill-opacity:0.0; 
stroke:#000000; stroke-width:39.3701; stroke-opacity:1; 
stroke-linecap:round; stroke-linejoin:round;">
</g>
<g style="fill:#000000; fill-opacity:0.0; 
stroke:#000000; stroke-width:59.0551; stroke-opacity:1; 
stroke-linecap:round; stroke-linejoin:round;">
<text x="92519.7" y="78605.2"
textLength="546.494" font-size="682.415" lengthAdjust="spacingAndGlyphs"
text-anchor="start" opacity="0">5</text>
<path d="M92914 78069
L92671 78069
L92646 78312
L92671 78288
L92719 78263
L92841 78263
L92890 78288
L92914 78312
L92939 78361
L92939 78483
L92914 78532
L92890 78556
L92841 78580
L92719 78580
L92671 78556
L92646 78532
" />
</g>
<g style="fill:#000000; fill-opacity:0.0; 
stroke:#000000; stroke-width:39.3701; stroke-opacity:1; 
stroke-linecap:round; stroke-linejoin:round;">
</g>
<g style="fill:#000000; fill-opacity:0.0; 
stroke:#000000; stroke-width:59.0551; stroke-opacity:1; 
stroke-linecap:round; stroke-linejoin:round;">
<text x="112205" y="78605.2"
textLength="546.494" font-size="682.415" lengthAdjust="spacingAndGlyphs"
text-anchor="start" opacity="0">6</text>
<path d="M112575 78069
L112477 78069
L112429 78093
L112404 78117
L112356 78190
L112331 78288
L112331 78483
L112356 78532
L112380 78556
L112429 78580
L112526 78580
L112575 78556
L112599 78532
L112624 78483
L112624 78361
L112599 78312
L112575 78288
L112526 78263
L112429 78263
L112380 78288
L112356 78312
L112331 78361
" />
</g>
<g style="fill:#000000; fill-opacity:0.0; 
stroke:#000000; stroke-width:39.3701; stroke-opacity:1; 
stroke-linecap:round; stroke-linejoin:round;">
</g>
<g style="fill:#000000; fill-opacity:0.0; 
stroke:#000000; stroke-width:59.0551; stroke-opacity:1; 
stroke-linecap:round; stroke-linejoin:round;">
<path d="M3937 23622
L4724 23622
" />
</g>
<g style="fill:#000000; fill-opacity:0.0; 
stroke:#000000; stroke-width:39.3701; stroke-opacity:1; 
stroke-linecap:round; stroke-linejoin:round;">
</g>
<g style="fill:#000000; fill-opacity:0.0; 
stroke:#000000; stroke-width:59.0551; stroke-opacity:1; 
stroke-linecap:round; stroke-linejoin:round;">
<path d="M3937 43307
L4724 43307
" />
</g>
<g style="fill:#000000; fill-opacity:0.0; 
stroke:#000000; stroke-width:39.3701; stroke-opacity:1; 
stroke-linecap:round; stroke-linejoin:round;">
</g>
<g style="fill:#000000; fill-opacity:0.0; 
stroke:#000000; stroke-width:59.0551; stroke-opacity:1; 
stroke-linecap:round; stroke-linejoin:round;">
<path d="M3937 62992
L4724 62992
" />
</g>
<g style="fill:#000000; fill-opacity:0.0; 
stroke:#000000; stroke-width:39.3701; stroke-opacity:1; 
stroke-linecap:round; stroke-linejoin:round;">
</g>
<g style="fill:#000000; fill-opacity:0.0; 
stroke:#000000; stroke-width:59.0551; stroke-opacity:1; 
stroke-linecap:round; stroke-linejoin:round;">
<text x="4330.71" y="14035.4"
textLength="497.75" font-size="682.415" lengthAdjust="spacingAndGlyphs"
text-anchor="middle" opacity="0">A</text>
<path d="M4208 13864
L4452 13864
" />
<path d="M4160 14011
L4330 13499
L4501 14011
" />
</g>
<g style="fill:#000000; fill-opacity:0.0; 
stroke:#000000; stroke-width:39.3701; stroke-opacity:1; 
stroke-linecap:round; stroke-linejoin:round;">
</g>
<g style="fill:#000000; fill-opacity:0.0; 
stroke:#000000; stroke-width:59.0551; stroke-opacity:1; 
stroke-linecap:round; stroke-linejoin:round;">
<text x="4330.71" y="33720.5"
textLength="570.866" font-size="682.415" lengthAdjust="spacingAndGlyphs"
text-anchor="middle" opacity="0">B</text>
<path d="M4367 33428
L4440 33452
L4464 33476
L4489 33525
L4489 33598
L4464 33647
L4440 33671
L4391 33696
L4196 33696
L4196 33184
L4367 33184
L4416 33208
L4440 33233
L4464 33281
L4464 33330
L4440 33379
L4416 33403
L4367 33428
L4196 33428
" />
</g>
<g style="fill:#000000; fill-opacity:0.0; 
stroke:#000000; stroke-width:39.3701; stroke-opacity:1; 
stroke-linecap:round; stroke-linejoin:round;">
</g>
<g style="fill:#000000; fill-opacity:0.0; 
stroke:#000000; stroke-width:59.0551; stroke-opacity:1; 
stroke-linecap:round; stroke-linejoin:round;">
<text x="4330.71" y="53405.5"
textLength="570.866" font-size="682.415" lengthAdjust="spacingAndGlyphs"
text-anchor="middle" opacity="0">C</text>
<path d="M4489 53332
L4464 53356
L4391 53381
L4342 53381
L4269 53356
L4221 53308
L4196 53259
L4172 53161
L4172 53088
L4196 52991
L4221 52942
L4269 52893
L4342 52869
L4391 52869
L4464 52893
L4489 52918
" />
</g>
<g style="fill:#000000; fill-opacity:0.0; 
stroke:#000000; stroke-width:39.3701; stroke-opacity:1; 
stroke-linecap:round; stroke-linejoin:round;">
</g>
<g style="fill:#000000; fill-opacity:0.0; 
stroke:#000000; stroke-width:59.0551; stroke-opacity:1; 
stroke-linecap:round; stroke-linejoin:round;">
<text x="4330.71" y="73090.6"
textLength="570.866" font-size="682.415" lengthAdjust="spacingAndGlyphs"
text-anchor="middle" opacity="0">D</text>
<path d="M4196 73066
L4196 72554
L4318 72554
L4391 72578
L4440 72627
L4464 72676
L4489 72773
L4489 72846
L4464 72944
L4440 72993
L4391 73041
L4318 73066
L4196 73066
" />
</g>
<g style="fill:#000000; fill-opacity:0.0; 
stroke:#000000; stroke-width:39.3701; stroke-opacity:1; 
stroke-linecap:round; stroke-linejoin:round;">
</g>
<g style="fill:#000000; fill-opacity:0.0; 
stroke:#000000; stroke-width:59.0551; stroke-opacity:1; 
stroke-linecap:round; stroke-linejoin:round;">
<path d="M112992 23622
L112205 23622
" />
</g>
<g style="fill:#000000; fill-opacity:0.0; 
stroke:#000000; stroke-width:39.3701; stroke-opacity:1; 
stroke-linecap:round; stroke-linejoin:round;">
</g>
<g style="fill:#000000; fill-opacity:0.0; 
stroke:#000000; stroke-width:59.0551; stroke-opacity:1; 
stroke-linecap:round; stroke-linejoin:round;">
<path d="M112992 43307
L112205 43307
" />
</g>
<g style="fill:#000000; fill-opacity:0.0; 
stroke:#000000; stroke-width:39.3701; stroke-opacity:1; 
stroke-linecap:round; stroke-linejoin:round;">
</g>
<g style="fill:#000000; fill-opacity:0.0; 
stroke:#000000; stroke-width:59.0551; stroke-opacity:1; 
stroke-linecap:round; stroke-linejoin:round;">
<path d="M112992 62992
L112205 62992
" />
</g>
<g style="fill:#000000; fill-opacity:0.0; 
stroke:#000000; stroke-width:39.3701; stroke-opacity:1; 
stroke-linecap:round; stroke-linejoin:round;">
</g>
<g style="fill:#000000; fill-opacity:0.0; 
stroke:#000000; stroke-width:59.0551; stroke-opacity:1; 
stroke-linecap:round; stroke-linejoin:round;">
<text x="112599" y="14035.4"
textLength="497.75" font-size="682.415" lengthAdjust="spacingAndGlyphs"
text-anchor="middle" opacity="0">A</text>
<path d="M112477 13864
L112721 13864
" />
<path d="M112428 14011
L112599 13499
L112769 14011
" />
</g>
<g style="fill:#000000; fill-opacity:0.0; 
stroke:#000000; stroke-width:39.3701; stroke-opacity:1; 
stroke-linecap:round; stroke-linejoin:round;">
</g>
<g style="fill:#000000; fill-opacity:0.0; 
stroke:#000000; stroke-width:59.0551; stroke-opacity:1; 
stroke-linecap:round; stroke-linejoin:round;">
<text x="112599" y="33720.5"
textLength="570.866" font-size="682.415" lengthAdjust="spacingAndGlyphs"
text-anchor="middle" opacity="0">B</text>
<path d="M112635 33428
L112708 33452
L112733 33476
L112757 33525
L112757 33598
L112733 33647
L112708 33671
L112660 33696
L112465 33696
L112465 33184
L112635 33184
L112684 33208
L112708 33233
L112733 33281
L112733 33330
L112708 33379
L112684 33403
L112635 33428
L112465 33428
" />
</g>
<g style="fill:#000000; fill-opacity:0.0; 
stroke:#000000; stroke-width:39.3701; stroke-opacity:1; 
stroke-linecap:round; stroke-linejoin:round;">
</g>
<g style="fill:#000000; fill-opacity:0.0; 
stroke:#000000; stroke-width:59.0551; stroke-opacity:1; 
stroke-linecap:round; stroke-linejoin:round;">
<text x="112599" y="53405.5"
textLength="570.866" font-size="682.415" lengthAdjust="spacingAndGlyphs"
text-anchor="middle" opacity="0">C</text>
<path d="M112757 53332
L112733 53356
L112660 53381
L112611 53381
L112538 53356
L112489 53308
L112465 53259
L112440 53161
L112440 53088
L112465 52991
L112489 52942
L112538 52893
L112611 52869
L112660 52869
L112733 52893
L112757 52918
" />
</g>
<g style="fill:#000000; fill-opacity:0.0; 
stroke:#000000; stroke-width:39.3701; stroke-opacity:1; 
stroke-linecap:round; stroke-linejoin:round;">
</g>
<g style="fill:#000000; fill-opacity:0.0; 
stroke:#000000; stroke-width:59.0551; stroke-opacity:1; 
stroke-linecap:round; stroke-linejoin:round;">
<text x="112599" y="73090.6"
textLength="570.866" font-size="682.415" lengthAdjust="spacingAndGlyphs"
text-anchor="middle" opacity="0">D</text>
<path d="M112465 73066
L112465 72554
L112587 72554
L112660 72578
L112708 72627
L112733 72676
L112757 72773
L112757 72846
L112733 72944
L112708 72993
L112660 73041
L112587 73066
L112465 73066
" />
</g>
<g style="fill:#000000; fill-opacity:0.0; 
stroke:#000000; stroke-width:39.3701; stroke-opacity:1; 
stroke-linecap:round; stroke-linejoin:round;">
</g>
<g style="fill:#000000; fill-opacity:0.0; 
stroke:#000000; stroke-width:59.0551; stroke-opacity:1; 
stroke-linecap:round; stroke-linejoin:round;">
<text x="78741" y="76321.7"
textLength="2758.72" font-size="787.402" lengthAdjust="spacingAndGlyphs"
text-anchor="start" opacity="0">Date: </text>
<path d="M78911 76293
L78911 75703
L79051 75703
L79136 75731
L79192 75787
L79220 75843
L79248 75956
L79248 76040
L79220 76153
L79192 76209
L79136 76265
L79051 76293
L78911 76293
" />
<path d="M79754 76293
L79754 75984
L79726 75928
L79670 75899
L79557 75899
L79501 75928
" />
<path d="M79754 76265
L79698 76293
L79557 76293
L79501 76265
L79473 76209
L79473 76153
L79501 76096
L79557 76068
L79698 76068
L79754 76040
" />
<path d="M79951 75899
L80176 75899
" />
<path d="M80036 75703
L80036 76209
L80064 76265
L80120 76293
L80176 76293
" />
<path d="M80598 76265
L80542 76293
L80429 76293
L80373 76265
L80345 76209
L80345 75984
L80373 75928
L80429 75899
L80542 75899
L80598 75928
L80626 75984
L80626 76040
L80345 76096
" />
<path d="M80879 76237
L80907 76265
L80879 76293
L80851 76265
L80879 76237
L80879 76293
" />
<path d="M80879 75928
L80907 75956
L80879 75984
L80851 75956
L80879 75928
L80879 75984
" />
</g>
<g style="fill:#000000; fill-opacity:0.0; 
stroke:#000000; stroke-width:39.3701; stroke-opacity:1; 
stroke-linecap:round; stroke-linejoin:round;">
</g>
<g style="fill:#000000; fill-opacity:0.0; 
stroke:#000000; stroke-width:59.0551; stroke-opacity:1; 
stroke-linecap:round; stroke-linejoin:round;">
<path d="M69685 76577
L112205 76577
" />
</g>
<g style="fill:#000000; fill-opacity:0.0; 
stroke:#000000; stroke-width:39.3701; stroke-opacity:1; 
stroke-linecap:round; stroke-linejoin:round;">
</g>
<g style="fill:#000000; fill-opacity:0.0; 
stroke:#000000; stroke-width:59.0551; stroke-opacity:1; 
stroke-linecap:round; stroke-linejoin:round;">
<text x="70079.6" y="77424.1"
textLength="13529.2" font-size="787.402" lengthAdjust="spacingAndGlyphs"
text-anchor="start" opacity="0">KiCad E.D.A.  kicad (5.1.5)-3</text>
<path d="M70249 77395
L70249 76805
" />
<path d="M70587 77395
L70334 77058
" />
<path d="M70587 76805
L70249 77142
" />
<path d="M70840 77395
L70840 77002
" />
<path d="M70840 76805
L70812 76833
L70840 76861
L70868 76833
L70840 76805
L70840 76861
" />
<path d="M71458 77339
L71430 77367
L71346 77395
L71290 77395
L71205 77367
L71149 77311
L71121 77255
L71093 77142
L71093 77058
L71121 76946
L71149 76889
L71205 76833
L71290 76805
L71346 76805
L71430 76833
L71458 76861
" />
<path d="M71965 77395
L71965 77086
L71937 77030
L71880 77002
L71768 77002
L71712 77030
" />
<path d="M71965 77367
L71908 77395
L71768 77395
L71712 77367
L71683 77311
L71683 77255
L71712 77199
L71768 77171
L71908 77171
L71965 77142
" />
<path d="M72499 77395
L72499 76805
" />
<path d="M72499 77367
L72443 77395
L72330 77395
L72274 77367
L72246 77339
L72218 77283
L72218 77114
L72246 77058
L72274 77030
L72330 77002
L72443 77002
L72499 77030
" />
<path d="M73230 77086
L73427 77086
" />
<path d="M73511 77395
L73230 77395
L73230 76805
L73511 76805
" />
<path d="M73764 77339
L73793 77367
L73764 77395
L73736 77367
L73764 77339
L73764 77395
" />
<path d="M74046 77395
L74046 76805
L74186 76805
L74271 76833
L74327 76889
L74355 76946
L74383 77058
L74383 77142
L74355 77255
L74327 77311
L74271 77367
L74186 77395
L74046 77395
" />
<path d="M74636 77339
L74664 77367
L74636 77395
L74608 77367
L74636 77339
L74636 77395
" />
<path d="M74889 77227
L75171 77227
" />
<path d="M74833 77395
L75030 76805
L75227 77395
" />
<path d="M75424 77339
L75452 77367
L75424 77395
L75395 77367
L75424 77339
L75424 77395
" />
<path d="M76605 77395
L76605 76805
" />
<path d="M76661 77171
L76830 77395
" />
<path d="M76830 77002
L76605 77227
" />
<path d="M77083 77395
L77083 77002
" />
<path d="M77083 76805
L77055 76833
L77083 76861
L77111 76833
L77083 76805
L77083 76861
" />
<path d="M77617 77367
L77561 77395
L77448 77395
L77392 77367
L77364 77339
L77336 77283
L77336 77114
L77364 77058
L77392 77030
L77448 77002
L77561 77002
L77617 77030
" />
<path d="M78123 77395
L78123 77086
L78095 77030
L78039 77002
L77926 77002
L77870 77030
" />
<path d="M78123 77367
L78067 77395
L77926 77395
L77870 77367
L77842 77311
L77842 77255
L77870 77199
L77926 77171
L78067 77171
L78123 77142
" />
<path d="M78658 77395
L78658 76805
" />
<path d="M78658 77367
L78601 77395
L78489 77395
L78433 77367
L78404 77339
L78376 77283
L78376 77114
L78404 77058
L78433 77030
L78489 77002
L78601 77002
L78658 77030
" />
<path d="M79557 77620
L79529 77592
L79473 77508
L79445 77452
L79417 77367
L79389 77227
L79389 77114
L79417 76974
L79445 76889
L79473 76833
L79529 76749
L79557 76721
" />
<path d="M80064 76805
L79782 76805
L79754 77086
L79782 77058
L79839 77030
L79979 77030
L80036 77058
L80064 77086
L80092 77142
L80092 77283
L80064 77339
L80036 77367
L79979 77395
L79839 77395
L79782 77367
L79754 77339
" />
<path d="M80345 77339
L80373 77367
L80345 77395
L80317 77367
L80345 77339
L80345 77395
" />
<path d="M80935 77395
L80598 77395
" />
<path d="M80767 77395
L80767 76805
L80710 76889
L80654 76946
L80598 76974
" />
<path d="M81188 77339
L81217 77367
L81188 77395
L81160 77367
L81188 77339
L81188 77395
" />
<path d="M81751 76805
L81470 76805
L81442 77086
L81470 77058
L81526 77030
L81667 77030
L81723 77058
L81751 77086
L81779 77142
L81779 77283
L81751 77339
L81723 77367
L81667 77395
L81526 77395
L81470 77367
L81442 77339
" />
<path d="M81976 77620
L82004 77592
L82060 77508
L82088 77452
L82117 77367
L82145 77227
L82145 77114
L82117 76974
L82088 76889
L82060 76833
L82004 76749
L81976 76721
" />
<path d="M82426 77171
L82876 77171
" />
<path d="M83101 76805
L83466 76805
L83269 77030
L83354 77030
L83410 77058
L83438 77086
L83466 77142
L83466 77283
L83438 77339
L83410 77367
L83354 77395
L83185 77395
L83129 77367
L83101 77339
" />
</g>
<g style="fill:#000000; fill-opacity:0.0; 
stroke:#000000; stroke-width:39.3701; stroke-opacity:1; 
stroke-linecap:round; stroke-linejoin:round;">
</g>
<g style="fill:#000000; fill-opacity:0.0; 
stroke:#000000; stroke-width:59.0551; stroke-opacity:1; 
stroke-linecap:round; stroke-linejoin:round;">
<path d="M69685 75396
L112205 75396
" />
</g>
<g style="fill:#000000; fill-opacity:0.0; 
stroke:#000000; stroke-width:39.3701; stroke-opacity:1; 
stroke-linecap:round; stroke-linejoin:round;">
</g>
<g style="fill:#000000; fill-opacity:0.0; 
stroke:#000000; stroke-width:118.11; stroke-opacity:1; 
stroke-linecap:round; stroke-linejoin:round;">
<text x="103544" y="76321.7"
textLength="2336.9" font-size="787.402" lengthAdjust="spacingAndGlyphs"
text-anchor="start" opacity="0">Rev: </text>
<path d="M104099 76293
L103902 76012
" />
<path d="M103761 76293
L103761 75703
L103986 75703
L104042 75731
L104070 75759
L104099 75815
L104099 75899
L104070 75956
L104042 75984
L103986 76012
L103761 76012
" />
<path d="M104577 76265
L104520 76293
L104408 76293
L104352 76265
L104323 76209
L104323 75984
L104352 75928
L104408 75899
L104520 75899
L104577 75928
L104605 75984
L104605 76040
L104323 76096
" />
<path d="M104802 75899
L104942 76293
L105083 75899
" />
<path d="M105308 76237
L105336 76265
L105308 76293
L105280 76265
L105308 76237
L105308 76293
" />
<path d="M105308 75928
L105336 75956
L105308 75984
L105280 75956
L105308 75928
L105308 75984
" />
</g>
<g style="fill:#000000; fill-opacity:0.0; 
stroke:#000000; stroke-width:39.3701; stroke-opacity:1; 
stroke-linecap:round; stroke-linejoin:round;">
</g>
<g style="fill:#000000; fill-opacity:0.0; 
stroke:#000000; stroke-width:59.0551; stroke-opacity:1; 
stroke-linecap:round; stroke-linejoin:round;">
<text x="70079.6" y="76321.7"
textLength="3781.21" font-size="787.402" lengthAdjust="spacingAndGlyphs"
text-anchor="start" opacity="0">Size: A4</text>
<path d="M70221 76265
L70305 76293
L70446 76293
L70502 76265
L70530 76237
L70559 76181
L70559 76124
L70530 76068
L70502 76040
L70446 76012
L70334 75984
L70277 75956
L70249 75928
L70221 75871
L70221 75815
L70249 75759
L70277 75731
L70334 75703
L70474 75703
L70559 75731
" />
<path d="M70812 76293
L70812 75899
" />
<path d="M70812 75703
L70784 75731
L70812 75759
L70840 75731
L70812 75703
L70812 75759
" />
<path d="M71037 75899
L71346 75899
L71037 76293
L71346 76293
" />
<path d="M71796 76265
L71740 76293
L71627 76293
L71571 76265
L71543 76209
L71543 75984
L71571 75928
L71627 75899
L71740 75899
L71796 75928
L71824 75984
L71824 76040
L71543 76096
" />
<path d="M72077 76237
L72105 76265
L72077 76293
L72049 76265
L72077 76237
L72077 76293
" />
<path d="M72077 75928
L72105 75956
L72077 75984
L72049 75956
L72077 75928
L72077 75984
" />
<path d="M72780 76124
L73061 76124
" />
<path d="M72724 76293
L72921 75703
L73118 76293
" />
<path d="M73568 75899
L73568 76293
" />
<path d="M73427 75674
L73286 76096
L73652 76096
" />
</g>
<g style="fill:#000000; fill-opacity:0.0; 
stroke:#000000; stroke-width:39.3701; stroke-opacity:1; 
stroke-linecap:round; stroke-linejoin:round;">
</g>
<g style="fill:#000000; fill-opacity:0.0; 
stroke:#000000; stroke-width:59.0551; stroke-opacity:1; 
stroke-linecap:round; stroke-linejoin:round;">
<text x="103544" y="77424.1"
textLength="3349.27" font-size="787.402" lengthAdjust="spacingAndGlyphs"
text-anchor="start" opacity="0">Id: 1/1</text>
<path d="M103714 77395
L103714 76805
" />
<path d="M104248 77395
L104248 76805
" />
<path d="M104248 77367
L104192 77395
L104079 77395
L104023 77367
L103995 77339
L103967 77283
L103967 77114
L103995 77058
L104023 77030
L104079 77002
L104192 77002
L104248 77030
" />
<path d="M104529 77339
L104557 77367
L104529 77395
L104501 77367
L104529 77339
L104529 77395
" />
<path d="M104529 77030
L104557 77058
L104529 77086
L104501 77058
L104529 77030
L104529 77086
" />
<path d="M105570 77395
L105232 77395
" />
<path d="M105401 77395
L105401 76805
L105345 76889
L105289 76946
L105232 76974
" />
<path d="M106245 76777
L105739 77536
" />
<path d="M106751 77395
L106413 77395
" />
<path d="M106582 77395
L106582 76805
L106526 76889
L106470 76946
L106413 76974
" />
</g>
<g style="fill:#000000; fill-opacity:0.0; 
stroke:#000000; stroke-width:39.3701; stroke-opacity:1; 
stroke-linecap:round; stroke-linejoin:round;">
</g>
<g style="fill:#000000; fill-opacity:0.0; 
stroke:#000000; stroke-width:59.0551; stroke-opacity:1; 
stroke-linecap:round; stroke-linejoin:round;">
<path d="M69685 73821
L112205 73821
" />
</g>
<g style="fill:#000000; fill-opacity:0.0; 
stroke:#000000; stroke-width:39.3701; stroke-opacity:1; 
stroke-linecap:round; stroke-linejoin:round;">
</g>
<g style="fill:#000000; fill-opacity:0.0; 
stroke:#000000; stroke-width:157.48; stroke-opacity:1; 
stroke-linecap:round; stroke-linejoin:round;">
<text x="70079.6" y="74924.1"
textLength="3701.14" font-size="1049.87" lengthAdjust="spacingAndGlyphs"
text-anchor="start" opacity="0">Title: </text>
<path d="M70360 74099
L70810 74099
" />
<path d="M70486 74886
L70585 74099
" />
<path d="M70974 74886
L71039 74361
" />
<path d="M71072 74099
L71030 74136
L71063 74174
L71105 74136
L71072 74099
L71063 74174
" />
<path d="M71302 74361
L71602 74361
" />
<path d="M71447 74099
L71363 74774
L71391 74849
L71461 74886
L71536 74886
" />
<path d="M71911 74886
L71841 74849
L71813 74774
L71897 74099
" />
<path d="M72516 74849
L72436 74886
L72286 74886
L72216 74849
L72187 74774
L72225 74474
L72272 74399
L72352 74361
L72501 74361
L72572 74399
L72600 74474
L72591 74549
L72206 74624
" />
<path d="M72895 74811
L72928 74849
L72886 74886
L72853 74849
L72895 74811
L72886 74886
" />
<path d="M72947 74399
L72980 74436
L72937 74474
L72905 74436
L72947 74399
L72937 74474
" />
</g>
<g style="fill:#000000; fill-opacity:0.0; 
stroke:#000000; stroke-width:39.3701; stroke-opacity:1; 
stroke-linecap:round; stroke-linejoin:round;">
</g>
<g style="fill:#000000; fill-opacity:0.0; 
stroke:#000000; stroke-width:59.0551; stroke-opacity:1; 
stroke-linecap:round; stroke-linejoin:round;">
<text x="70079.6" y="73408.3"
textLength="10834.6" font-size="787.402" lengthAdjust="spacingAndGlyphs"
text-anchor="start" opacity="0">File: pHmeter.kicad_pcb</text>
<path d="M70446 73070
L70249 73070
" />
<path d="M70249 73380
L70249 72789
L70530 72789
" />
<path d="M70755 73380
L70755 72986
" />
<path d="M70755 72789
L70727 72817
L70755 72845
L70784 72817
L70755 72789
L70755 72845
" />
<path d="M71121 73380
L71065 73352
L71037 73295
L71037 72789
" />
<path d="M71571 73352
L71515 73380
L71402 73380
L71346 73352
L71318 73295
L71318 73070
L71346 73014
L71402 72986
L71515 72986
L71571 73014
L71599 73070
L71599 73127
L71318 73183
" />
<path d="M71852 73323
L71880 73352
L71852 73380
L71824 73352
L71852 73323
L71852 73380
" />
<path d="M71852 73014
L71880 73042
L71852 73070
L71824 73042
L71852 73014
L71852 73070
" />
<path d="M72583 72986
L72583 73577
" />
<path d="M72583 73014
L72640 72986
L72752 72986
L72808 73014
L72836 73042
L72865 73099
L72865 73267
L72836 73323
L72808 73352
L72752 73380
L72640 73380
L72583 73352
" />
<path d="M73118 73380
L73118 72789
" />
<path d="M73118 73070
L73455 73070
" />
<path d="M73455 73380
L73455 72789
" />
<path d="M73736 73380
L73736 72986
" />
<path d="M73736 73042
L73764 73014
L73821 72986
L73905 72986
L73961 73014
L73989 73070
L73989 73380
" />
<path d="M73989 73070
L74018 73014
L74074 72986
L74158 72986
L74214 73014
L74242 73070
L74242 73380
" />
<path d="M74749 73352
L74692 73380
L74580 73380
L74524 73352
L74496 73295
L74496 73070
L74524 73014
L74580 72986
L74692 72986
L74749 73014
L74777 73070
L74777 73127
L74496 73183
" />
<path d="M74946 72986
L75171 72986
" />
<path d="M75030 72789
L75030 73295
L75058 73352
L75114 73380
L75171 73380
" />
<path d="M75592 73352
L75536 73380
L75424 73380
L75367 73352
L75339 73295
L75339 73070
L75367 73014
L75424 72986
L75536 72986
L75592 73014
L75620 73070
L75620 73127
L75339 73183
" />
<path d="M75874 73380
L75874 72986
" />
<path d="M75874 73099
L75902 73042
L75930 73014
L75986 72986
L76042 72986
" />
<path d="M76239 73323
L76267 73352
L76239 73380
L76211 73352
L76239 73323
L76239 73380
" />
<path d="M76520 73380
L76520 72789
" />
<path d="M76577 73155
L76745 73380
" />
<path d="M76745 72986
L76520 73211
" />
<path d="M76998 73380
L76998 72986
" />
<path d="M76998 72789
L76970 72817
L76998 72845
L77027 72817
L76998 72789
L76998 72845
" />
<path d="M77533 73352
L77476 73380
L77364 73380
L77308 73352
L77280 73323
L77251 73267
L77251 73099
L77280 73042
L77308 73014
L77364 72986
L77476 72986
L77533 73014
" />
<path d="M78039 73380
L78039 73070
L78011 73014
L77955 72986
L77842 72986
L77786 73014
" />
<path d="M78039 73352
L77983 73380
L77842 73380
L77786 73352
L77758 73295
L77758 73239
L77786 73183
L77842 73155
L77983 73155
L78039 73127
" />
<path d="M78573 73380
L78573 72789
" />
<path d="M78573 73352
L78517 73380
L78404 73380
L78348 73352
L78320 73323
L78292 73267
L78292 73099
L78320 73042
L78348 73014
L78404 72986
L78517 72986
L78573 73014
" />
<path d="M78714 73436
L79164 73436
" />
<path d="M79304 72986
L79304 73577
" />
<path d="M79304 73014
L79361 72986
L79473 72986
L79529 73014
L79557 73042
L79586 73099
L79586 73267
L79557 73323
L79529 73352
L79473 73380
L79361 73380
L79304 73352
" />
<path d="M80092 73352
L80036 73380
L79923 73380
L79867 73352
L79839 73323
L79811 73267
L79811 73099
L79839 73042
L79867 73014
L79923 72986
L80036 72986
L80092 73014
" />
<path d="M80345 73380
L80345 72789
" />
<path d="M80345 73014
L80401 72986
L80514 72986
L80570 73014
L80598 73042
L80626 73099
L80626 73267
L80598 73323
L80570 73352
L80514 73380
L80401 73380
L80345 73352
" />
</g>
<g style="fill:#000000; fill-opacity:0.0; 
stroke:#000000; stroke-width:39.3701; stroke-opacity:1; 
stroke-linecap:round; stroke-linejoin:round;">
</g>
<g style="fill:#000000; fill-opacity:0.0; 
stroke:#000000; stroke-width:59.0551; stroke-opacity:1; 
stroke-linecap:round; stroke-linejoin:round;">
<path d="M69685 71459
L112205 71459
" />
</g>
<g style="fill:#000000; fill-opacity:0.0; 
stroke:#000000; stroke-width:39.3701; stroke-opacity:1; 
stroke-linecap:round; stroke-linejoin:round;">
</g>
<g style="fill:#000000; fill-opacity:0.0; 
stroke:#000000; stroke-width:59.0551; stroke-opacity:1; 
stroke-linecap:round; stroke-linejoin:round;">
<text x="70079.6" y="72345.4"
textLength="3236.78" font-size="787.402" lengthAdjust="spacingAndGlyphs"
text-anchor="start" opacity="0">Sheet: </text>
<path d="M70221 72289
L70305 72317
L70446 72317
L70502 72289
L70530 72260
L70559 72204
L70559 72148
L70530 72092
L70502 72064
L70446 72036
L70334 72007
L70277 71979
L70249 71951
L70221 71895
L70221 71839
L70249 71782
L70277 71754
L70334 71726
L70474 71726
L70559 71754
" />
<path d="M70812 72317
L70812 71726
" />
<path d="M71065 72317
L71065 72007
L71037 71951
L70980 71923
L70896 71923
L70840 71951
L70812 71979
" />
<path d="M71571 72289
L71515 72317
L71402 72317
L71346 72289
L71318 72232
L71318 72007
L71346 71951
L71402 71923
L71515 71923
L71571 71951
L71599 72007
L71599 72064
L71318 72120
" />
<path d="M72077 72289
L72021 72317
L71908 72317
L71852 72289
L71824 72232
L71824 72007
L71852 71951
L71908 71923
L72021 71923
L72077 71951
L72105 72007
L72105 72064
L71824 72120
" />
<path d="M72274 71923
L72499 71923
" />
<path d="M72358 71726
L72358 72232
L72386 72289
L72443 72317
L72499 72317
" />
<path d="M72696 72260
L72724 72289
L72696 72317
L72668 72289
L72696 72260
L72696 72317
" />
<path d="M72696 71951
L72724 71979
L72696 72007
L72668 71979
L72696 71951
L72696 72007
" />
</g>
<g style="fill:#000000; fill-opacity:0.0; 
stroke:#000000; stroke-width:39.3701; stroke-opacity:1; 
stroke-linecap:round; stroke-linejoin:round;">
</g>
<g style="fill:#000000; fill-opacity:0.0; 
stroke:#000000; stroke-width:59.0551; stroke-opacity:1; 
stroke-linecap:round; stroke-linejoin:round;">
<path d="M77559 75396
L77559 76577
" />
</g>
<g style="fill:#000000; fill-opacity:0.0; 
stroke:#000000; stroke-width:39.3701; stroke-opacity:1; 
stroke-linecap:round; stroke-linejoin:round;">
</g>
<g style="fill:#000000; fill-opacity:0.0; 
stroke:#000000; stroke-width:59.0551; stroke-opacity:1; 
stroke-linecap:round; stroke-linejoin:round;">
<path d="M102756 75396
L102756 77955
" />
</g>
<g style="fill:#848400; fill-opacity:0.0; 
stroke:#848400; stroke-width:59.0551; stroke-opacity:1; 
stroke-linecap:round; stroke-linejoin:round;">
</g>
<g style="fill:#848400; fill-opacity:1.0; 
stroke:#848400; stroke-width:0; stroke-opacity:1; 
stroke-linecap:round; stroke-linejoin:round;">
<path style="fill:#848400; fill-opacity:1.0; 
stroke:#848400; stroke-width:0; stroke-opacity:1; 
stroke-linecap:round; stroke-linejoin:round;fill-rule:evenodd;"
d="M 15720.7,37273.8
15796,37305
15796,37305
15863.8,37350.2
15921.4,37407.9
15966.7,37475.7
15997.9,37551
16013.8,37630.9
16013.8,37712.4
15997.9,37792.3
15966.7,37867.7
15966.7,37867.7
15921.4,37935.4
15863.8,37993.1
15796,38038.3
15796,38038.3
15796,38038.3
15720.7,38069.5
15640.8,38085.4
15559.2,38085.4
15479.3,38069.5
15404,38038.3
15404,38038.3
15404,38038.3
15336.2,37993.1
15278.6,37935.4
15233.3,37867.7
15233.3,37867.7
15202.1,37792.3
15186.2,37712.4
15186.2,37630.9
15202.1,37551
15233.3,37475.7
15278.6,37407.9
15336.2,37350.2
15404,37305
15404,37305
15479.3,37273.8
15559.2,37257.9
15640.8,37257.9
Z" /> 
<path style="fill:#848400; fill-opacity:1.0; 
stroke:#848400; stroke-width:0; stroke-opacity:1; 
stroke-linecap:round; stroke-linejoin:round;fill-rule:evenodd;"
d="M 18279.7,37273.8
18355.1,37305
18355.1,37305
18422.8,37350.2
18480.5,37407.9
18525.7,37475.7
18556.9,37551
18572.8,37630.9
18572.8,37712.4
18556.9,37792.3
18525.7,37867.7
18525.7,37867.7
18480.5,37935.4
18422.8,37993.1
18355.1,38038.3
18355.1,38038.3
18355.1,38038.3
18279.7,38069.5
18199.8,38085.4
18118.3,38085.4
18038.4,38069.5
17963.1,38038.3
17963.1,38038.3
17963.1,38038.3
17895.3,37993.1
17837.7,37935.4
17792.4,37867.7
17792.4,37867.7
17761.2,37792.3
17745.3,37712.4
17745.3,37630.9
17761.2,37551
17792.4,37475.7
17837.7,37407.9
17895.3,37350.2
17963.1,37305
17963.1,37305
18038.4,37273.8
18118.3,37257.9
18199.8,37257.9
Z" /> 
<path style="fill:#848400; fill-opacity:1.0; 
stroke:#848400; stroke-width:0; stroke-opacity:1; 
stroke-linecap:round; stroke-linejoin:round;fill-rule:evenodd;"
d="M 18279.7,35502.1
18355.1,35533.3
18355.1,35533.3
18422.8,35578.6
18480.5,35636.2
18524.6,35702.3
18525.7,35704
18556.9,35779.3
18572.8,35859.2
18572.8,35940.8
18556.9,36020.7
18540.6,36060.2
18525.7,36096
18480.5,36163.8
18422.8,36221.4
18355.1,36266.7
18355.1,36266.7
18355.1,36266.7
18279.7,36297.9
18199.8,36313.8
18118.3,36313.8
18038.4,36297.9
17963.1,36266.7
17963.1,36266.7
17963.1,36266.7
17895.3,36221.4
17837.7,36163.8
17792.4,36096
17777.6,36060.2
17761.2,36020.7
17745.3,35940.8
17745.3,35859.2
17761.2,35779.3
17792.4,35704
17793.5,35702.3
17837.7,35636.2
17895.3,35578.6
17963.1,35533.3
17963.1,35533.3
18038.4,35502.1
18118.3,35486.2
18199.8,35486.2
Z" /> 
<path style="fill:#848400; fill-opacity:1.0; 
stroke:#848400; stroke-width:0; stroke-opacity:1; 
stroke-linecap:round; stroke-linejoin:round;fill-rule:evenodd;"
d="M 15720.7,35502.1
15796,35533.3
15796,35533.3
15863.8,35578.6
15921.4,35636.2
15965.5,35702.3
15966.7,35704
15997.9,35779.3
16013.8,35859.2
16013.8,35940.8
15997.9,36020.7
15981.5,36060.2
15966.7,36096
15921.4,36163.8
15863.8,36221.4
15796,36266.7
15796,36266.7
15796,36266.7
15720.7,36297.9
15640.8,36313.8
15559.2,36313.8
15479.3,36297.9
15404,36266.7
15404,36266.7
15404,36266.7
15336.2,36221.4
15278.6,36163.8
15233.3,36096
15218.5,36060.2
15202.1,36020.7
15186.2,35940.8
15186.2,35859.2
15202.1,35779.3
15233.3,35704
15234.5,35702.3
15278.6,35636.2
15336.2,35578.6
15404,35533.3
15404,35533.3
15479.3,35502.1
15559.2,35486.2
15640.8,35486.2
Z" /> 
<path style="fill:#848400; fill-opacity:1.0; 
stroke:#848400; stroke-width:0; stroke-opacity:1; 
stroke-linecap:round; stroke-linejoin:round;fill-rule:evenodd;"
d="M 26097.7,35477.8
26158.7,35503.1
26213.6,35539.8
26260.2,35586.4
26296.9,35641.3
26322.2,35702.3
26335,35767
26335,35833
26322.2,35897.7
26296.9,35958.7
26260.2,36013.6
26213.6,36060.2
26158.7,36096.9
26097.7,36122.2
26033,36135
25967,36135
25902.3,36122.2
25841.3,36096.9
25786.4,36060.2
25739.8,36013.6
25703.1,35958.7
25677.8,35897.7
25665,35833
25665,35767
25677.8,35702.3
25703.1,35641.3
25739.8,35586.4
25786.4,35539.8
25841.3,35503.1
25902.3,35477.8
25967,35465
26033,35465
Z" /> 
<path style="fill:#848400; fill-opacity:1.0; 
stroke:#848400; stroke-width:0; stroke-opacity:1; 
stroke-linecap:round; stroke-linejoin:round;fill-rule:evenodd;"
d="M 20097.7,35477.8
20158.7,35503.1
20213.6,35539.8
20260.2,35586.4
20296.9,35641.3
20322.2,35702.3
20335,35767
20335,35833
20322.2,35897.7
20296.9,35958.7
20260.2,36013.6
20213.6,36060.2
20158.7,36096.9
20097.7,36122.2
20033,36135
19967,36135
19902.3,36122.2
19841.3,36096.9
19786.4,36060.2
19739.8,36013.6
19703.1,35958.7
19677.8,35897.7
19665,35833
19665,35767
19677.8,35702.3
19703.1,35641.3
19739.8,35586.4
19786.4,35539.8
19841.3,35503.1
19902.3,35477.8
19967,35465
20033,35465
Z" /> 
<path style="fill:#848400; fill-opacity:1.0; 
stroke:#848400; stroke-width:0; stroke-opacity:1; 
stroke-linecap:round; stroke-linejoin:round;fill-rule:evenodd;"
d="M 26097.7,34477.8
26158.7,34503.1
26213.6,34539.8
26260.2,34586.4
26296.9,34641.3
26322.2,34702.3
26335,34767
26335,34833
26322.2,34897.7
26296.9,34958.7
26260.2,35013.6
26213.6,35060.2
26158.7,35096.9
26097.7,35122.2
26033,35135
25967,35135
25902.3,35122.2
25841.3,35096.9
25786.4,35060.2
25739.8,35013.6
25703.1,34958.7
25677.8,34897.7
25665,34833
25665,34767
25677.8,34702.3
25703.1,34641.3
25739.8,34586.4
25786.4,34539.8
25841.3,34503.1
25902.3,34477.8
25967,34465
26033,34465
Z" /> 
<path style="fill:#848400; fill-opacity:1.0; 
stroke:#848400; stroke-width:0; stroke-opacity:1; 
stroke-linecap:round; stroke-linejoin:round;fill-rule:evenodd;"
d="M 20097.7,34477.8
20158.7,34503.1
20213.6,34539.8
20260.2,34586.4
20296.9,34641.3
20322.2,34702.3
20335,34767
20335,34833
20322.2,34897.7
20296.9,34958.7
20260.2,35013.6
20213.6,35060.2
20158.7,35096.9
20097.7,35122.2
20033,35135
19967,35135
19902.3,35122.2
19841.3,35096.9
19786.4,35060.2
19739.8,35013.6
19703.1,34958.7
19677.8,34897.7
19665,34833
19665,34767
19677.8,34702.3
19703.1,34641.3
19739.8,34586.4
19786.4,34539.8
19841.3,34503.1
19902.3,34477.8
19967,34465
20033,34465
Z" /> 
<path style="fill:#848400; fill-opacity:1.0; 
stroke:#848400; stroke-width:0; stroke-opacity:1; 
stroke-linecap:round; stroke-linejoin:round;fill-rule:evenodd;"
d="M 26097.7,33477.8
26158.7,33503.1
26213.6,33539.8
26260.2,33586.4
26296.9,33641.3
26322.2,33702.3
26335,33767
26335,33833
26322.2,33897.7
26296.9,33958.7
26260.2,34013.6
26213.6,34060.2
26158.7,34096.9
26097.7,34122.2
26033,34135
25967,34135
25902.3,34122.2
25841.3,34096.9
25786.4,34060.2
25739.8,34013.6
25703.1,33958.7
25677.8,33897.7
25665,33833
25665,33767
25677.8,33702.3
25703.1,33641.3
25739.8,33586.4
25786.4,33539.8
25841.3,33503.1
25902.3,33477.8
25967,33465
26033,33465
Z" /> 
<path style="fill:#848400; fill-opacity:1.0; 
stroke:#848400; stroke-width:0; stroke-opacity:1; 
stroke-linecap:round; stroke-linejoin:round;fill-rule:evenodd;"
d="M 20097.7,33477.8
20158.7,33503.1
20213.6,33539.8
20260.2,33586.4
20296.9,33641.3
20322.2,33702.3
20335,33767
20335,33833
20322.2,33897.7
20296.9,33958.7
20260.2,34013.6
20213.6,34060.2
20158.7,34096.9
20097.7,34122.2
20033,34135
19967,34135
19902.3,34122.2
19841.3,34096.9
19786.4,34060.2
19739.8,34013.6
19703.1,33958.7
19677.8,33897.7
19665,33833
19665,33767
19677.8,33702.3
19703.1,33641.3
19739.8,33586.4
19786.4,33539.8
19841.3,33503.1
19902.3,33477.8
19967,33465
20033,33465
Z" /> 
<path style="fill:#848400; fill-opacity:1.0; 
stroke:#848400; stroke-width:0; stroke-opacity:1; 
stroke-linecap:round; stroke-linejoin:round;fill-rule:evenodd;"
d="M 26097.7,32477.8
26158.7,32503.1
26213.6,32539.8
26260.2,32586.4
26296.9,32641.3
26322.2,32702.3
26335,32767
26335,32833
26322.2,32897.7
26296.9,32958.7
26260.2,33013.6
26213.6,33060.2
26158.7,33096.9
26097.7,33122.2
26033,33135
25967,33135
25902.3,33122.2
25841.3,33096.9
25786.4,33060.2
25739.8,33013.6
25703.1,32958.7
25677.8,32897.7
25665,32833
25665,32767
25677.8,32702.3
25703.1,32641.3
25739.8,32586.4
25786.4,32539.8
25841.3,32503.1
25902.3,32477.8
25967,32465
26033,32465
Z" /> 
<path style="fill:#848400; fill-opacity:1.0; 
stroke:#848400; stroke-width:0; stroke-opacity:1; 
stroke-linecap:round; stroke-linejoin:round;fill-rule:evenodd;"
d="M 20097.7,32477.8
20158.7,32503.1
20213.6,32539.8
20260.2,32586.4
20296.9,32641.3
20322.2,32702.3
20335,32767
20335,32833
20322.2,32897.7
20296.9,32958.7
20260.2,33013.6
20213.6,33060.2
20158.7,33096.9
20097.7,33122.2
20033,33135
19967,33135
19902.3,33122.2
19841.3,33096.9
19786.4,33060.2
19739.8,33013.6
19703.1,32958.7
19677.8,32897.7
19665,32833
19665,32767
19677.8,32702.3
19703.1,32641.3
19739.8,32586.4
19786.4,32539.8
19841.3,32503.1
19902.3,32477.8
19967,32465
20033,32465
Z" /> 
<path style="fill:#848400; fill-opacity:1.0; 
stroke:#848400; stroke-width:0; stroke-opacity:1; 
stroke-linecap:round; stroke-linejoin:round;fill-rule:evenodd;"
d="M 17544.5,32437.9
17587.2,32450.9
17587.2,32450.9
17601.4,32458.5
17626.6,32472
17661.1,32500.3
17689.5,32534.8
17702.9,32560
17710.5,32574.2
17710.5,32574.2
17723.5,32617
17726.8,32650.3
17726.8,32849.7
17723.5,32883
17710.7,32925.1
17710.5,32925.8
17706.6,32933.1
17689.5,32965.2
17661.1,32999.7
17626.6,33028
17601.4,33041.5
17587.2,33049.1
17587.2,33049.1
17544.5,33062.1
17500,33066.5
17455.5,33062.1
17412.8,33049.1
17412.8,33049.1
17398.6,33041.5
17373.4,33028
17338.9,32999.7
17310.5,32965.2
17293.4,32933.1
17288,32925.1
17281.2,32918.3
17273.2,32912.9
17264.3,32909.2
17254.8,32907.3
17245.2,32907.3
17235.7,32909.2
17226.8,32912.9
17218.8,32918.3
17212,32925.1
17206.6,32933.1
17189.5,32965.2
17161.1,32999.7
17126.6,33028
17101.4,33041.5
17087.2,33049.1
17087.2,33049.1
17044.5,33062.1
17000,33066.5
16955.5,33062.1
16912.8,33049.1
16912.8,33049.1
16898.6,33041.5
16873.4,33028
16838.9,32999.7
16814,32969.4
16807.2,32962.6
16799.2,32957.3
16790.3,32953.6
16780.8,32951.7
16771.2,32951.7
16761.7,32953.6
16752.8,32957.3
16744.8,32962.6
16737.9,32969.4
16732.6,32977.5
16728.9,32986.4
16726.8,33000.7
16726.8,33065.4
16273.2,33065.4
16273.2,32434.6
16726.8,32434.6
16726.8,32499.3
16727.7,32508.9
16730.5,32518.2
16735.1,32526.7
16741.2,32534.1
16748.6,32540.3
16757.2,32544.8
16766.4,32547.6
16776,32548.6
16785.6,32547.6
16794.8,32544.8
16803.3,32540.3
16810.8,32534.1
16814,32530.6
16838.9,32500.3
16873.4,32472
16898.6,32458.5
16912.8,32450.9
16912.8,32450.9
16955.5,32437.9
17000,32433.5
17044.5,32437.9
17087.2,32450.9
17087.2,32450.9
17101.4,32458.5
17126.6,32472
17161.1,32500.3
17189.5,32534.8
17206.6,32566.9
17212,32574.9
17218.8,32581.7
17226.8,32587.1
17235.7,32590.8
17245.2,32592.7
17254.8,32592.7
17264.3,32590.8
17273.2,32587.1
17281.2,32581.7
17288,32574.9
17293.4,32566.9
17310.5,32534.8
17338.9,32500.3
17373.4,32472
17398.6,32458.5
17412.8,32450.9
17412.8,32450.9
17455.5,32437.9
17500,32433.5
Z" /> 
<path style="fill:#848400; fill-opacity:1.0; 
stroke:#848400; stroke-width:0; stroke-opacity:1; 
stroke-linecap:round; stroke-linejoin:round;fill-rule:evenodd;"
d="M 26097.7,31477.8
26158.7,31503.1
26213.6,31539.8
26260.2,31586.4
26296.9,31641.3
26322.2,31702.3
26335,31767
26335,31833
26322.2,31897.7
26296.9,31958.7
26260.2,32013.6
26213.6,32060.2
26158.7,32096.9
26097.7,32122.2
26033,32135
25967,32135
25902.3,32122.2
25841.3,32096.9
25786.4,32060.2
25739.8,32013.6
25703.1,31958.7
25677.8,31897.7
25665,31833
25665,31767
25677.8,31702.3
25703.1,31641.3
25739.8,31586.4
25786.4,31539.8
25841.3,31503.1
25902.3,31477.8
25967,31465
26033,31465
Z" /> 
<path style="fill:#848400; fill-opacity:1.0; 
stroke:#848400; stroke-width:0; stroke-opacity:1; 
stroke-linecap:round; stroke-linejoin:round;fill-rule:evenodd;"
d="M 20097.7,31477.8
20158.7,31503.1
20213.6,31539.8
20260.2,31586.4
20296.9,31641.3
20322.2,31702.3
20335,31767
20335,31833
20322.2,31897.7
20296.9,31958.7
20260.2,32013.6
20213.6,32060.2
20158.7,32096.9
20097.7,32122.2
20033,32135
19967,32135
19902.3,32122.2
19841.3,32096.9
19786.4,32060.2
19739.8,32013.6
19703.1,31958.7
19677.8,31897.7
19665,31833
19665,31767
19677.8,31702.3
19703.1,31641.3
19739.8,31586.4
19786.4,31539.8
19841.3,31503.1
19902.3,31477.8
19967,31465
20033,31465
Z" /> 
<path style="fill:#848400; fill-opacity:1.0; 
stroke:#848400; stroke-width:0; stroke-opacity:1; 
stroke-linecap:round; stroke-linejoin:round;fill-rule:evenodd;"
d="M 18597.7,30677.8
18658.7,30703.1
18713.6,30739.8
18760.2,30786.4
18796.9,30841.3
18822.2,30902.3
18835,30967
18835,31033
18822.2,31097.7
18796.9,31158.7
18760.2,31213.6
18713.6,31260.2
18658.7,31296.9
18597.7,31322.2
18533,31335
18467,31335
18402.3,31322.2
18341.3,31296.9
18286.4,31260.2
18239.8,31213.6
18203.1,31158.7
18177.8,31097.7
18165,31033
18165,30967
18177.8,30902.3
18203.1,30841.3
18239.8,30786.4
18286.4,30739.8
18341.3,30703.1
18402.3,30677.8
18467,30665
18533,30665
Z" /> 
<path style="fill:#848400; fill-opacity:1.0; 
stroke:#848400; stroke-width:0; stroke-opacity:1; 
stroke-linecap:round; stroke-linejoin:round;fill-rule:evenodd;"
d="M 26097.7,30477.8
26158.7,30503.1
26213.6,30539.8
26260.2,30586.4
26296.9,30641.3
26322.2,30702.3
26335,30767
26335,30833
26322.2,30897.7
26296.9,30958.7
26260.2,31013.6
26213.6,31060.2
26158.7,31096.9
26097.7,31122.2
26033,31135
25967,31135
25902.3,31122.2
25841.3,31096.9
25786.4,31060.2
25739.8,31013.6
25703.1,30958.7
25677.8,30897.7
25665,30833
25665,30767
25677.8,30702.3
25703.1,30641.3
25739.8,30586.4
25786.4,30539.8
25841.3,30503.1
25902.3,30477.8
25967,30465
26033,30465
Z" /> 
<path style="fill:#848400; fill-opacity:1.0; 
stroke:#848400; stroke-width:0; stroke-opacity:1; 
stroke-linecap:round; stroke-linejoin:round;fill-rule:evenodd;"
d="M 20097.7,30477.8
20158.7,30503.1
20213.6,30539.8
20260.2,30586.4
20296.9,30641.3
20322.2,30702.3
20335,30767
20335,30833
20322.2,30897.7
20296.9,30958.7
20260.2,31013.6
20213.6,31060.2
20158.7,31096.9
20097.7,31122.2
20033,31135
19967,31135
19902.3,31122.2
19841.3,31096.9
19786.4,31060.2
19739.8,31013.6
19703.1,30958.7
19677.8,30897.7
19665,30833
19665,30767
19677.8,30702.3
19703.1,30641.3
19739.8,30586.4
19786.4,30539.8
19841.3,30503.1
19902.3,30477.8
19967,30465
20033,30465
Z" /> 
<path style="fill:#848400; fill-opacity:1.0; 
stroke:#848400; stroke-width:0; stroke-opacity:1; 
stroke-linecap:round; stroke-linejoin:round;fill-rule:evenodd;"
d="M 20097.7,29477.8
20158.7,29503.1
20213.6,29539.8
20260.2,29586.4
20296.9,29641.3
20322.2,29702.3
20335,29767
20335,29833
20322.2,29897.7
20296.9,29958.7
20260.2,30013.6
20213.6,30060.2
20158.7,30096.9
20097.7,30122.2
20033,30135
19967,30135
19902.3,30122.2
19841.3,30096.9
19786.4,30060.2
19739.8,30013.6
19703.1,29958.7
19677.8,29897.7
19665,29833
19665,29767
19677.8,29702.3
19703.1,29641.3
19739.8,29586.4
19786.4,29539.8
19841.3,29503.1
19902.3,29477.8
19967,29465
20033,29465
Z" /> 
<path style="fill:#848400; fill-opacity:1.0; 
stroke:#848400; stroke-width:0; stroke-opacity:1; 
stroke-linecap:round; stroke-linejoin:round;fill-rule:evenodd;"
d="M 26097.7,29477.8
26158.7,29503.1
26213.6,29539.8
26260.2,29586.4
26296.9,29641.3
26322.2,29702.3
26335,29767
26335,29833
26322.2,29897.7
26296.9,29958.7
26260.2,30013.6
26213.6,30060.2
26158.7,30096.9
26097.7,30122.2
26033,30135
25967,30135
25902.3,30122.2
25841.3,30096.9
25786.4,30060.2
25739.8,30013.6
25703.1,29958.7
25677.8,29897.7
25665,29833
25665,29767
25677.8,29702.3
25703.1,29641.3
25739.8,29586.4
25786.4,29539.8
25841.3,29503.1
25902.3,29477.8
25967,29465
26033,29465
Z" /> 
<path style="fill:#848400; fill-opacity:1.0; 
stroke:#848400; stroke-width:0; stroke-opacity:1; 
stroke-linecap:round; stroke-linejoin:round;fill-rule:evenodd;"
d="M 20097.7,28477.8
20158.7,28503.1
20213.6,28539.8
20260.2,28586.4
20296.9,28641.3
20322.2,28702.3
20335,28767
20335,28833
20322.2,28897.7
20296.9,28958.7
20260.2,29013.6
20213.6,29060.2
20158.7,29096.9
20097.7,29122.2
20033,29135
19967,29135
19902.3,29122.2
19841.3,29096.9
19786.4,29060.2
19739.8,29013.6
19703.1,28958.7
19677.8,28897.7
19665,28833
19665,28767
19677.8,28702.3
19703.1,28641.3
19739.8,28586.4
19786.4,28539.8
19841.3,28503.1
19902.3,28477.8
19967,28465
20033,28465
Z" /> 
<path style="fill:#848400; fill-opacity:1.0; 
stroke:#848400; stroke-width:0; stroke-opacity:1; 
stroke-linecap:round; stroke-linejoin:round;fill-rule:evenodd;"
d="M 26097.7,28477.8
26158.7,28503.1
26213.6,28539.8
26260.2,28586.4
26296.9,28641.3
26322.2,28702.3
26335,28767
26335,28833
26322.2,28897.7
26296.9,28958.7
26260.2,29013.6
26213.6,29060.2
26158.7,29096.9
26097.7,29122.2
26033,29135
25967,29135
25902.3,29122.2
25841.3,29096.9
25786.4,29060.2
25739.8,29013.6
25703.1,28958.7
25677.8,28897.7
25665,28833
25665,28767
25677.8,28702.3
25703.1,28641.3
25739.8,28586.4
25786.4,28539.8
25841.3,28503.1
25902.3,28477.8
25967,28465
26033,28465
Z" /> 
<path style="fill:#848400; fill-opacity:1.0; 
stroke:#848400; stroke-width:0; stroke-opacity:1; 
stroke-linecap:round; stroke-linejoin:round;fill-rule:evenodd;"
d="M 26097.7,27477.8
26158.7,27503.1
26213.6,27539.8
26260.2,27586.4
26296.9,27641.3
26322.2,27702.3
26335,27767
26335,27833
26322.2,27897.7
26296.9,27958.7
26260.2,28013.6
26213.6,28060.2
26158.7,28096.9
26097.7,28122.2
26033,28135
25967,28135
25902.3,28122.2
25841.3,28096.9
25786.4,28060.2
25739.8,28013.6
25703.1,27958.7
25677.8,27897.7
25665,27833
25665,27767
25677.8,27702.3
25703.1,27641.3
25739.8,27586.4
25786.4,27539.8
25841.3,27503.1
25902.3,27477.8
25967,27465
26033,27465
Z" /> 
<path style="fill:#848400; fill-opacity:1.0; 
stroke:#848400; stroke-width:0; stroke-opacity:1; 
stroke-linecap:round; stroke-linejoin:round;fill-rule:evenodd;"
d="M 20097.7,27477.8
20158.7,27503.1
20213.6,27539.8
20260.2,27586.4
20296.9,27641.3
20322.2,27702.3
20335,27767
20335,27833
20322.2,27897.7
20296.9,27958.7
20260.2,28013.6
20213.6,28060.2
20158.7,28096.9
20097.7,28122.2
20033,28135
19967,28135
19902.3,28122.2
19841.3,28096.9
19786.4,28060.2
19739.8,28013.6
19703.1,27958.7
19677.8,27897.7
19665,27833
19665,27767
19677.8,27702.3
19703.1,27641.3
19739.8,27586.4
19786.4,27539.8
19841.3,27503.1
19902.3,27477.8
19967,27465
20033,27465
Z" /> 
<path style="fill:#848400; fill-opacity:1.0; 
stroke:#848400; stroke-width:0; stroke-opacity:1; 
stroke-linecap:round; stroke-linejoin:round;fill-rule:evenodd;"
d="M 16397.7,26616.7
16439.6,26625
16557.9,26674
16664.4,26745.1
16754.9,26835.6
16826,26942.1
16875,27060.4
16882.4,27097.7
16900,27186
16900,27314
16875,27439.6
16833.5,27539.8
16826,27557.9
16754.9,27664.4
16664.4,27754.9
16557.9,27826
16439.6,27875
16397.7,27883.3
16314,27900
16186,27900
16102.3,27883.3
16060.4,27875
15942.1,27826
15835.6,27754.9
15745.1,27664.4
15674,27557.9
15666.5,27539.8
15625,27439.6
15600,27314
15600,27186
15617.6,27097.7
15625,27060.4
15674,26942.1
15745.1,26835.6
15835.6,26745.1
15942.1,26674
16060.4,26625
16102.3,26616.7
16186,26600
16314,26600
Z" /> 
<path style="fill:#848400; fill-opacity:1.0; 
stroke:#848400; stroke-width:0; stroke-opacity:1; 
stroke-linecap:round; stroke-linejoin:round;fill-rule:evenodd;"
d="M 18597.7,26677.8
18658.7,26703.1
18713.6,26739.8
18760.2,26786.4
18796.9,26841.3
18822.2,26902.3
18835,26967
18835,27033
18822.2,27097.7
18796.9,27158.7
18760.2,27213.6
18713.6,27260.2
18658.7,27296.9
18597.7,27322.2
18533,27335
18467,27335
18402.3,27322.2
18341.3,27296.9
18286.4,27260.2
18239.8,27213.6
18203.1,27158.7
18177.8,27097.7
18165,27033
18165,26967
18177.8,26902.3
18203.1,26841.3
18239.8,26786.4
18286.4,26739.8
18341.3,26703.1
18402.3,26677.8
18467,26665
18533,26665
Z" /> 
<path style="fill:#848400; fill-opacity:1.0; 
stroke:#848400; stroke-width:0; stroke-opacity:1; 
stroke-linecap:round; stroke-linejoin:round;fill-rule:evenodd;"
d="M 20097.7,26477.8
20158.7,26503.1
20213.6,26539.8
20260.2,26586.4
20296.9,26641.3
20322.2,26702.3
20335,26767
20335,26833
20322.2,26897.7
20296.9,26958.7
20260.2,27013.6
20213.6,27060.2
20158.7,27096.9
20097.7,27122.2
20033,27135
19967,27135
19902.3,27122.2
19841.3,27096.9
19786.4,27060.2
19739.8,27013.6
19703.1,26958.7
19677.8,26897.7
19665,26833
19665,26767
19677.8,26702.3
19703.1,26641.3
19739.8,26586.4
19786.4,26539.8
19841.3,26503.1
19902.3,26477.8
19967,26465
20033,26465
Z" /> 
<path style="fill:#848400; fill-opacity:1.0; 
stroke:#848400; stroke-width:0; stroke-opacity:1; 
stroke-linecap:round; stroke-linejoin:round;fill-rule:evenodd;"
d="M 26097.7,26477.8
26158.7,26503.1
26213.6,26539.8
26260.2,26586.4
26296.9,26641.3
26322.2,26702.3
26335,26767
26335,26833
26322.2,26897.7
26296.9,26958.7
26260.2,27013.6
26213.6,27060.2
26158.7,27096.9
26097.7,27122.2
26033,27135
25967,27135
25902.3,27122.2
25841.3,27096.9
25786.4,27060.2
25739.8,27013.6
25703.1,26958.7
25677.8,26897.7
25665,26833
25665,26767
25677.8,26702.3
25703.1,26641.3
25739.8,26586.4
25786.4,26539.8
25841.3,26503.1
25902.3,26477.8
25967,26465
26033,26465
Z" /> 
<path style="fill:#848400; fill-opacity:1.0; 
stroke:#848400; stroke-width:0; stroke-opacity:1; 
stroke-linecap:round; stroke-linejoin:round;fill-rule:evenodd;"
d="M 26097.7,25477.8
26158.7,25503.1
26213.6,25539.8
26260.2,25586.4
26296.9,25641.3
26322.2,25702.3
26335,25767
26335,25833
26322.2,25897.7
26296.9,25958.7
26260.2,26013.6
26213.6,26060.2
26158.7,26096.9
26097.7,26122.2
26033,26135
25967,26135
25902.3,26122.2
25841.3,26096.9
25786.4,26060.2
25739.8,26013.6
25703.1,25958.7
25677.8,25897.7
25665,25833
25665,25767
25677.8,25702.3
25703.1,25641.3
25739.8,25586.4
25786.4,25539.8
25841.3,25503.1
25902.3,25477.8
25967,25465
26033,25465
Z" /> 
<path style="fill:#848400; fill-opacity:1.0; 
stroke:#848400; stroke-width:0; stroke-opacity:1; 
stroke-linecap:round; stroke-linejoin:round;fill-rule:evenodd;"
d="M 20097.7,25477.8
20158.7,25503.1
20213.6,25539.8
20260.2,25586.4
20296.9,25641.3
20322.2,25702.3
20335,25767
20335,25833
20322.2,25897.7
20296.9,25958.7
20260.2,26013.6
20213.6,26060.2
20158.7,26096.9
20097.7,26122.2
20033,26135
19967,26135
19902.3,26122.2
19841.3,26096.9
19786.4,26060.2
19739.8,26013.6
19703.1,25958.7
19677.8,25897.7
19665,25833
19665,25767
19677.8,25702.3
19703.1,25641.3
19739.8,25586.4
19786.4,25539.8
19841.3,25503.1
19902.3,25477.8
19967,25465
20033,25465
Z" /> 
<path style="fill:#848400; fill-opacity:1.0; 
stroke:#848400; stroke-width:0; stroke-opacity:1; 
stroke-linecap:round; stroke-linejoin:round;fill-rule:evenodd;"
d="M 26097.7,24477.8
26158.7,24503.1
26213.6,24539.8
26260.2,24586.4
26296.9,24641.3
26322.2,24702.3
26335,24767
26335,24833
26322.2,24897.7
26296.9,24958.7
26260.2,25013.6
26213.6,25060.2
26158.7,25096.9
26097.7,25122.2
26033,25135
25967,25135
25902.3,25122.2
25841.3,25096.9
25786.4,25060.2
25739.8,25013.6
25703.1,24958.7
25677.8,24897.7
25665,24833
25665,24767
25677.8,24702.3
25703.1,24641.3
25739.8,24586.4
25786.4,24539.8
25841.3,24503.1
25902.3,24477.8
25967,24465
26033,24465
Z" /> 
<path style="fill:#848400; fill-opacity:1.0; 
stroke:#848400; stroke-width:0; stroke-opacity:1; 
stroke-linecap:round; stroke-linejoin:round;fill-rule:evenodd;"
d="M 20097.7,24477.8
20158.7,24503.1
20213.6,24539.8
20260.2,24586.4
20296.9,24641.3
20322.2,24702.3
20335,24767
20335,24833
20322.2,24897.7
20296.9,24958.7
20260.2,25013.6
20213.6,25060.2
20158.7,25096.9
20097.7,25122.2
20033,25135
19967,25135
19902.3,25122.2
19841.3,25096.9
19786.4,25060.2
19739.8,25013.6
19703.1,24958.7
19677.8,24897.7
19665,24833
19665,24767
19677.8,24702.3
19703.1,24641.3
19739.8,24586.4
19786.4,24539.8
19841.3,24503.1
19902.3,24477.8
19967,24465
20033,24465
Z" /> 
<path style="fill:#848400; fill-opacity:1.0; 
stroke:#848400; stroke-width:0; stroke-opacity:1; 
stroke-linecap:round; stroke-linejoin:round;fill-rule:evenodd;"
d="M 15544.7,24147.2
15603.5,24158.9
15668,24185.6
15726.1,24224.5
15775.5,24273.9
15814.4,24332
15841.1,24396.5
15852.8,24455.3
15854.7,24465
15854.7,24465.1
15854.7,24534.9
15841.1,24603.5
15814.4,24668
15775.5,24726.1
15726.1,24775.5
15668,24814.4
15603.5,24841.1
15544.7,24852.8
15534.9,24854.7
15465.1,24854.7
15455.3,24852.8
15396.5,24841.1
15332,24814.4
15273.9,24775.5
15224.5,24726.1
15185.6,24668
15158.9,24603.5
15145.3,24534.9
15145.3,24465.1
15145.3,24465
15147.2,24455.3
15158.9,24396.5
15185.6,24332
15224.5,24273.9
15273.9,24224.5
15332,24185.6
15396.5,24158.9
15455.3,24147.2
15465.1,24145.3
15534.9,24145.3
Z" /> 
<path style="fill:#848400; fill-opacity:1.0; 
stroke:#848400; stroke-width:0; stroke-opacity:1; 
stroke-linecap:round; stroke-linejoin:round;fill-rule:evenodd;"
d="M 26097.7,23477.8
26158.7,23503.1
26213.6,23539.8
26260.2,23586.4
26296.9,23641.3
26322.2,23702.3
26335,23767
26335,23833
26322.2,23897.7
26296.9,23958.7
26260.2,24013.6
26213.6,24060.2
26158.7,24096.9
26097.7,24122.2
26033,24135
25967,24135
25902.3,24122.2
25841.3,24096.9
25786.4,24060.2
25739.8,24013.6
25703.1,23958.7
25677.8,23897.7
25665,23833
25665,23767
25677.8,23702.3
25703.1,23641.3
25739.8,23586.4
25786.4,23539.8
25841.3,23503.1
25902.3,23477.8
25967,23465
26033,23465
Z" /> 
<path style="fill:#848400; fill-opacity:1.0; 
stroke:#848400; stroke-width:0; stroke-opacity:1; 
stroke-linecap:round; stroke-linejoin:round;fill-rule:evenodd;"
d="M 20097.7,23477.8
20158.7,23503.1
20213.6,23539.8
20260.2,23586.4
20296.9,23641.3
20322.2,23702.3
20335,23767
20335,23833
20322.2,23897.7
20296.9,23958.7
20260.2,24013.6
20213.6,24060.2
20158.7,24096.9
20097.7,24122.2
20033,24135
19967,24135
19902.3,24122.2
19841.3,24096.9
19786.4,24060.2
19739.8,24013.6
19703.1,23958.7
19677.8,23897.7
19665,23833
19665,23767
19677.8,23702.3
19703.1,23641.3
19739.8,23586.4
19786.4,23539.8
19841.3,23503.1
19902.3,23477.8
19967,23465
20033,23465
Z" /> 
<path style="fill:#848400; fill-opacity:1.0; 
stroke:#848400; stroke-width:0; stroke-opacity:1; 
stroke-linecap:round; stroke-linejoin:round;fill-rule:evenodd;"
d="M 16954.7,23854.7
16245.3,23854.7
16245.3,23145.3
16954.7,23145.3
Z" /> 
<path style="fill:#848400; fill-opacity:1.0; 
stroke:#848400; stroke-width:0; stroke-opacity:1; 
stroke-linecap:round; stroke-linejoin:round;fill-rule:evenodd;"
d="M 15544.7,23147.2
15603.5,23158.9
15668,23185.6
15726.1,23224.5
15775.5,23273.9
15814.4,23332
15841.1,23396.5
15852.8,23455.3
15854.7,23465
15854.7,23465.1
15854.7,23534.9
15841.1,23603.5
15814.4,23668
15775.5,23726.1
15726.1,23775.5
15668,23814.4
15603.5,23841.1
15544.7,23852.8
15534.9,23854.7
15465.1,23854.7
15455.3,23852.8
15396.5,23841.1
15332,23814.4
15273.9,23775.5
15224.5,23726.1
15185.6,23668
15158.9,23603.5
15145.3,23534.9
15145.3,23465.1
15145.3,23465
15147.2,23455.3
15158.9,23396.5
15185.6,23332
15224.5,23273.9
15273.9,23224.5
15332,23185.6
15396.5,23158.9
15455.3,23147.2
15465.1,23145.3
15534.9,23145.3
Z" /> 
<path style="fill:#848400; fill-opacity:1.0; 
stroke:#848400; stroke-width:0; stroke-opacity:1; 
stroke-linecap:round; stroke-linejoin:round;fill-rule:evenodd;"
d="M 20097.7,22477.8
20158.7,22503.1
20213.6,22539.8
20260.2,22586.4
20296.9,22641.3
20322.2,22702.3
20335,22767
20335,22833
20322.2,22897.7
20296.9,22958.7
20260.2,23013.6
20213.6,23060.2
20158.7,23096.9
20097.7,23122.2
20033,23135
19967,23135
19902.3,23122.2
19841.3,23096.9
19786.4,23060.2
19739.8,23013.6
19703.1,22958.7
19677.8,22897.7
19665,22833
19665,22767
19677.8,22702.3
19703.1,22641.3
19739.8,22586.4
19786.4,22539.8
19841.3,22503.1
19902.3,22477.8
19967,22465
20033,22465
Z" /> 
<path style="fill:#848400; fill-opacity:1.0; 
stroke:#848400; stroke-width:0; stroke-opacity:1; 
stroke-linecap:round; stroke-linejoin:round;fill-rule:evenodd;"
d="M 26097.7,22477.8
26158.7,22503.1
26213.6,22539.8
26260.2,22586.4
26296.9,22641.3
26322.2,22702.3
26335,22767
26335,22833
26322.2,22897.7
26296.9,22958.7
26260.2,23013.6
26213.6,23060.2
26158.7,23096.9
26097.7,23122.2
26033,23135
25967,23135
25902.3,23122.2
25841.3,23096.9
25786.4,23060.2
25739.8,23013.6
25703.1,22958.7
25677.8,22897.7
25665,22833
25665,22767
25677.8,22702.3
25703.1,22641.3
25739.8,22586.4
25786.4,22539.8
25841.3,22503.1
25902.3,22477.8
25967,22465
26033,22465
Z" /> 
<path style="fill:#848400; fill-opacity:1.0; 
stroke:#848400; stroke-width:0; stroke-opacity:1; 
stroke-linecap:round; stroke-linejoin:round;fill-rule:evenodd;"
d="M 15854.7,22854.7
15145.3,22854.7
15145.3,22145.3
15854.7,22145.3
Z" /> 
<path style="fill:#848400; fill-opacity:1.0; 
stroke:#848400; stroke-width:0; stroke-opacity:1; 
stroke-linecap:round; stroke-linejoin:round;fill-rule:evenodd;"
d="M 16644.7,22147.2
16703.5,22158.9
16768,22185.6
16826.1,22224.5
16875.5,22273.9
16914.4,22332
16941.1,22396.5
16952.8,22455.3
16954.7,22465
16954.7,22465.1
16954.7,22534.9
16941.1,22603.5
16914.4,22668
16875.5,22726.1
16826.1,22775.5
16768,22814.4
16703.5,22841.1
16644.7,22852.8
16634.9,22854.7
16565.1,22854.7
16555.3,22852.8
16496.5,22841.1
16432,22814.4
16373.9,22775.5
16324.5,22726.1
16285.6,22668
16258.9,22603.5
16245.3,22534.9
16245.3,22465.1
16245.3,22465
16247.2,22455.3
16258.9,22396.5
16285.6,22332
16324.5,22273.9
16373.9,22224.5
16432,22185.6
16496.5,22158.9
16555.3,22147.2
16565.1,22145.3
16634.9,22145.3
Z" /> 
<path style="fill:#848400; fill-opacity:1.0; 
stroke:#848400; stroke-width:0; stroke-opacity:1; 
stroke-linecap:round; stroke-linejoin:round;fill-rule:evenodd;"
d="M 26097.7,21477.8
26158.7,21503.1
26213.6,21539.8
26260.2,21586.4
26296.9,21641.3
26322.2,21702.3
26335,21767
26335,21833
26322.2,21897.7
26296.9,21958.7
26260.2,22013.6
26213.6,22060.2
26158.7,22096.9
26097.7,22122.2
26033,22135
25967,22135
25902.3,22122.2
25841.3,22096.9
25786.4,22060.2
25739.8,22013.6
25703.1,21958.7
25677.8,21897.7
25665,21833
25665,21767
25677.8,21702.3
25703.1,21641.3
25739.8,21586.4
25786.4,21539.8
25841.3,21503.1
25902.3,21477.8
25967,21465
26033,21465
Z" /> 
<path style="fill:#848400; fill-opacity:1.0; 
stroke:#848400; stroke-width:0; stroke-opacity:1; 
stroke-linecap:round; stroke-linejoin:round;fill-rule:evenodd;"
d="M 20335,22135
19665,22135
19665,21465
20335,21465
Z" /> 
<path style="fill:#848400; fill-opacity:1.0; 
stroke:#848400; stroke-width:0; stroke-opacity:1; 
stroke-linecap:round; stroke-linejoin:round;fill-rule:evenodd;"
d="M 15720.7,20373.8
15796,20405
15796,20405
15863.8,20450.2
15921.4,20507.9
15966.7,20575.7
15997.9,20651
16013.8,20730.9
16013.8,20812.4
15997.9,20892.3
15966.7,20967.7
15966.7,20967.7
15921.4,21035.4
15863.8,21093.1
15796,21138.3
15796,21138.3
15796,21138.3
15720.7,21169.5
15640.8,21185.4
15559.2,21185.4
15479.3,21169.5
15404,21138.3
15404,21138.3
15404,21138.3
15336.2,21093.1
15278.6,21035.4
15233.3,20967.7
15233.3,20967.7
15202.1,20892.3
15186.2,20812.4
15186.2,20730.9
15202.1,20651
15233.3,20575.7
15278.6,20507.9
15336.2,20450.2
15404,20405
15404,20405
15479.3,20373.8
15559.2,20357.9
15640.8,20357.9
Z" /> 
<path style="fill:#848400; fill-opacity:1.0; 
stroke:#848400; stroke-width:0; stroke-opacity:1; 
stroke-linecap:round; stroke-linejoin:round;fill-rule:evenodd;"
d="M 18279.7,20373.8
18355.1,20405
18355.1,20405
18422.8,20450.2
18480.5,20507.9
18525.7,20575.7
18556.9,20651
18572.8,20730.9
18572.8,20812.4
18556.9,20892.3
18525.7,20967.7
18525.7,20967.7
18480.5,21035.4
18422.8,21093.1
18355.1,21138.3
18355.1,21138.3
18355.1,21138.3
18279.7,21169.5
18199.8,21185.4
18118.3,21185.4
18038.4,21169.5
17963.1,21138.3
17963.1,21138.3
17963.1,21138.3
17895.3,21093.1
17837.7,21035.4
17792.4,20967.7
17792.4,20967.7
17761.2,20892.3
17745.3,20812.4
17745.3,20730.9
17761.2,20651
17792.4,20575.7
17837.7,20507.9
17895.3,20450.2
17963.1,20405
17963.1,20405
18038.4,20373.8
18118.3,20357.9
18199.8,20357.9
Z" /> 
<path style="fill:#848400; fill-opacity:1.0; 
stroke:#848400; stroke-width:0; stroke-opacity:1; 
stroke-linecap:round; stroke-linejoin:round;fill-rule:evenodd;"
d="M 22544.7,19147.2
22603.5,19158.9
22668,19185.6
22726.1,19224.5
22775.5,19273.9
22814.4,19332
22841.1,19396.5
22854.7,19465.1
22854.7,19534.9
22841.1,19603.5
22814.4,19668
22775.5,19726.1
22726.1,19775.5
22668,19814.4
22603.5,19841.1
22544.7,19852.8
22534.9,19854.7
22465.1,19854.7
22455.3,19852.8
22396.5,19841.1
22332,19814.4
22273.9,19775.5
22224.5,19726.1
22185.6,19668
22158.9,19603.5
22145.3,19534.9
22145.3,19465.1
22158.9,19396.5
22185.6,19332
22224.5,19273.9
22273.9,19224.5
22332,19185.6
22396.5,19158.9
22455.3,19147.2
22465.1,19145.3
22534.9,19145.3
Z" /> 
<path style="fill:#848400; fill-opacity:1.0; 
stroke:#848400; stroke-width:0; stroke-opacity:1; 
stroke-linecap:round; stroke-linejoin:round;fill-rule:evenodd;"
d="M 23544.7,19147.2
23603.5,19158.9
23668,19185.6
23726.1,19224.5
23775.5,19273.9
23814.4,19332
23841.1,19396.5
23854.7,19465.1
23854.7,19534.9
23841.1,19603.5
23814.4,19668
23775.5,19726.1
23726.1,19775.5
23668,19814.4
23603.5,19841.1
23544.7,19852.8
23534.9,19854.7
23465.1,19854.7
23455.3,19852.8
23396.5,19841.1
23332,19814.4
23273.9,19775.5
23224.5,19726.1
23185.6,19668
23158.9,19603.5
23145.3,19534.9
23145.3,19465.1
23158.9,19396.5
23185.6,19332
23224.5,19273.9
23273.9,19224.5
23332,19185.6
23396.5,19158.9
23455.3,19147.2
23465.1,19145.3
23534.9,19145.3
Z" /> 
<path style="fill:#848400; fill-opacity:1.0; 
stroke:#848400; stroke-width:0; stroke-opacity:1; 
stroke-linecap:round; stroke-linejoin:round;fill-rule:evenodd;"
d="M 24854.7,19854.7
24145.3,19854.7
24145.3,19145.3
24854.7,19145.3
Z" /> 
<path style="fill:#848400; fill-opacity:1.0; 
stroke:#848400; stroke-width:0; stroke-opacity:1; 
stroke-linecap:round; stroke-linejoin:round;fill-rule:evenodd;"
d="M 21544.7,19147.2
21603.5,19158.9
21668,19185.6
21726.1,19224.5
21775.5,19273.9
21814.4,19332
21841.1,19396.5
21854.7,19465.1
21854.7,19534.9
21841.1,19603.5
21814.4,19668
21775.5,19726.1
21726.1,19775.5
21668,19814.4
21603.5,19841.1
21544.7,19852.8
21534.9,19854.7
21465.1,19854.7
21455.3,19852.8
21396.5,19841.1
21332,19814.4
21273.9,19775.5
21224.5,19726.1
21185.6,19668
21158.9,19603.5
21145.3,19534.9
21145.3,19465.1
21158.9,19396.5
21185.6,19332
21224.5,19273.9
21273.9,19224.5
21332,19185.6
21396.5,19158.9
21455.3,19147.2
21465.1,19145.3
21534.9,19145.3
Z" /> 
<path style="fill:#848400; fill-opacity:1.0; 
stroke:#848400; stroke-width:0; stroke-opacity:1; 
stroke-linecap:round; stroke-linejoin:round;fill-rule:evenodd;"
d="M 18279.7,18602.1
18355.1,18633.3
18355.1,18633.3
18422.8,18678.6
18480.5,18736.2
18525.7,18804
18556.9,18879.3
18572.8,18959.2
18572.8,19040.8
18556.9,19120.7
18541.1,19158.9
18525.7,19196
18480.5,19263.8
18422.8,19321.4
18355.1,19366.7
18355.1,19366.7
18355.1,19366.7
18279.7,19397.9
18199.8,19413.8
18118.3,19413.8
18038.4,19397.9
17963.1,19366.7
17963.1,19366.7
17963.1,19366.7
17895.3,19321.4
17837.7,19263.8
17792.4,19196
17777,19158.9
17761.2,19120.7
17745.3,19040.8
17745.3,18959.2
17761.2,18879.3
17792.4,18804
17837.7,18736.2
17895.3,18678.6
17963.1,18633.3
17963.1,18633.3
18038.4,18602.1
18118.3,18586.2
18199.8,18586.2
Z" /> 
<path style="fill:#848400; fill-opacity:1.0; 
stroke:#848400; stroke-width:0; stroke-opacity:1; 
stroke-linecap:round; stroke-linejoin:round;fill-rule:evenodd;"
d="M 15720.7,18602.1
15796,18633.3
15796,18633.3
15863.8,18678.6
15921.4,18736.2
15966.7,18804
15997.9,18879.3
16013.8,18959.2
16013.8,19040.8
15997.9,19120.7
15982,19158.9
15966.7,19196
15921.4,19263.8
15863.8,19321.4
15796,19366.7
15796,19366.7
15796,19366.7
15720.7,19397.9
15640.8,19413.8
15559.2,19413.8
15479.3,19397.9
15404,19366.7
15404,19366.7
15404,19366.7
15336.2,19321.4
15278.6,19263.8
15233.3,19196
15217.9,19158.9
15202.1,19120.7
15186.2,19040.8
15186.2,18959.2
15202.1,18879.3
15233.3,18804
15278.6,18736.2
15336.2,18678.6
15404,18633.3
15404,18633.3
15479.3,18602.1
15559.2,18586.2
15640.8,18586.2
Z" /> 
<path style="fill:#848400; fill-opacity:1.0; 
stroke:#848400; stroke-width:0; stroke-opacity:1; 
stroke-linecap:round; stroke-linejoin:round;fill-rule:evenodd;"
d="M 27547.7,17166.7
27589.6,17175
27707.9,17224
27814.4,17295.1
27904.9,17385.6
27935.8,17432
27976,17492.1
28025,17610.4
28050,17736
28050,17864
28047.7,17875.5
28025,17989.6
27976,18107.9
27904.9,18214.4
27814.4,18304.9
27707.9,18376
27589.6,18425
27547.7,18433.3
27464,18450
27336,18450
27252.3,18433.3
27210.4,18425
27092.1,18376
26985.6,18304.9
26895.1,18214.4
26824,18107.9
26775,17989.6
26752.3,17875.5
26750,17864
26750,17736
26775,17610.4
26824,17492.1
26864.2,17432
26895.1,17385.6
26985.6,17295.1
27092.1,17224
27210.4,17175
27252.3,17166.7
27336,17150
27464,17150
Z" /> 
<path style="fill:#848400; fill-opacity:1.0; 
stroke:#848400; stroke-width:0; stroke-opacity:1; 
stroke-linecap:round; stroke-linejoin:round;fill-rule:evenodd;"
d="M 20044.7,17247.2
20103.5,17258.9
20168,17285.6
20226.1,17324.5
20275.5,17373.9
20314.4,17432
20341.1,17496.5
20354.7,17565.1
20354.7,17634.9
20341.1,17703.5
20314.4,17768
20275.5,17826.1
20226.1,17875.5
20168,17914.4
20103.5,17941.1
20044.7,17952.8
20034.9,17954.7
19965.1,17954.7
19955.3,17952.8
19896.5,17941.1
19832,17914.4
19773.9,17875.5
19724.5,17826.1
19685.6,17768
19658.9,17703.5
19645.3,17634.9
19645.3,17565.1
19658.9,17496.5
19685.6,17432
19724.5,17373.9
19773.9,17324.5
19832,17285.6
19896.5,17258.9
19955.3,17247.2
19965.1,17245.3
20034.9,17245.3
Z" /> 
<path style="fill:#848400; fill-opacity:1.0; 
stroke:#848400; stroke-width:0; stroke-opacity:1; 
stroke-linecap:round; stroke-linejoin:round;fill-rule:evenodd;"
d="M 24644.7,17247.2
24703.5,17258.9
24768,17285.6
24826.1,17324.5
24875.5,17373.9
24914.4,17432
24941.1,17496.5
24954.7,17565.1
24954.7,17634.9
24941.1,17703.5
24914.4,17768
24875.5,17826.1
24826.1,17875.5
24768,17914.4
24703.5,17941.1
24644.7,17952.8
24634.9,17954.7
24565.1,17954.7
24555.3,17952.8
24496.5,17941.1
24432,17914.4
24373.9,17875.5
24324.5,17826.1
24285.6,17768
24258.9,17703.5
24245.3,17634.9
24245.3,17565.1
24258.9,17496.5
24285.6,17432
24324.5,17373.9
24373.9,17324.5
24432,17285.6
24496.5,17258.9
24555.3,17247.2
24565.1,17245.3
24634.9,17245.3
Z" /> 
<path style="fill:#848400; fill-opacity:1.0; 
stroke:#848400; stroke-width:0; stroke-opacity:1; 
stroke-linecap:round; stroke-linejoin:round;fill-rule:evenodd;"
d="M 23644.7,17247.2
23703.5,17258.9
23768,17285.6
23826.1,17324.5
23875.5,17373.9
23914.4,17432
23941.1,17496.5
23954.7,17565.1
23954.7,17634.9
23941.1,17703.5
23914.4,17768
23875.5,17826.1
23826.1,17875.5
23768,17914.4
23703.5,17941.1
23644.7,17952.8
23634.9,17954.7
23565.1,17954.7
23555.3,17952.8
23496.5,17941.1
23432,17914.4
23373.9,17875.5
23324.5,17826.1
23285.6,17768
23258.9,17703.5
23245.3,17634.9
23245.3,17565.1
23258.9,17496.5
23285.6,17432
23324.5,17373.9
23373.9,17324.5
23432,17285.6
23496.5,17258.9
23555.3,17247.2
23565.1,17245.3
23634.9,17245.3
Z" /> 
<path style="fill:#848400; fill-opacity:1.0; 
stroke:#848400; stroke-width:0; stroke-opacity:1; 
stroke-linecap:round; stroke-linejoin:round;fill-rule:evenodd;"
d="M 22954.7,17954.7
22245.3,17954.7
22245.3,17245.3
22954.7,17245.3
Z" /> 
<path style="fill:#848400; fill-opacity:1.0; 
stroke:#848400; stroke-width:0; stroke-opacity:1; 
stroke-linecap:round; stroke-linejoin:round;fill-rule:evenodd;"
d="M 21044.7,17247.2
21103.5,17258.9
21168,17285.6
21226.1,17324.5
21275.5,17373.9
21314.4,17432
21341.1,17496.5
21354.7,17565.1
21354.7,17634.9
21341.1,17703.5
21314.4,17768
21275.5,17826.1
21226.1,17875.5
21168,17914.4
21103.5,17941.1
21044.7,17952.8
21034.9,17954.7
20965.1,17954.7
20955.3,17952.8
20896.5,17941.1
20832,17914.4
20773.9,17875.5
20724.5,17826.1
20685.6,17768
20658.9,17703.5
20645.3,17634.9
20645.3,17565.1
20658.9,17496.5
20685.6,17432
20724.5,17373.9
20773.9,17324.5
20832,17285.6
20896.5,17258.9
20955.3,17247.2
20965.1,17245.3
21034.9,17245.3
Z" /> 
<path style="fill:#848400; fill-opacity:1.0; 
stroke:#848400; stroke-width:0; stroke-opacity:1; 
stroke-linecap:round; stroke-linejoin:round;fill-rule:evenodd;"
d="M 19354.7,17954.7
18645.3,17954.7
18645.3,17245.3
19354.7,17245.3
Z" /> 
</g>
<g style="fill:#000000; fill-opacity:1.0; 
stroke:#000000; stroke-width:0; stroke-opacity:1; 
stroke-linecap:round; stroke-linejoin:round;">
</g>
<g style="fill:#C2C200; fill-opacity:1.0; 
stroke:#C2C200; stroke-width:0; stroke-opacity:1; 
stroke-linecap:round; stroke-linejoin:round;">
</g>
<g style="fill:#C2C200; fill-opacity:1.0; 
stroke:#C2C200; stroke-width:19.685; stroke-opacity:1; 
stroke-linecap:round; stroke-linejoin:round;">
</g>
<g style="fill:#C2C200; fill-opacity:0.0; 
stroke:#C2C200; stroke-width:19.685; stroke-opacity:1; 
stroke-linecap:round; stroke-linejoin:round;">
<path d="M14500 38750
L14500 16500
" />
<path d="M28750 38750
L14500 38750
" />
<path d="M28750 16500
L28750 38750
" />
<path d="M14500 16500
L28750 16500
" />
<g >
</g>
<g >
</g>
<g >
</g>
<g >
</g>
<g >
</g>
<g >
</g>
<g >
</g>
<g >
</g>
<g >
</g>
<g >
</g>
<g >
</g>
<g >
</g>
<g >
</g>
<g >
</g>
</g> 
</svg>
