<?xml version="1.0" encoding="UTF-8" standalone="no"?><svg xmlns="http://www.w3.org/2000/svg" xmlns:xlink="http://www.w3.org/1999/xlink" contentStyleType="text/css" height="803px" preserveAspectRatio="none" style="width:1930px;height:803px;background:#FFFFFF;" version="1.1" viewBox="0 0 1930 803" width="1930px" zoomAndPan="magnify"><defs/><g><!--MD5=[e0c72c07c257c05cb7d4bf97d5a1910b]
cluster calibration_ph--><g id="cluster_calibration_ph"><path d="M19.5,7 L282.5,7 A12.5,12.5 0 0 1 295,19.5 L295,28.2969 L7,28.2969 L7,19.5 A12.5,12.5 0 0 1 19.5,7 " fill="#F1F1F1" style="stroke:#F1F1F1;stroke-width:1.0;"/><rect fill="none" height="435" rx="12.5" ry="12.5" style="stroke:#181818;stroke-width:0.5;" width="288" x="7" y="7"/><line style="stroke:#181818;stroke-width:0.5;" x1="7" x2="295" y1="28.2969" y2="28.2969"/><text fill="#000000" font-family="sans-serif" font-size="14" lengthAdjust="spacing" textLength="103" x="99.5" y="23.9951">calibration_ph</text></g><!--MD5=[61b7ac68d61b31a37687c8ff60f9ac14]
cluster calibration_ec--><g id="cluster_calibration_ec"><path d="M1535.5,7 L1796.5,7 A12.5,12.5 0 0 1 1809,19.5 L1809,28.2969 L1523,28.2969 L1523,19.5 A12.5,12.5 0 0 1 1535.5,7 " fill="#F1F1F1" style="stroke:#F1F1F1;stroke-width:1.0;"/><rect fill="none" height="435" rx="12.5" ry="12.5" style="stroke:#181818;stroke-width:0.5;" width="286" x="1523" y="7"/><line style="stroke:#181818;stroke-width:0.5;" x1="1523" x2="1809" y1="28.2969" y2="28.2969"/><text fill="#000000" font-family="sans-serif" font-size="14" lengthAdjust="spacing" textLength="101" x="1615.5" y="23.9951">calibration_ec</text></g><!--MD5=[6633b345a2b021df6bd32232ea09898d]
cluster change_ph_range--><g id="cluster_change_ph_range"><path d="M347.5,306 L562.5,306 A12.5,12.5 0 0 1 575,318.5 L575,327.2969 L335,327.2969 L335,318.5 A12.5,12.5 0 0 1 347.5,306 " fill="#F1F1F1" style="stroke:#F1F1F1;stroke-width:1.0;"/><rect fill="none" height="136" rx="12.5" ry="12.5" style="stroke:#181818;stroke-width:0.5;" width="240" x="335" y="306"/><line style="stroke:#181818;stroke-width:0.5;" x1="335" x2="575" y1="327.2969" y2="327.2969"/><text fill="#000000" font-family="sans-serif" font-size="14" lengthAdjust="spacing" textLength="126" x="392" y="322.9951">change_ph_range</text></g><!--MD5=[bda2c9eb75e5770d2f3f695f87c1174c]
cluster change_ec_range--><g id="cluster_change_ec_range"><path d="M1257.5,306 L1470.5,306 A12.5,12.5 0 0 1 1483,318.5 L1483,327.2969 L1245,327.2969 L1245,318.5 A12.5,12.5 0 0 1 1257.5,306 " fill="#F1F1F1" style="stroke:#F1F1F1;stroke-width:1.0;"/><rect fill="none" height="136" rx="12.5" ry="12.5" style="stroke:#181818;stroke-width:0.5;" width="238" x="1245" y="306"/><line style="stroke:#181818;stroke-width:0.5;" x1="1245" x2="1483" y1="327.2969" y2="327.2969"/><text fill="#000000" font-family="sans-serif" font-size="14" lengthAdjust="spacing" textLength="124" x="1302" y="322.9951">change_ec_range</text></g><!--MD5=[259ea5e7e2df4b14b639af1f54c3549b]
cluster measure_ph--><g id="cluster_measure_ph"><path d="M707.5,661 L946.5,661 A12.5,12.5 0 0 1 959,673.5 L959,682.2969 L695,682.2969 L695,673.5 A12.5,12.5 0 0 1 707.5,661 " fill="#F1F1F1" style="stroke:#F1F1F1;stroke-width:1.0;"/><rect fill="none" height="136" rx="12.5" ry="12.5" style="stroke:#181818;stroke-width:0.5;" width="264" x="695" y="661"/><line style="stroke:#181818;stroke-width:0.5;" x1="695" x2="959" y1="682.2969" y2="682.2969"/><text fill="#000000" font-family="sans-serif" font-size="14" lengthAdjust="spacing" textLength="87" x="783.5" y="677.9951">measure_ph</text></g><!--MD5=[902f632078b2322f3d65aced9d34e1bd]
cluster measure_ec--><g id="cluster_measure_ec"><path d="M1011.5,661 L1248.5,661 A12.5,12.5 0 0 1 1261,673.5 L1261,682.2969 L999,682.2969 L999,673.5 A12.5,12.5 0 0 1 1011.5,661 " fill="#F1F1F1" style="stroke:#F1F1F1;stroke-width:1.0;"/><rect fill="none" height="136" rx="12.5" ry="12.5" style="stroke:#181818;stroke-width:0.5;" width="262" x="999" y="661"/><line style="stroke:#181818;stroke-width:0.5;" x1="999" x2="1261" y1="682.2969" y2="682.2969"/><text fill="#000000" font-family="sans-serif" font-size="14" lengthAdjust="spacing" textLength="85" x="1087.5" y="677.9951">measure_ec</text></g><ellipse cx="41" cy="94" fill="#222222" rx="10" ry="10" style="stroke:none;stroke-width:1.0;"/><g id="calibration_ph.set_first_sample_ph"><rect fill="#F1F1F1" height="50" rx="12.5" ry="12.5" style="stroke:#181818;stroke-width:0.5;" width="165" x="86.5" y="69"/><line style="stroke:#181818;stroke-width:0.5;" x1="86.5" x2="251.5" y1="95.2969" y2="95.2969"/><text fill="#000000" font-family="sans-serif" font-size="14" lengthAdjust="spacing" textLength="145" x="96.5" y="86.9951">set_first_sample_ph</text></g><g id="calibration_ph.set_second_sample_ph"><rect fill="#F1F1F1" height="50" rx="12.5" ry="12.5" style="stroke:#181818;stroke-width:0.5;" width="186" x="62" y="368"/><line style="stroke:#181818;stroke-width:0.5;" x1="62" x2="248" y1="394.2969" y2="394.2969"/><text fill="#000000" font-family="sans-serif" font-size="14" lengthAdjust="spacing" textLength="166" x="72" y="385.9951">set_second_sample_ph</text></g><ellipse cx="1557" cy="94" fill="#222222" rx="10" ry="10" style="stroke:none;stroke-width:1.0;"/><g id="calibration_ec.set_first_sample_ec"><rect fill="#F1F1F1" height="50" rx="12.5" ry="12.5" style="stroke:#181818;stroke-width:0.5;" width="163" x="1602.5" y="69"/><line style="stroke:#181818;stroke-width:0.5;" x1="1602.5" x2="1765.5" y1="95.2969" y2="95.2969"/><text fill="#000000" font-family="sans-serif" font-size="14" lengthAdjust="spacing" textLength="143" x="1612.5" y="86.9951">set_first_sample_ec</text></g><g id="calibration_ec.set_second_sample_ec"><rect fill="#F1F1F1" height="50" rx="12.5" ry="12.5" style="stroke:#181818;stroke-width:0.5;" width="184" x="1553" y="368"/><line style="stroke:#181818;stroke-width:0.5;" x1="1553" x2="1737" y1="394.2969" y2="394.2969"/><text fill="#000000" font-family="sans-serif" font-size="14" lengthAdjust="spacing" textLength="164" x="1563" y="385.9951">set_second_sample_ec</text></g><ellipse cx="388" cy="393" fill="#222222" rx="10" ry="10" style="stroke:none;stroke-width:1.0;"/><g id="change_ph_range.set_ph_range"><rect fill="#F1F1F1" height="50" rx="12.5" ry="12.5" style="stroke:#181818;stroke-width:0.5;" width="117" x="433.5" y="368"/><line style="stroke:#181818;stroke-width:0.5;" x1="433.5" x2="550.5" y1="394.2969" y2="394.2969"/><text fill="#000000" font-family="sans-serif" font-size="14" lengthAdjust="spacing" textLength="97" x="443.5" y="385.9951">set_ph_range</text></g><ellipse cx="1298" cy="393" fill="#222222" rx="10" ry="10" style="stroke:none;stroke-width:1.0;"/><g id="change_ec_range.set_ec_range"><rect fill="#F1F1F1" height="50" rx="12.5" ry="12.5" style="stroke:#181818;stroke-width:0.5;" width="115" x="1343.5" y="368"/><line style="stroke:#181818;stroke-width:0.5;" x1="1343.5" x2="1458.5" y1="394.2969" y2="394.2969"/><text fill="#000000" font-family="sans-serif" font-size="14" lengthAdjust="spacing" textLength="95" x="1353.5" y="385.9951">set_ec_range</text></g><ellipse cx="748" cy="748" fill="#222222" rx="10" ry="10" style="stroke:none;stroke-width:1.0;"/><g id="measure_ph.present_ph_data"><rect fill="#F1F1F1" height="50" rx="12.5" ry="12.5" style="stroke:#181818;stroke-width:0.5;" width="142" x="793" y="723"/><line style="stroke:#181818;stroke-width:0.5;" x1="793" x2="935" y1="749.2969" y2="749.2969"/><text fill="#000000" font-family="sans-serif" font-size="14" lengthAdjust="spacing" textLength="122" x="803" y="740.9951">present_ph_data</text></g><ellipse cx="1033" cy="748" fill="#222222" rx="10" ry="10" style="stroke:none;stroke-width:1.0;"/><g id="measure_ec.present_ec_data"><rect fill="#F1F1F1" height="50" rx="12.5" ry="12.5" style="stroke:#181818;stroke-width:0.5;" width="140" x="1078" y="723"/><line style="stroke:#181818;stroke-width:0.5;" x1="1078" x2="1218" y1="749.2969" y2="749.2969"/><text fill="#000000" font-family="sans-serif" font-size="14" lengthAdjust="spacing" textLength="120" x="1088" y="740.9951">present_ec_data</text></g><ellipse cx="755" cy="393" fill="#222222" rx="10" ry="10" style="stroke:none;stroke-width:1.0;"/><g id="startup"><rect fill="#F1F1F1" height="50" rx="12.5" ry="12.5" style="stroke:#181818;stroke-width:0.5;" width="73" x="800.5" y="368"/><line style="stroke:#181818;stroke-width:0.5;" x1="800.5" x2="873.5" y1="394.2969" y2="394.2969"/><text fill="#000000" font-family="sans-serif" font-size="14" lengthAdjust="spacing" textLength="53" x="810.5" y="385.9951">startup</text></g><path d="M921,196 L1205,196 A12.5,12.5 0 0 1 1217.5,208.5 L1217.5,222.2969 L908.5,222.2969 L908.5,208.5 A12.5,12.5 0 0 1 921,196 " fill="#F1F1F1" style="stroke:#F1F1F1;stroke-width:1.0;"/><rect fill="none" height="394.2969" rx="12.5" ry="12.5" style="stroke:#181818;stroke-width:0.5;" width="309" x="908.5" y="196"/><line style="stroke:#181818;stroke-width:0.5;" x1="908.5" x2="1217.5" y1="222.2969" y2="222.2969"/><text fill="#000000" font-family="sans-serif" font-size="14" lengthAdjust="spacing" textLength="83" x="1021.5" y="213.9951">automation</text><ellipse cx="929.5" cy="259.2969" fill="#222222" rx="10" ry="10" style="stroke:none;stroke-width:1.0;"/><g id="automation.check_ph_automation"><rect fill="#F1F1F1" height="50" rx="12.5" ry="12.5" style="stroke:#181818;stroke-width:0.5;" width="179" x="958" y="234.2969"/><line style="stroke:#181818;stroke-width:0.5;" x1="958" x2="1137" y1="260.5938" y2="260.5938"/><text fill="#000000" font-family="sans-serif" font-size="14" lengthAdjust="spacing" textLength="159" x="968" y="252.292">check_ph_automation</text></g><g id="automation.fill_ph"><rect fill="#F1F1F1" height="50" rx="12.5" ry="12.5" style="stroke:#181818;stroke-width:0.5;" width="64" x="949.5" y="405.2969"/><line style="stroke:#181818;stroke-width:0.5;" x1="949.5" x2="1013.5" y1="431.5938" y2="431.5938"/><text fill="#000000" font-family="sans-serif" font-size="14" lengthAdjust="spacing" textLength="44" x="959.5" y="423.292">fill_ph</text></g><g id="automation.check_ec_automation"><rect fill="#F1F1F1" height="50" rx="12.5" ry="12.5" style="stroke:#181818;stroke-width:0.5;" width="177" x="1025" y="337.2969"/><line style="stroke:#181818;stroke-width:0.5;" x1="1025" x2="1202" y1="363.5938" y2="363.5938"/><text fill="#000000" font-family="sans-serif" font-size="14" lengthAdjust="spacing" textLength="157" x="1035" y="355.292">check_ec_automation</text></g><g id="automation.fill_ec"><rect fill="#F1F1F1" height="50" rx="12.5" ry="12.5" style="stroke:#181818;stroke-width:0.5;" width="62" x="1009.5" y="473.2969"/><line style="stroke:#181818;stroke-width:0.5;" x1="1009.5" x2="1071.5" y1="499.5938" y2="499.5938"/><text fill="#000000" font-family="sans-serif" font-size="14" lengthAdjust="spacing" textLength="42" x="1019.5" y="491.292">fill_ec</text></g><ellipse cx="1040.5" cy="570.2969" fill="none" rx="10" ry="10" style="stroke:#222222;stroke-width:1.0;"/><ellipse cx="1041" cy="570.7969" fill="#222222" rx="6" ry="6" style="stroke:none;stroke-width:1.0;"/><!--MD5=[434e41649148a6033b5d3a55389d6851]
link *start*automation to check_ph_automation--><g id="link_*start*automation_check_ph_automation"><path d="M939.6406,259.2969 C943.9812,259.2969 948.3217,259.2969 952.6622,259.2969 " fill="none" id="*start*automation-to-check_ph_automation" style="stroke:#181818;stroke-width:1.0;"/><polygon fill="#181818" points="957.7576,259.2969,948.7576,255.2969,952.7576,259.2969,948.7576,263.2969,957.7576,259.2969" style="stroke:#181818;stroke-width:1.0;"/></g><!--MD5=[c5782cb9bba0c90269553657f36f9dcb]
link check_ph_automation to fill_ph--><g id="link_check_ph_automation_fill_ph"><path d="M994.3383,284.3449 C988.0093,289.3809 982.4163,295.3279 978.5,302.2969 C961.6144,332.3429 966.4621,373.0319 972.8015,400.1729 " fill="none" id="check_ph_automation-to-fill_ph" style="stroke:#181818;stroke-width:1.0;"/><polygon fill="#181818" points="973.9977,405.0779,975.7495,395.3861,972.8121,400.2205,967.9776,397.2831,973.9977,405.0779" style="stroke:#181818;stroke-width:1.0;"/><text fill="#000000" font-family="sans-serif" font-size="13" lengthAdjust="spacing" textLength="107" x="979.5" y="315.3638">ec_out_of_range</text></g><!--MD5=[f8b911894df9cf8d1c9431261c543a87]
link check_ph_automation to check_ec_automation--><g id="link_check_ph_automation_check_ec_automation"><path d="M1076.531,284.3599 C1082.004,289.8489 1087.315,295.9489 1091.5,302.2969 C1097.498,311.3959 1102.16,322.3549 1105.618,332.3459 " fill="none" id="check_ph_automation-to-check_ec_automation" style="stroke:#181818;stroke-width:1.0;"/><polygon fill="#181818" points="1107.219,337.1599,1108.1757,327.3576,1105.6417,332.4152,1100.5841,329.8812,1107.219,337.1599" style="stroke:#181818;stroke-width:1.0;"/><text fill="#000000" font-family="sans-serif" font-size="13" lengthAdjust="spacing" textLength="68" x="1100.5" y="315.3638">correct_ph</text></g><!--MD5=[b9072545e05d38283c26069f582ac083]
link check_ec_automation to fill_ec--><g id="link_check_ec_automation_fill_ec"><path d="M1055.84,387.3289 C1049.336,392.3329 1043.588,398.2759 1039.5,405.2969 C1028.553,424.0969 1029.537,448.9329 1032.856,468.0609 " fill="none" id="check_ec_automation-to-fill_ec" style="stroke:#181818;stroke-width:1.0;"/><polygon fill="#181818" points="1033.845,473.2949,1036.1039,463.7086,1032.9164,468.3819,1028.2431,465.1943,1033.845,473.2949" style="stroke:#181818;stroke-width:1.0;"/><text fill="#000000" font-family="sans-serif" font-size="13" lengthAdjust="spacing" textLength="108" x="1040.5" y="434.8638">ph_out_of_range</text></g><!--MD5=[35e0211521061c5f5e2eb690e8e76ab8]
link check_ec_automation to *end*automation--><g id="link_check_ec_automation_*end*automation"><path d="M1139.203,387.6079 C1143.419,392.9949 1147.168,398.9919 1149.5,405.2969 C1157.21,426.1389 1157.773,434.6719 1149.5,455.2969 C1129.716,504.6163 1077.29,544.672 1053.08,561.1674 " fill="none" id="check_ec_automation-to-*end*automation" style="stroke:#181818;stroke-width:1.0;"/><polygon fill="#181818" points="1048.632,564.1481,1058.335,562.4594,1052.7852,561.364,1053.8805,555.8142,1048.632,564.1481" style="stroke:#181818;stroke-width:1.0;"/><text fill="#000000" font-family="sans-serif" font-size="13" lengthAdjust="spacing" textLength="67" x="1140.5" y="502.8638">correct_ec</text></g><!--MD5=[b0a61368f84f921a1d3a9339edd6fa3a]
link fill_ph to *end*automation--><g id="link_fill_ph_*end*automation"><path d="M983.1151,455.4449 C985.177,474.6659 989.8629,501.8112 1000.5,523.2969 C1007.649,537.737 1020.443,551.2715 1029.638,559.87 " fill="none" id="fill_ph-to-*end*automation" style="stroke:#181818;stroke-width:1.0;"/><polygon fill="#181818" points="1033.332,563.2412,1029.38,554.22,1029.6386,559.8709,1023.9876,560.1295,1033.332,563.2412" style="stroke:#181818;stroke-width:1.0;"/></g><!--MD5=[c88f6f9297c7d5aa25b78cba4600af3a]
link fill_ec to *end*automation--><g id="link_fill_ec_*end*automation"><path d="M1040.5,523.3869 C1040.5,533.8671 1040.5,545.7974 1040.5,554.8691 " fill="none" id="fill_ec-to-*end*automation" style="stroke:#181818;stroke-width:1.0;"/><polygon fill="#181818" points="1040.5,560.1097,1044.5,551.1097,1040.5,555.1097,1036.5,551.1097,1040.5,560.1097" style="stroke:#181818;stroke-width:1.0;"/></g><!--MD5=[fcd815e3564d5ceacdfaf857d11377e3]
link *start to startup--><g id="link_*start_startup"><path d="M765.25,393 C775.195,393 785.139,393 795.084,393 " fill="none" id="*start-to-startup" style="stroke:#181818;stroke-width:1.0;"/><polygon fill="#181818" points="800.284,393,791.284,389,795.284,393,791.284,397,800.284,393" style="stroke:#181818;stroke-width:1.0;"/></g><!--MD5=[71b82209d3c49307a26a2b1965cf56cf]
link startup to measure_ph--><g id="link_startup_measure_ph"><path d="M834.557,418.013 C829.717,456.747 816.242,534.301 782,590 C763.054,620.817 739.549,613.367 722,645 C719.2474,649.9616 716.8845,655.2466 714.8571,660.7001 " fill="none" id="startup-to-measure_ph" style="stroke:#181818;stroke-width:1.0;"/><polygon fill="#181818" points="714.8571,660.7001,721.7425,653.658,716.5994,656.0135,714.2439,650.8704,714.8571,660.7001" style="stroke:#181818;stroke-width:1.0;"/></g><!--MD5=[cb1c77d0aa2c07a79991f76db5d3e3e6]
link measure_ph to measure_ec--><g id="link_measure_ph_measure_ec"><path d="M709.8712,660.7667 C710.036,660.4738 710.2032,660.1823 710.3728,659.8924 C710.712,659.3125 711.0606,658.7388 711.419,658.1715 C714.2859,653.6335 717.7744,649.5111 722,646 C743.877,627.821 1212.12,627.821 1234,646 C1238.225,649.5111 1241.713,653.6335 1244.5796,658.1715 C1244.9379,658.7388 1245.2865,659.3125 1245.6256,659.8924 C1245.7952,660.1823 1245.9624,660.4738 1246.1272,660.7667 " fill="none" id="measure_ph-to-measure_ec" style="stroke:#181818;stroke-width:1.0;"/><polygon fill="#181818" points="1246.1272,660.7667,1245.1994,650.9617,1243.6751,656.4093,1238.2275,654.8851,1246.1272,660.7667" style="stroke:#181818;stroke-width:1.0;"/><text fill="#000000" font-family="sans-serif" font-size="13" lengthAdjust="spacing" textLength="79" x="923.5" y="633.0669">left_pressed</text></g><!--MD5=[fccc07efbd93e6797ceeb0e29bf76eee]
link measure_ec to measure_ph--><g id="link_measure_ec_measure_ph"><path d="M1246.1272,660.7667 C1245.9624,660.4738 1245.7952,660.1823 1245.6256,659.8924 C1245.2865,659.3125 1244.9379,658.7388 1244.5796,658.1715 C1241.713,653.6335 1238.225,649.5111 1234,646 C1212.12,627.821 743.877,627.821 722,646 C717.7744,649.5111 714.2859,653.6335 711.419,658.1715 C711.0606,658.7388 710.712,659.3125 710.3728,659.8924 C710.2032,660.1823 710.036,660.4738 709.8712,660.7667 " fill="none" id="measure_ec-to-measure_ph" style="stroke:#181818;stroke-width:1.0;"/><polygon fill="#181818" points="709.8712,660.7667,717.7712,654.8854,712.3235,656.4094,710.7995,650.9617,709.8712,660.7667" style="stroke:#181818;stroke-width:1.0;"/><text fill="#000000" font-family="sans-serif" font-size="13" lengthAdjust="spacing" textLength="79" x="1009.5" y="633.0669">left_pressed</text></g><!--MD5=[ce79ea9f65827ffe7d53c7e6414d9d98]
link measure_ph to calibration_ph--><g id="link_measure_ph_calibration_ph"><path d="M694.8542,724.9794 C694.793,724.8109 694.7315,724.6416 694.6697,724.4715 C694.5462,724.1313 694.4216,723.7879 694.2959,723.4413 C693.2906,720.6688 692.2179,717.6943 691.0886,714.5414 C688.8299,708.2357 686.3449,701.2164 683.7196,693.672 C673.2185,663.4946 660.4735,624.916 651,590 C604.115,417.201 684.701,330.923 567,196 C524.1965,146.9335 455.698,121.6998 397.1671,108.7246 C367.9017,102.2371 341.1282,98.8142 321.3044,97.0091 C311.3925,96.1066 303.218,95.6086 297.3382,95.3342 C296.6032,95.2999 295.9041,95.2691 295.2419,95.2414 " fill="none" id="measure_ph-to-calibration_ph" style="stroke:#181818;stroke-width:1.0;"/><polygon fill="#181818" points="295.2419,95.2414,304.0671,99.6136,300.2376,95.4501,304.401,91.6206,295.2419,95.2414" style="stroke:#181818;stroke-width:1.0;"/><text fill="#000000" font-family="sans-serif" font-size="13" lengthAdjust="spacing" textLength="74" x="652" y="397.5669">up_pressed</text></g><!--MD5=[265956b0681fb96ea2f696f75e684b63]
link measure_ph to change_ph_range--><g id="link_measure_ph_change_ph_range"><path d="M694.8844,745.7979 C694.2297,745.6951 693.5381,745.5855 692.8103,745.4688 C686.9885,744.5352 678.8578,743.1504 668.9046,741.2487 C648.9984,737.4453 621.8026,731.5742 591.2086,723.1099 C530.0207,706.1812 455.2405,678.8795 398,637 C354.015,604.8185 340.004,545.4493 337.1166,493.4511 C336.3948,480.4516 336.3682,467.9128 336.7422,456.3746 C336.8358,453.4901 336.9543,450.6681 337.0933,447.917 C337.1628,446.5415 337.2374,445.1838 337.3166,443.8448 C337.3364,443.5101 337.3564,443.1765 337.3768,442.8441 " fill="none" id="measure_ph-to-change_ph_range" style="stroke:#181818;stroke-width:1.0;"/><polygon fill="#181818" points="337.3768,442.8441,332.8344,451.5829,337.0713,447.8348,340.8194,452.0717,337.3768,442.8441" style="stroke:#181818;stroke-width:1.0;"/><text fill="#000000" font-family="sans-serif" font-size="13" lengthAdjust="spacing" textLength="93" x="399" y="633.0669">down_pressed</text></g><!--MD5=[32b6d9caa5d8312293e90f535e5154c8]
link measure_ec to calibration_ec--><g id="link_measure_ec_calibration_ec"><path d="M1261.5802,745.8155 C1261.8454,745.7781 1262.1163,745.7398 1262.3929,745.7007 C1263.4996,745.5442 1264.6983,745.3737 1265.9858,745.1894 C1268.5609,744.8207 1271.4915,744.3964 1274.7529,743.9172 C1287.7985,742.0007 1306.1361,739.2065 1328.1778,735.5793 C1372.2612,728.325 1431.1612,717.7389 1492.175,704.1791 C1614.2025,677.0595 1744.685,638.045 1782,590 C1848.995,503.738 1854.195,381.24 1842.4238,279.6889 C1836.5381,228.9133 1826.4097,183.3745 1817.6414,150.2202 C1815.4493,141.9316 1813.3423,134.4171 1811.4078,127.7883 C1810.9241,126.1311 1810.4513,124.5293 1809.9906,122.9845 C1809.7603,122.2121 1809.533,121.454 1809.3089,120.7104 " fill="none" id="measure_ec-to-calibration_ec" style="stroke:#181818;stroke-width:1.0;"/><polygon fill="#181818" points="1809.3089,120.7104,1808.0759,130.4818,1810.7516,125.4978,1815.7357,128.1734,1809.3089,120.7104" style="stroke:#181818;stroke-width:1.0;"/><text fill="#000000" font-family="sans-serif" font-size="13" lengthAdjust="spacing" textLength="74" x="1848" y="397.5669">up_pressed</text></g><!--MD5=[5057d9d5b02f64b93f2597fea3799958]
link measure_ec to change_ec_range--><g id="link_measure_ec_change_ec_range"><path d="M1253,660.2702 C1253,659.0827 1253,657.8878 1253,656.6859 C1253,654.282 1253,651.8499 1253,649.392 C1253,644.4763 1253,639.4578 1253,634.3571 C1253,613.9542 1253,592.2354 1253,570.5162 C1253,527.078 1253,483.6384 1253,450.7217 C1253,448.6644 1253,446.6482 1253,444.6757 C1253,444.1826 1253,443.6922 1253,443.2045 C1253,442.9607 1253,442.7176 1253,442.4752 " fill="none" id="measure_ec-to-change_ec_range" style="stroke:#181818;stroke-width:1.0;"/><polygon fill="#181818" points="1253,442.4752,1249,451.4752,1253,447.4752,1257,451.4752,1253,442.4752" style="stroke:#181818;stroke-width:1.0;"/><text fill="#000000" font-family="sans-serif" font-size="13" lengthAdjust="spacing" textLength="93" x="1254" y="633.0669">down_pressed</text></g><!--MD5=[3a20e6364e55cd3b79416754e34a9d6f]
link *start*calibration_ph to set_first_sample_ph--><g id="link_*start*calibration_ph_set_first_sample_ph"><path d="M51,94 C61.0746,94 71.1492,94 81.2238,94 " fill="none" id="*start*calibration_ph-to-set_first_sample_ph" style="stroke:#181818;stroke-width:1.0;"/><polygon fill="#181818" points="86.492,94,77.492,90,81.492,94,77.492,98,86.492,94" style="stroke:#181818;stroke-width:1.0;"/></g><!--MD5=[e62093087edaa64d0e9a2aa6fb83c9d1]
link set_first_sample_ph to set_second_sample_ph--><g id="link_set_first_sample_ph_set_second_sample_ph"><path d="M167.866,119.053 C165.32,173.076 159.154,303.885 156.386,362.607 " fill="none" id="set_first_sample_ph-to-set_second_sample_ph" style="stroke:#181818;stroke-width:1.0;"/><polygon fill="#181818" points="156.144,367.722,160.5639,358.9206,156.3797,362.7276,152.5727,358.5434,156.144,367.722" style="stroke:#181818;stroke-width:1.0;"/><text fill="#000000" font-family="sans-serif" font-size="13" lengthAdjust="spacing" textLength="99" x="168" y="162.0669">center_pressed</text></g><!--MD5=[a9f4ca1706d5a9e7a5ed93ae0759f076]
link set_second_sample_ph to measure_ph--><g id="link_set_second_sample_ph_measure_ph"><path d="M159.886,418.21 C171.095,467.315 203.398,578.881 275,637 C350.6505,698.4051 456.5762,725.9568 544.1202,738.1317 C587.8923,744.2192 627.0688,746.4624 655.5678,747.171 C669.8173,747.5253 681.3974,747.496 689.5479,747.3717 C690.5667,747.3561 691.5319,747.3391 692.442,747.3211 C692.8971,747.3122 693.3384,747.303 693.7658,747.2936 C693.9794,747.2889 694.1896,747.2842 694.3963,747.2795 " fill="none" id="set_second_sample_ph-to-measure_ph" style="stroke:#181818;stroke-width:1.0;"/><polygon fill="#181818" points="694.3963,747.2795,685.3067,743.4874,689.3976,747.3944,685.4906,751.4853,694.3963,747.2795" style="stroke:#181818;stroke-width:1.0;"/><text fill="#000000" font-family="sans-serif" font-size="13" lengthAdjust="spacing" textLength="99" x="276" y="633.0669">center_pressed</text></g><!--MD5=[47ca746b5fe81793936aa123c9d6b51a]
link *start*calibration_ec to set_first_sample_ec--><g id="link_*start*calibration_ec_set_first_sample_ec"><path d="M1567.42,94 C1577.37,94 1587.33,94 1597.28,94 " fill="none" id="*start*calibration_ec-to-set_first_sample_ec" style="stroke:#181818;stroke-width:1.0;"/><polygon fill="#181818" points="1602.48,94,1593.48,90,1597.48,94,1593.48,98,1602.48,94" style="stroke:#181818;stroke-width:1.0;"/></g><!--MD5=[6b31b1ca18421007e0b29889205b4079]
link set_first_sample_ec to set_second_sample_ec--><g id="link_set_first_sample_ec_set_second_sample_ec"><path d="M1680.84,119.053 C1673.75,173.076 1656.57,303.885 1648.86,362.607 " fill="none" id="set_first_sample_ec-to-set_second_sample_ec" style="stroke:#181818;stroke-width:1.0;"/><polygon fill="#181818" points="1648.19,367.722,1653.3285,359.3199,1648.8415,362.7646,1645.3967,358.2776,1648.19,367.722" style="stroke:#181818;stroke-width:1.0;"/><text fill="#000000" font-family="sans-serif" font-size="13" lengthAdjust="spacing" textLength="99" x="1678" y="162.0669">center_pressed</text></g><!--MD5=[789945142082efc9c993ec699c615c09]
link set_second_sample_ec to measure_ec--><g id="link_set_second_sample_ec_measure_ec"><path d="M1632.78,418.332 C1607.95,465.729 1547.45,571.511 1471,637 C1430.435,671.7505 1376.99,698.9408 1333.1712,717.5947 C1311.2619,726.9217 1291.7591,734.1146 1277.4761,739.0513 C1273.9054,740.2855 1270.6608,741.3787 1267.7865,742.3289 C1266.3494,742.8041 1265.0048,743.2435 1263.7582,743.6469 C1263.135,743.8486 1262.5362,744.0414 1261.9626,744.2251 C1261.6758,744.3169 1261.3953,744.4065 1261.1212,744.4939 " fill="none" id="set_second_sample_ec-to-measure_ec" style="stroke:#181818;stroke-width:1.0;"/><polygon fill="#181818" points="1261.1212,744.4939,1270.9108,745.5727,1265.8852,742.9759,1268.4821,737.9503,1261.1212,744.4939" style="stroke:#181818;stroke-width:1.0;"/><text fill="#000000" font-family="sans-serif" font-size="13" lengthAdjust="spacing" textLength="99" x="1490" y="633.0669">center_pressed</text></g><!--MD5=[83763d25ac56a6df303babba80916f21]
link *start*change_ph_range to set_ph_range--><g id="link_*start*change_ph_range_set_ph_range"><path d="M398.156,393 C408.145,393 418.135,393 428.124,393 " fill="none" id="*start*change_ph_range-to-set_ph_range" style="stroke:#181818;stroke-width:1.0;"/><polygon fill="#181818" points="433.348,393,424.348,389,428.348,393,424.348,397,433.348,393" style="stroke:#181818;stroke-width:1.0;"/></g><!--MD5=[15028af4c19c87c0723e4b3b91d2b2f4]
link set_ph_range to measure_ph--><g id="link_set_ph_range_measure_ph"><path d="M486.399,418.353 C477.129,464.878 463.632,567.906 507,637 C533.1375,678.6425 581.0265,705.9405 622.9236,722.9265 C643.8722,731.4196 663.3228,737.3346 677.8075,741.1757 C681.4287,742.136 684.7395,742.9666 687.6857,743.6755 C689.1588,744.03 690.5408,744.354 691.8249,744.6486 C692.4669,744.7959 693.0845,744.9358 693.6767,745.0685 C693.9729,745.1348 694.2626,745.1993 694.546,745.2621 C694.6877,745.2934 694.8277,745.3244 694.9662,745.3548 " fill="none" id="set_ph_range-to-measure_ph" style="stroke:#181818;stroke-width:1.0;"/><polygon fill="#181818" points="694.9662,745.3548,687.0364,739.5137,690.0831,744.28,685.3167,747.3266,694.9662,745.3548" style="stroke:#181818;stroke-width:1.0;"/><text fill="#000000" font-family="sans-serif" font-size="13" lengthAdjust="spacing" textLength="99" x="508" y="633.0669">center_pressed</text></g><!--MD5=[8fd029c98f29b3c7750cec4189cd854e]
link *start*change_ec_range to set_ec_range--><g id="link_*start*change_ec_range_set_ec_range"><path d="M1308.06,393 C1318.05,393 1328.05,393 1338.05,393 " fill="none" id="*start*change_ec_range-to-set_ec_range" style="stroke:#181818;stroke-width:1.0;"/><polygon fill="#181818" points="1343.27,393,1334.27,389,1338.27,393,1334.27,397,1343.27,393" style="stroke:#181818;stroke-width:1.0;"/></g><!--MD5=[d2e902181177b1682b90e7b2e0c8f399]
link set_ec_range to measure_ec--><g id="link_set_ec_range_measure_ec"><path d="M1400.93,418.183 C1399.89,463.55 1393.15,563.474 1356,637 C1341.135,666.4225 1315.95,693.5296 1294.205,713.4729 C1283.3325,723.4446 1273.32,731.6253 1265.8875,737.4091 C1264.9584,738.132 1264.0697,738.8176 1263.2246,739.4644 C1262.8021,739.7879 1262.3904,740.1017 1261.9902,740.4056 C1261.79,740.5576 1261.5927,740.7072 1261.3983,740.8542 C1261.3011,740.9278 1261.2046,741.0007 1261.1088,741.073 " fill="none" id="set_ec_range-to-measure_ec" style="stroke:#181818;stroke-width:1.0;"/><polygon fill="#181818" points="1261.1088,741.073,1270.7018,738.8426,1265.0993,738.0603,1265.8816,732.4578,1261.1088,741.073" style="stroke:#181818;stroke-width:1.0;"/><text fill="#000000" font-family="sans-serif" font-size="13" lengthAdjust="spacing" textLength="99" x="1363" y="633.0669">center_pressed</text></g><!--MD5=[68d068ee2336d500924aab7a5533e833]
link *start*measure_ph to present_ph_data--><g id="link_*start*measure_ph_present_ph_data"><path d="M758.422,748 C768.138,748 777.855,748 787.571,748 " fill="none" id="*start*measure_ph-to-present_ph_data" style="stroke:#181818;stroke-width:1.0;"/><polygon fill="#181818" points="792.652,748,783.652,744,787.652,748,783.652,752,792.652,748" style="stroke:#181818;stroke-width:1.0;"/></g><!--MD5=[dfefd47692b5e2aab11d225d83503020]
link present_ph_data to automation--><g id="link_present_ph_data_automation"><path d="M863.176,722.5724 C863.161,696.218 865.707,653.526 880,620 C887.103,603.338 895.81,586.907 905.531,570.971 " fill="none" id="present_ph_data-to-automation" style="stroke:#181818;stroke-width:1.0;"/><polygon fill="#181818" points="908.299,566.489,900.1655,572.0429,905.6709,570.7426,906.9712,576.2479,908.299,566.489" style="stroke:#181818;stroke-width:1.0;"/></g><!--MD5=[e6f1e0fe667c6aacf8885494ec7cac56]
link automation to present_ph_data--><g id="link_automation_present_ph_data"><path d="M937.44,590.255 C931.76,600.242 926.248,610.195 921,620 C903.5,652.696 886.5,691.826 875.688,717.929 " fill="none" id="automation-to-present_ph_data" style="stroke:#181818;stroke-width:1.0;"/><polygon fill="#181818" points="873.742,722.6466,880.8709,715.8512,875.6481,718.0242,873.4751,712.8014,873.742,722.6466" style="stroke:#181818;stroke-width:1.0;"/></g><!--MD5=[15a3c726a2faafd92f9f30a0da56c17d]
link *start*measure_ec to present_ec_data--><g id="link_*start*measure_ec_present_ec_data"><path d="M1043.33,748 C1053.08,748 1062.83,748 1072.58,748 " fill="none" id="*start*measure_ec-to-present_ec_data" style="stroke:#181818;stroke-width:1.0;"/><polygon fill="#181818" points="1077.68,748,1068.68,744,1072.68,748,1068.68,752,1077.68,748" style="stroke:#181818;stroke-width:1.0;"/></g><!--MD5=[5f7c4a2cc5020237fae9e60c6ff7b51d]
link present_ec_data to automation--><g id="link_present_ec_data_automation"><path d="M1142.17,722.7749 C1135.46,694.932 1123.78,646.426 1111.42,595.09 " fill="none" id="present_ec_data-to-automation" style="stroke:#181818;stroke-width:1.0;"/><polygon fill="#181818" points="1110.22,590.113,1108.4389,599.7995,1111.3909,594.974,1116.2164,597.926,1110.22,590.113" style="stroke:#181818;stroke-width:1.0;"/></g><!--MD5=[e098c8607c3b7c982e7698fea6da25d1]
link automation to present_ec_data--><g id="link_automation_present_ec_data"><path d="M1125.07,590.075 C1127.56,600.155 1129.9,610.172 1132,620 C1139.11,653.207 1143.43,692.023 1145.76,717.918 " fill="none" id="automation-to-present_ec_data" style="stroke:#181818;stroke-width:1.0;"/><polygon fill="#181818" points="1146.2,722.9198,1149.3986,713.6048,1145.7633,717.9389,1141.4292,714.3036,1146.2,722.9198" style="stroke:#181818;stroke-width:1.0;"/></g><!--MD5=[3bca188dd816df12f8914d97303755b2]
@startuml
[*]->startup
startup - -> measure_ph
measure_ph - -> measure_ec : left_pressed 
measure_ph - -> calibration_ph : up_pressed
measure_ph - -> change_ph_range :down_pressed
measure_ec - -> calibration_ec : up_pressed
measure_ec - -> change_ec_range :down_pressed
measure_ec - -> measure_ph : left_pressed

state calibration_ph{
    [*] -> set_first_sample_ph
    set_first_sample_ph - -> set_second_sample_ph : center_pressed
    set_second_sample_ph - -> measure_ph : center_pressed
}

state calibration_ec{
    [*] -> set_first_sample_ec
    set_first_sample_ec - -> set_second_sample_ec : center_pressed
    set_second_sample_ec - -> measure_ec : center_pressed
}

state change_ph_range{
    [*] -> set_ph_range
    set_ph_range - -> measure_ph : center_pressed  
}

state change_ec_range{
    [*] -> set_ec_range
    set_ec_range - -> measure_ec : center_pressed  
}

state measure_ph{
    [*] -> present_ph_data
    present_ph_data - -> automation
    automation - -> present_ph_data
}

state measure_ec{
    [*] -> present_ec_data
    present_ec_data - -> automation
    automation - -> present_ec_data
}

state automation{
    [*] -> check_ph_automation
    check_ph_automation - -> fill_ph : ec_out_of_range
    check_ph_automation - -> check_ec_automation : correct_ph
    check_ec_automation - -> fill_ec : ph_out_of_range
    check_ec_automation - -> [*] : correct_ec
    fill_ph - -> [*]
    fill_ec - -> [*]
}
@enduml

PlantUML version 1.2022.8beta9(Unknown compile time)
(GPL source distribution)
Java Runtime: Java(TM) SE Runtime Environment
JVM: Java HotSpot(TM) 64-Bit Server VM
Default Encoding: UTF-8
Language: en
Country: US
--></g></svg>