<?xml version="1.0" encoding="UTF-8" standalone="no"?><svg xmlns="http://www.w3.org/2000/svg" xmlns:xlink="http://www.w3.org/1999/xlink" contentStyleType="text/css" height="560px" preserveAspectRatio="none" style="width:1183px;height:560px;background:#FFFFFF;" version="1.1" viewBox="0 0 1183 560" width="1183px" zoomAndPan="magnify"><defs/><g><!--MD5=[e0c72c07c257c05cb7d4bf97d5a1910b]
cluster calibration_ph--><g id="cluster_calibration_ph"><path d="M865.7096,7 L1128.7136,7 A12.5,12.5 0 0 1 1141.2136,19.5 L1141.2136,33.2969 L853.2096,33.2969 L853.2096,19.5 A12.5,12.5 0 0 1 865.7096,7 " fill="#F1F1F1" style="stroke:#F1F1F1;stroke-width:1.0;"/><rect fill="none" height="281" rx="12.5" ry="12.5" style="stroke:#181818;stroke-width:0.5;" width="288.004" x="853.2096" y="7"/><line style="stroke:#181818;stroke-width:0.5;" x1="853.2096" x2="1141.2136" y1="33.2969" y2="33.2969"/><text fill="#000000" font-family="sans-serif" font-size="14" lengthAdjust="spacing" textLength="103" x="945.7096" y="23.9951">calibration_ph</text></g><!--MD5=[61b7ac68d61b31a37687c8ff60f9ac14]
cluster calibration_ec--><g id="cluster_calibration_ec"><path d="M174.7096,171 L435.7096,171 A12.5,12.5 0 0 1 448.2096,183.5 L448.2096,197.2969 L162.2096,197.2969 L162.2096,183.5 A12.5,12.5 0 0 1 174.7096,171 " fill="#F1F1F1" style="stroke:#F1F1F1;stroke-width:1.0;"/><rect fill="none" height="262" rx="12.5" ry="12.5" style="stroke:#181818;stroke-width:0.5;" width="286" x="162.2096" y="171"/><line style="stroke:#181818;stroke-width:0.5;" x1="162.2096" x2="448.2096" y1="197.2969" y2="197.2969"/><text fill="#000000" font-family="sans-serif" font-size="14" lengthAdjust="spacing" textLength="101" x="254.7096" y="187.9951">calibration_ec</text></g><ellipse cx="906.2096" cy="75" fill="#222222" rx="10" ry="10" style="stroke:none;stroke-width:1.0;"/><g id="calibration_ph.set_first_sample_ph"><rect fill="#F1F1F1" height="50" rx="12.5" ry="12.5" style="stroke:#181818;stroke-width:0.5;" width="165" x="951.7096" y="50"/><line style="stroke:#181818;stroke-width:0.5;" x1="951.7096" x2="1116.7096" y1="76.2969" y2="76.2969"/><text fill="#000000" font-family="sans-serif" font-size="14" lengthAdjust="spacing" textLength="145" x="961.7096" y="67.9951">set_first_sample_ph</text></g><g id="calibration_ph.set_second_sample_ph"><rect fill="#F1F1F1" height="50" rx="12.5" ry="12.5" style="stroke:#181818;stroke-width:0.5;" width="186" x="896.2096" y="214"/><line style="stroke:#181818;stroke-width:0.5;" x1="896.2096" x2="1082.2096" y1="240.2969" y2="240.2969"/><text fill="#000000" font-family="sans-serif" font-size="14" lengthAdjust="spacing" textLength="166" x="906.2096" y="231.9951">set_second_sample_ph</text></g><ellipse cx="215.2096" cy="239" fill="#222222" rx="10" ry="10" style="stroke:none;stroke-width:1.0;"/><g id="calibration_ec.set_first_sample_ec"><rect fill="#F1F1F1" height="50" rx="12.5" ry="12.5" style="stroke:#181818;stroke-width:0.5;" width="163" x="260.7096" y="214"/><line style="stroke:#181818;stroke-width:0.5;" x1="260.7096" x2="423.7096" y1="240.2969" y2="240.2969"/><text fill="#000000" font-family="sans-serif" font-size="14" lengthAdjust="spacing" textLength="143" x="270.7096" y="231.9951">set_first_sample_ec</text></g><g id="calibration_ec.set_second_sample_ec"><rect fill="#F1F1F1" height="50" rx="12.5" ry="12.5" style="stroke:#181818;stroke-width:0.5;" width="184" x="216.2096" y="359"/><line style="stroke:#181818;stroke-width:0.5;" x1="216.2096" x2="400.2096" y1="385.2969" y2="385.2969"/><text fill="#000000" font-family="sans-serif" font-size="14" lengthAdjust="spacing" textLength="164" x="226.2096" y="376.9951">set_second_sample_ec</text></g><ellipse cx="710.2096" cy="239" fill="#222222" rx="10" ry="10" style="stroke:none;stroke-width:1.0;"/><g id="startup"><rect fill="#F1F1F1" height="50" rx="12.5" ry="12.5" style="stroke:#181818;stroke-width:0.5;" width="73" x="755.7096" y="214"/><line style="stroke:#181818;stroke-width:0.5;" x1="755.7096" x2="828.7096" y1="240.2969" y2="240.2969"/><text fill="#000000" font-family="sans-serif" font-size="14" lengthAdjust="spacing" textLength="53" x="765.7096" y="231.9951">startup</text></g><g id="measure_ph"><rect fill="#F1F1F1" height="50" rx="12.5" ry="12.5" style="stroke:#181818;stroke-width:0.5;" width="107" x="586.7096" y="359"/><line style="stroke:#181818;stroke-width:0.5;" x1="586.7096" x2="693.7096" y1="385.2969" y2="385.2969"/><text fill="#000000" font-family="sans-serif" font-size="14" lengthAdjust="spacing" textLength="87" x="596.7096" y="376.9951">measure_ph</text></g><g id="measure_ec"><rect fill="#F1F1F1" height="50" rx="12.5" ry="12.5" style="stroke:#181818;stroke-width:0.5;" width="105" x="354.7096" y="504"/><line style="stroke:#181818;stroke-width:0.5;" x1="354.7096" x2="459.7096" y1="530.2969" y2="530.2969"/><text fill="#000000" font-family="sans-serif" font-size="14" lengthAdjust="spacing" textLength="85" x="364.7096" y="521.9951">measure_ec</text></g><!--MD5=[fcd815e3564d5ceacdfaf857d11377e3]
link *start to startup--><g id="link_*start_startup"><path d="M720.4596,239 C730.4036,239 740.3486,239 750.2926,239 " fill="none" id="*start-to-startup" style="stroke:#181818;stroke-width:1.0;"/><polygon fill="#181818" points="755.4936,239,746.4936,235,750.4936,239,746.4936,243,755.4936,239" style="stroke:#181818;stroke-width:1.0;"/></g><!--MD5=[71b82209d3c49307a26a2b1965cf56cf]
link startup to measure_ph--><g id="link_startup_measure_ph"><path d="M773.0506,264.304 C762.8906,276.658 749.9086,291.632 737.2096,304 C718.4046,322.314 695.7356,340.944 677.0426,355.509 " fill="none" id="startup-to-measure_ph" style="stroke:#181818;stroke-width:1.0;"/><polygon fill="#181818" points="672.8726,358.742,682.4359,356.3876,676.8238,355.6779,677.5334,350.0658,672.8726,358.742" style="stroke:#181818;stroke-width:1.0;"/></g><!--MD5=[cb1c77d0aa2c07a79991f76db5d3e3e6]
link measure_ph to measure_ec--><g id="link_measure_ph_measure_ec"><path d="M590.0436,409.047 C563.6586,422.269 531.0906,439.507 503.2096,457 C481.9866,470.3154 459.4056,486.883 441.4796,500.6643 " fill="none" id="measure_ph-to-measure_ec" style="stroke:#181818;stroke-width:1.0;"/><polygon fill="#181818" points="437.4946,503.7407,447.0629,501.4066,441.4523,500.685,442.1739,495.0744,437.4946,503.7407" style="stroke:#181818;stroke-width:1.0;"/><text fill="#000000" font-family="sans-serif" font-size="13" lengthAdjust="spacing" textLength="92" x="504.2096" y="470.0669">long_press_up</text></g><!--MD5=[fccc07efbd93e6797ceeb0e29bf76eee]
link measure_ec to measure_ph--><g id="link_measure_ec_measure_ph"><path d="M459.9306,525.4765 C502.5986,520.8304 561.8626,508.1381 601.2096,474 C618.9466,458.6104 628.9256,433.642 634.3396,414.062 " fill="none" id="measure_ec-to-measure_ph" style="stroke:#181818;stroke-width:1.0;"/><polygon fill="#181818" points="635.6186,409.21,629.4546,416.8915,634.3429,414.0445,637.1898,418.9327,635.6186,409.21" style="stroke:#181818;stroke-width:1.0;"/><text fill="#000000" font-family="sans-serif" font-size="13" lengthAdjust="spacing" textLength="92" x="616.2096" y="470.0669">long_press_up</text></g><!--MD5=[ce79ea9f65827ffe7d53c7e6414d9d98]
link measure_ph to calibration_ph--><g id="link_measure_ph_calibration_ph"><path d="M586.5386,360.709 C562.9116,347.868 537.5366,329.201 524.2096,304 C493.2506,245.46 483.0726,206.895 524.2096,155 C547.9136,125.0965 631.0374,105.4203 708.7916,93.1834 C747.6688,87.0649 785.2035,82.8063 813.2972,80.0591 C827.3441,78.6855 839.0307,77.6897 847.3447,77.0282 C849.4232,76.8628 851.2909,76.7184 852.932,76.5941 " fill="none" id="measure_ph-to-calibration_ph" style="stroke:#181818;stroke-width:1.0;"/><polygon fill="#181818" points="852.932,76.5941,843.6557,73.2851,847.9463,76.9716,844.2597,81.2622,852.932,76.5941" style="stroke:#181818;stroke-width:1.0;"/><text fill="#000000" font-family="sans-serif" font-size="13" lengthAdjust="spacing" textLength="156" x="525.2096" y="243.5669">long_press_two_buttons</text></g><!--MD5=[32b6d9caa5d8312293e90f535e5154c8]
link measure_ec to calibration_ec--><g id="link_measure_ec_calibration_ec"><path d="M354.5626,524.8728 C260.8986,518.0913 71.3559,498.4583 31.2092,449 C6,417.944 14.4842,395.336 31.2092,359 C47.9456,322.64 81.8797,293.2442 112.0281,272.7655 C127.1023,262.5261 141.23,254.516 151.7884,248.9792 C154.428,247.595 156.8445,246.3654 158.997,245.2942 C160.0732,244.7586 161.0834,244.2626 162.0225,243.8067 " fill="none" id="measure_ec-to-calibration_ec" style="stroke:#181818;stroke-width:1.0;"/><polygon fill="#181818" points="162.0225,243.8067,152.1793,244.1392,157.5246,245.9904,155.6733,251.3358,162.0225,243.8067" style="stroke:#181818;stroke-width:1.0;"/><text fill="#000000" font-family="sans-serif" font-size="13" lengthAdjust="spacing" textLength="156" x="32.2092" y="388.5669">long_press_two_buttons</text></g><!--MD5=[3a20e6364e55cd3b79416754e34a9d6f]
link *start*calibration_ph to set_first_sample_ph--><g id="link_*start*calibration_ph_set_first_sample_ph"><path d="M916.2096,75 C926.2836,75 936.3586,75 946.4326,75 " fill="none" id="*start*calibration_ph-to-set_first_sample_ph" style="stroke:#181818;stroke-width:1.0;"/><polygon fill="#181818" points="951.7016,75,942.7016,71,946.7016,75,942.7016,79,951.7016,75" style="stroke:#181818;stroke-width:1.0;"/></g><!--MD5=[e62093087edaa64d0e9a2aa6fb83c9d1]
link set_first_sample_ph to set_second_sample_ph--><g id="link_set_first_sample_ph_set_second_sample_ph"><path d="M1027.4736,100.253 C1019.3936,129.326 1005.8756,178.001 997.2576,209.024 " fill="none" id="set_first_sample_ph-to-set_second_sample_ph" style="stroke:#181818;stroke-width:1.0;"/><polygon fill="#181818" points="995.9186,213.846,1002.1822,206.2455,997.2573,209.0285,994.4742,204.1036,995.9186,213.846" style="stroke:#181818;stroke-width:1.0;"/><text fill="#000000" font-family="sans-serif" font-size="13" lengthAdjust="spacing" textLength="156" x="1019.2136" y="143.0669">long_press_two_buttons</text></g><!--MD5=[a9f4ca1706d5a9e7a5ed93ae0759f076]
link set_second_sample_ph to measure_ph--><g id="link_set_second_sample_ph_measure_ph"><path d="M937.2086,264.095 C910.2146,276.393 876.6046,291.381 846.2096,304 C796.8176,324.505 740.0266,346.142 698.5996,361.577 " fill="none" id="set_second_sample_ph-to-measure_ph" style="stroke:#181818;stroke-width:1.0;"/><polygon fill="#181818" points="693.8796,363.334,703.7096,363.9429,698.5655,361.5897,700.9187,356.4455,693.8796,363.334" style="stroke:#181818;stroke-width:1.0;"/><text fill="#000000" font-family="sans-serif" font-size="13" lengthAdjust="spacing" textLength="156" x="825.2096" y="325.0669">long_press_two_buttons</text></g><!--MD5=[47ca746b5fe81793936aa123c9d6b51a]
link *start*calibration_ec to set_first_sample_ec--><g id="link_*start*calibration_ec_set_first_sample_ec"><path d="M225.6276,239 C235.5806,239 245.5346,239 255.4876,239 " fill="none" id="*start*calibration_ec-to-set_first_sample_ec" style="stroke:#181818;stroke-width:1.0;"/><polygon fill="#181818" points="260.6926,239,251.6926,235,255.6926,239,251.6926,243,260.6926,239" style="stroke:#181818;stroke-width:1.0;"/></g><!--MD5=[6b31b1ca18421007e0b29889205b4079]
link set_first_sample_ec to set_second_sample_ec--><g id="link_set_first_sample_ec_set_second_sample_ec"><path d="M335.4866,264.253 C331.7076,278.181 327.0016,296.026 323.2096,312 C319.9466,325.743 316.6646,341.067 314.0056,353.95 " fill="none" id="set_first_sample_ec-to-set_second_sample_ec" style="stroke:#181818;stroke-width:1.0;"/><polygon fill="#181818" points="312.9816,358.943,318.7081,350.9301,313.9861,354.0449,310.8712,349.3229,312.9816,358.943" style="stroke:#181818;stroke-width:1.0;"/><text fill="#000000" font-family="sans-serif" font-size="13" lengthAdjust="spacing" textLength="156" x="324.2096" y="325.0669">long_press_two_buttons</text></g><!--MD5=[789945142082efc9c993ec699c615c09]
link set_second_sample_ec to measure_ec--><g id="link_set_second_sample_ec_measure_ec"><path d="M300.6656,409.076 C296.2156,428.074 293.4866,454.5301 305.2096,474 C315.2226,490.6319 332.2676,502.4095 349.5876,510.6248 " fill="none" id="set_second_sample_ec-to-measure_ec" style="stroke:#181818;stroke-width:1.0;"/><polygon fill="#181818" points="354.4736,512.8485,347.9393,505.4795,349.9229,510.7772,344.6252,512.7607,354.4736,512.8485" style="stroke:#181818;stroke-width:1.0;"/><text fill="#000000" font-family="sans-serif" font-size="13" lengthAdjust="spacing" textLength="156" x="306.2096" y="470.0669">long_press_two_buttons</text></g><!--MD5=[437c74315c2e44f53dc45b4146bee834]
@startuml
[*]->startup
startup - -> measure_ph
measure_ph - -> measure_ec : long_press_up 
measure_ph - -> calibration_ph : long_press_two_buttons 
measure_ec - -> calibration_ec : long_press_two_buttons
measure_ec - -> measure_ph : long_press_up 

state calibration_ph{
    [*] -> set_first_sample_ph
    set_first_sample_ph - -> set_second_sample_ph : long_press_two_buttons
    set_second_sample_ph - -> measure_ph : long_press_two_buttons
}

state calibration_ec{
    [*] -> set_first_sample_ec
    set_first_sample_ec - -> set_second_sample_ec : long_press_two_buttons
    set_second_sample_ec - -> measure_ec : long_press_two_buttons
}
@enduml

PlantUML version 1.2022.8beta2(Unknown compile time)
(GPL source distribution)
Java Runtime: Java(TM) SE Runtime Environment
JVM: Java HotSpot(TM) 64-Bit Server VM
Default Encoding: UTF-8
Language: en
Country: US
--></g></svg>