<?xml version="1.0" encoding="UTF-8" standalone="no"?><svg xmlns="http://www.w3.org/2000/svg" xmlns:xlink="http://www.w3.org/1999/xlink" contentStyleType="text/css" height="621px" preserveAspectRatio="none" style="width:1437px;height:621px;background:#FFFFFF;" version="1.1" viewBox="0 0 1437 621" width="1437px" zoomAndPan="magnify"><defs/><g><!--MD5=[e0c72c07c257c05cb7d4bf97d5a1910b]
cluster calibration_ph--><g id="cluster_calibration_ph"><path d="M299.5,353 L562.5,353 A12.5,12.5 0 0 1 575,365.5 L575,374.2969 L287,374.2969 L287,365.5 A12.5,12.5 0 0 1 299.5,353 " fill="#F1F1F1" style="stroke:#F1F1F1;stroke-width:1.0;"/><rect fill="none" height="262" rx="12.5" ry="12.5" style="stroke:#181818;stroke-width:0.5;" width="288" x="287" y="353"/><line style="stroke:#181818;stroke-width:0.5;" x1="287" x2="575" y1="374.2969" y2="374.2969"/><text fill="#000000" font-family="sans-serif" font-size="14" lengthAdjust="spacing" textLength="103" x="379.5" y="369.9951">calibration_ph</text></g><!--MD5=[61b7ac68d61b31a37687c8ff60f9ac14]
cluster calibration_ec--><g id="cluster_calibration_ec"><path d="M1073.5,7 L1334.5,7 A12.5,12.5 0 0 1 1347,19.5 L1347,28.2969 L1061,28.2969 L1061,19.5 A12.5,12.5 0 0 1 1073.5,7 " fill="#F1F1F1" style="stroke:#F1F1F1;stroke-width:1.0;"/><rect fill="none" height="281" rx="12.5" ry="12.5" style="stroke:#181818;stroke-width:0.5;" width="286" x="1061" y="7"/><line style="stroke:#181818;stroke-width:0.5;" x1="1061" x2="1347" y1="28.2969" y2="28.2969"/><text fill="#000000" font-family="sans-serif" font-size="14" lengthAdjust="spacing" textLength="101" x="1153.5" y="23.9951">calibration_ec</text></g><!--MD5=[6633b345a2b021df6bd32232ea09898d]
cluster change_ph_range--><g id="cluster_change_ph_range"><path d="M19.5,353 L234.5,353 A12.5,12.5 0 0 1 247,365.5 L247,374.2969 L7,374.2969 L7,365.5 A12.5,12.5 0 0 1 19.5,353 " fill="#F1F1F1" style="stroke:#F1F1F1;stroke-width:1.0;"/><rect fill="none" height="117" rx="12.5" ry="12.5" style="stroke:#181818;stroke-width:0.5;" width="240" x="7" y="353"/><line style="stroke:#181818;stroke-width:0.5;" x1="7" x2="247" y1="374.2969" y2="374.2969"/><text fill="#000000" font-family="sans-serif" font-size="14" lengthAdjust="spacing" textLength="126" x="64" y="369.9951">change_ph_range</text></g><!--MD5=[bda2c9eb75e5770d2f3f695f87c1174c]
cluster change_ec_range--><g id="cluster_change_ec_range"><path d="M795.5,171 L1008.5,171 A12.5,12.5 0 0 1 1021,183.5 L1021,192.2969 L783,192.2969 L783,183.5 A12.5,12.5 0 0 1 795.5,171 " fill="#F1F1F1" style="stroke:#F1F1F1;stroke-width:1.0;"/><rect fill="none" height="117" rx="12.5" ry="12.5" style="stroke:#181818;stroke-width:0.5;" width="238" x="783" y="171"/><line style="stroke:#181818;stroke-width:0.5;" x1="783" x2="1021" y1="192.2969" y2="192.2969"/><text fill="#000000" font-family="sans-serif" font-size="14" lengthAdjust="spacing" textLength="124" x="840" y="187.9951">change_ec_range</text></g><ellipse cx="340" cy="421" fill="#222222" rx="10" ry="10" style="stroke:none;stroke-width:1.0;"/><g id="calibration_ph.set_first_sample_ph"><rect fill="#F1F1F1" height="50" rx="12.5" ry="12.5" style="stroke:#181818;stroke-width:0.5;" width="165" x="385.5" y="396"/><line style="stroke:#181818;stroke-width:0.5;" x1="385.5" x2="550.5" y1="422.2969" y2="422.2969"/><text fill="#000000" font-family="sans-serif" font-size="14" lengthAdjust="spacing" textLength="145" x="395.5" y="413.9951">set_first_sample_ph</text></g><g id="calibration_ph.set_second_sample_ph"><rect fill="#F1F1F1" height="50" rx="12.5" ry="12.5" style="stroke:#181818;stroke-width:0.5;" width="186" x="361" y="541"/><line style="stroke:#181818;stroke-width:0.5;" x1="361" x2="547" y1="567.2969" y2="567.2969"/><text fill="#000000" font-family="sans-serif" font-size="14" lengthAdjust="spacing" textLength="166" x="371" y="558.9951">set_second_sample_ph</text></g><ellipse cx="1095" cy="75" fill="#222222" rx="10" ry="10" style="stroke:none;stroke-width:1.0;"/><g id="calibration_ec.set_first_sample_ec"><rect fill="#F1F1F1" height="50" rx="12.5" ry="12.5" style="stroke:#181818;stroke-width:0.5;" width="163" x="1140.5" y="50"/><line style="stroke:#181818;stroke-width:0.5;" x1="1140.5" x2="1303.5" y1="76.2969" y2="76.2969"/><text fill="#000000" font-family="sans-serif" font-size="14" lengthAdjust="spacing" textLength="143" x="1150.5" y="67.9951">set_first_sample_ec</text></g><g id="calibration_ec.set_second_sample_ec"><rect fill="#F1F1F1" height="50" rx="12.5" ry="12.5" style="stroke:#181818;stroke-width:0.5;" width="184" x="1107" y="214"/><line style="stroke:#181818;stroke-width:0.5;" x1="1107" x2="1291" y1="240.2969" y2="240.2969"/><text fill="#000000" font-family="sans-serif" font-size="14" lengthAdjust="spacing" textLength="164" x="1117" y="231.9951">set_second_sample_ec</text></g><ellipse cx="41" cy="421" fill="#222222" rx="10" ry="10" style="stroke:none;stroke-width:1.0;"/><g id="change_ph_range.set_ph_range"><rect fill="#F1F1F1" height="50" rx="12.5" ry="12.5" style="stroke:#181818;stroke-width:0.5;" width="117" x="86.5" y="396"/><line style="stroke:#181818;stroke-width:0.5;" x1="86.5" x2="203.5" y1="422.2969" y2="422.2969"/><text fill="#000000" font-family="sans-serif" font-size="14" lengthAdjust="spacing" textLength="97" x="96.5" y="413.9951">set_ph_range</text></g><ellipse cx="817" cy="239" fill="#222222" rx="10" ry="10" style="stroke:none;stroke-width:1.0;"/><g id="change_ec_range.set_ec_range"><rect fill="#F1F1F1" height="50" rx="12.5" ry="12.5" style="stroke:#181818;stroke-width:0.5;" width="115" x="862.5" y="214"/><line style="stroke:#181818;stroke-width:0.5;" x1="862.5" x2="977.5" y1="240.2969" y2="240.2969"/><text fill="#000000" font-family="sans-serif" font-size="14" lengthAdjust="spacing" textLength="95" x="872.5" y="231.9951">set_ec_range</text></g><ellipse cx="477" cy="75" fill="#222222" rx="10" ry="10" style="stroke:none;stroke-width:1.0;"/><g id="startup"><rect fill="#F1F1F1" height="50" rx="12.5" ry="12.5" style="stroke:#181818;stroke-width:0.5;" width="73" x="522.5" y="50"/><line style="stroke:#181818;stroke-width:0.5;" x1="522.5" x2="595.5" y1="76.2969" y2="76.2969"/><text fill="#000000" font-family="sans-serif" font-size="14" lengthAdjust="spacing" textLength="53" x="532.5" y="67.9951">startup</text></g><g id="measure_ph"><rect fill="#F1F1F1" height="50" rx="12.5" ry="12.5" style="stroke:#181818;stroke-width:0.5;" width="107" x="505.5" y="214"/><line style="stroke:#181818;stroke-width:0.5;" x1="505.5" x2="612.5" y1="240.2969" y2="240.2969"/><text fill="#000000" font-family="sans-serif" font-size="14" lengthAdjust="spacing" textLength="87" x="515.5" y="231.9951">measure_ph</text></g><g id="measure_ec"><rect fill="#F1F1F1" height="50" rx="12.5" ry="12.5" style="stroke:#181818;stroke-width:0.5;" width="105" x="939.5" y="396"/><line style="stroke:#181818;stroke-width:0.5;" x1="939.5" x2="1044.5" y1="422.2969" y2="422.2969"/><text fill="#000000" font-family="sans-serif" font-size="14" lengthAdjust="spacing" textLength="85" x="949.5" y="413.9951">measure_ec</text></g><!--MD5=[fcd815e3564d5ceacdfaf857d11377e3]
link *start to startup--><g id="link_*start_startup"><path d="M487.25,75 C497.195,75 507.139,75 517.084,75 " fill="none" id="*start-to-startup" style="stroke:#181818;stroke-width:1.0;"/><polygon fill="#181818" points="522.284,75,513.284,71,517.284,75,513.284,79,522.284,75" style="stroke:#181818;stroke-width:1.0;"/></g><!--MD5=[71b82209d3c49307a26a2b1965cf56cf]
link startup to measure_ph--><g id="link_startup_measure_ph"><path d="M559,100.253 C559,129.207 559,177.6 559,208.64 " fill="none" id="startup-to-measure_ph" style="stroke:#181818;stroke-width:1.0;"/><polygon fill="#181818" points="559,213.846,563,204.846,559,208.846,555,204.846,559,213.846" style="stroke:#181818;stroke-width:1.0;"/></g><!--MD5=[cb1c77d0aa2c07a79991f76db5d3e3e6]
link measure_ph to measure_ec--><g id="link_measure_ph_measure_ec"><path d="M583.103,264.267 C605.252,285.012 640.015,313.841 676,329 C698.359,338.419 706.36,331.541 730,337 C801.61,353.536 881.897,380.221 934.495,398.856 " fill="none" id="measure_ph-to-measure_ec" style="stroke:#181818;stroke-width:1.0;"/><polygon fill="#181818" points="939.498,400.633,932.357,393.8503,934.7866,398.9587,929.6782,401.3884,939.498,400.633" style="stroke:#181818;stroke-width:1.0;"/><text fill="#000000" font-family="sans-serif" font-size="13" lengthAdjust="spacing" textLength="79" x="677" y="325.0669">left_pressed</text></g><!--MD5=[fccc07efbd93e6797ceeb0e29bf76eee]
link measure_ec to measure_ph--><g id="link_measure_ec_measure_ph"><path d="M943.924,395.889 C897.606,373.052 825.29,338.417 761,312 C713.348,292.42 658.192,272.971 617.567,259.232 " fill="none" id="measure_ec-to-measure_ph" style="stroke:#181818;stroke-width:1.0;"/><polygon fill="#181818" points="612.686,257.585,619.9352,264.252,617.4237,259.1833,622.4924,256.6717,612.686,257.585" style="stroke:#181818;stroke-width:1.0;"/><text fill="#000000" font-family="sans-serif" font-size="13" lengthAdjust="spacing" textLength="79" x="801" y="325.0669">left_pressed</text></g><!--MD5=[ce79ea9f65827ffe7d53c7e6414d9d98]
link measure_ph to calibration_ph--><g id="link_measure_ph_calibration_ph"><path d="M529.66,264.012 C501.951,285.192 458.294,314.83 415,329 C393.602,336.004 331.039,322.283 314,337 C310.532,339.9954 307.6253,343.4824 305.1948,347.2981 C304.5872,348.252 304.0093,349.2264 303.4599,350.2189 C303.1852,350.7151 302.9176,351.2158 302.6569,351.7207 C302.5266,351.9732 302.398,352.2267 302.2711,352.4812 C302.2077,352.6084 302.1447,352.7359 302.0821,352.8637 " fill="none" id="measure_ph-to-calibration_ph" style="stroke:#181818;stroke-width:1.0;"/><polygon fill="#181818" points="302.0821,352.8637,309.6337,346.5413,304.2818,348.3736,302.4495,343.0217,302.0821,352.8637" style="stroke:#181818;stroke-width:1.0;"/><text fill="#000000" font-family="sans-serif" font-size="13" lengthAdjust="spacing" textLength="74" x="455" y="325.0669">up_pressed</text></g><!--MD5=[265956b0681fb96ea2f696f75e684b63]
link measure_ph to change_ph_range--><g id="link_measure_ph_change_ph_range"><path d="M505.352,249.737 C453.857,260.423 374.849,280.392 312,312 C295.562,320.267 290.652,322.76 279,337 C266.439,352.3505 256.6618,372.3035 249.9185,388.7989 C249.0756,390.8608 248.2801,392.8687 247.5325,394.8068 C247.439,395.0491 247.3463,395.2903 247.2544,395.5303 C247.2084,395.6503 247.1626,395.7701 247.117,395.8896 " fill="none" id="measure_ph-to-change_ph_range" style="stroke:#181818;stroke-width:1.0;"/><polygon fill="#181818" points="247.117,395.8896,254.0636,388.9078,248.9001,391.2183,246.5896,386.0548,247.117,395.8896" style="stroke:#181818;stroke-width:1.0;"/><text fill="#000000" font-family="sans-serif" font-size="13" lengthAdjust="spacing" textLength="93" x="313" y="325.0669">down_pressed</text></g><!--MD5=[32b6d9caa5d8312293e90f535e5154c8]
link measure_ec to calibration_ec--><g id="link_measure_ec_calibration_ec"><path d="M1044.77,418.223 C1119.48,412.583 1254.32,390.257 1320,304 C1350.32,264.1825 1355.3975,208.3278 1352.735,161.8681 C1352.0694,150.2532 1350.92,139.2255 1349.5604,129.1824 C1348.8805,124.1608 1348.1481,119.3854 1347.3974,114.9058 C1347.3035,114.3458 1347.2094,113.7905 1347.115,113.2399 " fill="none" id="measure_ec-to-calibration_ec" style="stroke:#181818;stroke-width:1.0;"/><polygon fill="#181818" points="1347.115,113.2399,1344.6926,122.7862,1347.9595,118.1681,1352.5777,121.435,1347.115,113.2399" style="stroke:#181818;stroke-width:1.0;"/><text fill="#000000" font-family="sans-serif" font-size="13" lengthAdjust="spacing" textLength="74" x="1355" y="243.5669">up_pressed</text></g><!--MD5=[5057d9d5b02f64b93f2597fea3799958]
link measure_ec to change_ec_range--><g id="link_measure_ec_change_ec_range"><path d="M1002.66,395.845 C1010.01,377.823 1019.13,352.381 1023,329 C1024.23,321.546 1023.52,319.538 1023,312 C1022.73,308.0971 1022.3788,304.0837 1021.9699,300.0437 C1021.7654,298.0237 1021.5466,295.9971 1021.3163,293.9743 C1021.2012,292.9629 1021.0832,291.9525 1020.9627,290.9443 C1020.9024,290.4403 1020.8415,289.9368 1020.7801,289.434 C1020.7494,289.1826 1020.7185,288.9314 1020.6875,288.6804 C1020.672,288.5549 1020.6565,288.4295 1020.6409,288.3041 " fill="none" id="measure_ec-to-change_ec_range" style="stroke:#181818;stroke-width:1.0;"/><polygon fill="#181818" points="1020.6409,288.3041,1017.7806,297.7284,1021.2571,293.266,1025.7196,296.7425,1020.6409,288.3041" style="stroke:#181818;stroke-width:1.0;"/><text fill="#000000" font-family="sans-serif" font-size="13" lengthAdjust="spacing" textLength="93" x="1025" y="325.0669">down_pressed</text></g><!--MD5=[3a20e6364e55cd3b79416754e34a9d6f]
link *start*calibration_ph to set_first_sample_ph--><g id="link_*start*calibration_ph_set_first_sample_ph"><path d="M350,421 C360.075,421 370.149,421 380.224,421 " fill="none" id="*start*calibration_ph-to-set_first_sample_ph" style="stroke:#181818;stroke-width:1.0;"/><polygon fill="#181818" points="385.492,421,376.492,417,380.492,421,376.492,425,385.492,421" style="stroke:#181818;stroke-width:1.0;"/></g><!--MD5=[e62093087edaa64d0e9a2aa6fb83c9d1]
link set_first_sample_ph to set_second_sample_ph--><g id="link_set_first_sample_ph_set_second_sample_ph"><path d="M465.625,446.258 C463.212,470.91 459.47,509.125 456.887,535.511 " fill="none" id="set_first_sample_ph-to-set_second_sample_ph" style="stroke:#181818;stroke-width:1.0;"/><polygon fill="#181818" points="456.387,540.623,461.2447,532.0554,456.8741,535.6468,453.2827,531.2762,456.387,540.623" style="stroke:#181818;stroke-width:1.0;"/><text fill="#000000" font-family="sans-serif" font-size="13" lengthAdjust="spacing" textLength="99" x="462" y="507.0669">center_pressed</text></g><!--MD5=[a9f4ca1706d5a9e7a5ed93ae0759f076]
link set_second_sample_ph to measure_ph--><g id="link_set_second_sample_ph_measure_ph"><path d="M536.948,540.8483 C550.065,533.374 561.939,523.644 570,511 C618.308,435.226 588.477,321.821 570.163,269.003 " fill="none" id="set_second_sample_ph-to-measure_ph" style="stroke:#181818;stroke-width:1.0;"/><polygon fill="#181818" points="568.43,264.084,567.6506,273.902,570.0928,268.7994,575.1953,271.2416,568.43,264.084" style="stroke:#181818;stroke-width:1.0;"/><text fill="#000000" font-family="sans-serif" font-size="13" lengthAdjust="spacing" textLength="99" x="598" y="425.5669">center_pressed</text></g><!--MD5=[47ca746b5fe81793936aa123c9d6b51a]
link *start*calibration_ec to set_first_sample_ec--><g id="link_*start*calibration_ec_set_first_sample_ec"><path d="M1105.42,75 C1115.37,75 1125.33,75 1135.28,75 " fill="none" id="*start*calibration_ec-to-set_first_sample_ec" style="stroke:#181818;stroke-width:1.0;"/><polygon fill="#181818" points="1140.48,75,1131.48,71,1135.48,75,1131.48,79,1140.48,75" style="stroke:#181818;stroke-width:1.0;"/></g><!--MD5=[6b31b1ca18421007e0b29889205b4079]
link set_first_sample_ec to set_second_sample_ec--><g id="link_set_first_sample_ec_set_second_sample_ec"><path d="M1218.56,100.253 C1214.45,129.207 1207.58,177.6 1203.17,208.64 " fill="none" id="set_first_sample_ec-to-set_second_sample_ec" style="stroke:#181818;stroke-width:1.0;"/><polygon fill="#181818" points="1202.43,213.846,1207.6572,205.4988,1203.1339,208.8958,1199.7369,204.3725,1202.43,213.846" style="stroke:#181818;stroke-width:1.0;"/><text fill="#000000" font-family="sans-serif" font-size="13" lengthAdjust="spacing" textLength="99" x="1215" y="143.0669">center_pressed</text></g><!--MD5=[789945142082efc9c993ec699c615c09]
link set_second_sample_ec to measure_ec--><g id="link_set_second_sample_ec_measure_ec"><path d="M1182.39,264.316 C1168.8,283.204 1148.39,309.395 1127,329 C1100.1,353.654 1066,376.583 1038.8,393.259 " fill="none" id="set_second_sample_ec-to-measure_ec" style="stroke:#181818;stroke-width:1.0;"/><polygon fill="#181818" points="1034.5,395.881,1044.2674,394.6168,1038.7706,393.2806,1040.1068,387.7839,1034.5,395.881" style="stroke:#181818;stroke-width:1.0;"/><text fill="#000000" font-family="sans-serif" font-size="13" lengthAdjust="spacing" textLength="99" x="1144" y="325.0669">center_pressed</text></g><!--MD5=[83763d25ac56a6df303babba80916f21]
link *start*change_ph_range to set_ph_range--><g id="link_*start*change_ph_range_set_ph_range"><path d="M51.1562,421 C61.1455,421 71.1347,421 81.1239,421 " fill="none" id="*start*change_ph_range-to-set_ph_range" style="stroke:#181818;stroke-width:1.0;"/><polygon fill="#181818" points="86.348,421,77.348,417,81.348,421,77.348,425,86.348,421" style="stroke:#181818;stroke-width:1.0;"/></g><!--MD5=[15028af4c19c87c0723e4b3b91d2b2f4]
link set_ph_range to measure_ph--><g id="link_set_ph_range_measure_ph"><path d="M145.512,395.582 C147.412,370.812 154.343,333.193 178,312 C224.734,270.134 405.431,251.062 500.212,243.787 " fill="none" id="set_ph_range-to-measure_ph" style="stroke:#181818;stroke-width:1.0;"/><polygon fill="#181818" points="505.215,243.408,495.938,240.1009,500.2294,243.7866,496.5437,248.0779,505.215,243.408" style="stroke:#181818;stroke-width:1.0;"/><text fill="#000000" font-family="sans-serif" font-size="13" lengthAdjust="spacing" textLength="99" x="179" y="325.0669">center_pressed</text></g><!--MD5=[8fd029c98f29b3c7750cec4189cd854e]
link *start*change_ec_range to set_ec_range--><g id="link_*start*change_ec_range_set_ec_range"><path d="M827.059,239 C837.055,239 847.051,239 857.047,239 " fill="none" id="*start*change_ec_range-to-set_ec_range" style="stroke:#181818;stroke-width:1.0;"/><polygon fill="#181818" points="862.275,239,853.275,235,857.275,239,853.275,243,862.275,239" style="stroke:#181818;stroke-width:1.0;"/></g><!--MD5=[d2e902181177b1682b90e7b2e0c8f399]
link set_ec_range to measure_ec--><g id="link_set_ec_range_measure_ec"><path d="M913.117,264.19 C909.128,282.539 906.263,308.085 914,329 C923.061,353.493 941.985,375.843 958.924,392.264 " fill="none" id="set_ec_range-to-measure_ec" style="stroke:#181818;stroke-width:1.0;"/><polygon fill="#181818" points="962.728,395.886,958.9706,386.782,959.1078,392.4372,953.4526,392.5744,962.728,395.886" style="stroke:#181818;stroke-width:1.0;"/><text fill="#000000" font-family="sans-serif" font-size="13" lengthAdjust="spacing" textLength="99" x="915" y="325.0669">center_pressed</text></g><!--MD5=[d94ed219d4f2cc8c10805afcd93b6bf3]
@startuml
[*]->startup
startup - -> measure_ph
measure_ph - -> measure_ec : left_pressed 
measure_ph - -> calibration_ph : up_pressed
measure_ph - -> change_ph_range :down_pressed
measure_ec - -> calibration_ec : up_pressed
measure_ec - -> change_ec_range :down_pressed
measure_ec - -> measure_ph : left_pressed

state calibration_ph{
    [*] -> set_first_sample_ph
    set_first_sample_ph - -> set_second_sample_ph : center_pressed
    set_second_sample_ph - -> measure_ph : center_pressed
}

state calibration_ec{
    [*] -> set_first_sample_ec
    set_first_sample_ec - -> set_second_sample_ec : center_pressed
    set_second_sample_ec - -> measure_ec : center_pressed
}

state change_ph_range{
    [*] -> set_ph_range
    set_ph_range - -> measure_ph : center_pressed  
}

state change_ec_range{
    [*] -> set_ec_range
    set_ec_range - -> measure_ec : center_pressed  
}
@enduml

PlantUML version 1.2022.8beta6(Unknown compile time)
(GPL source distribution)
Java Runtime: Java(TM) SE Runtime Environment
JVM: Java HotSpot(TM) 64-Bit Server VM
Default Encoding: UTF-8
Language: en
Country: US
--></g></svg>