G04 #@! TF.GenerationSoftware,KiCad,Pcbnew,(5.1.5)-3*
G04 #@! TF.CreationDate,2021-01-15T17:36:30+01:00*
G04 #@! TF.ProjectId,pHmeter,70486d65-7465-4722-9e6b-696361645f70,rev?*
G04 #@! TF.SameCoordinates,Original*
G04 #@! TF.FileFunction,Soldermask,Top*
G04 #@! TF.FilePolarity,Negative*
%FSLAX46Y46*%
G04 Gerber Fmt 4.6, Leading zero omitted, Abs format (unit mm)*
G04 Created by KiCad (PCBNEW (5.1.5)-3) date 2021-01-15 17:36:30*
%MOMM*%
%LPD*%
G04 APERTURE LIST*
%ADD10C,0.100000*%
G04 APERTURE END LIST*
D10*
G36*
X39930564Y-94675389D02*
G01*
X40121833Y-94754615D01*
X40121835Y-94754616D01*
X40293973Y-94869635D01*
X40440365Y-95016027D01*
X40555385Y-95188167D01*
X40634611Y-95379436D01*
X40675000Y-95582484D01*
X40675000Y-95789516D01*
X40634611Y-95992564D01*
X40555385Y-96183833D01*
X40555384Y-96183835D01*
X40440365Y-96355973D01*
X40293973Y-96502365D01*
X40121835Y-96617384D01*
X40121834Y-96617385D01*
X40121833Y-96617385D01*
X39930564Y-96696611D01*
X39727516Y-96737000D01*
X39520484Y-96737000D01*
X39317436Y-96696611D01*
X39126167Y-96617385D01*
X39126166Y-96617385D01*
X39126165Y-96617384D01*
X38954027Y-96502365D01*
X38807635Y-96355973D01*
X38692616Y-96183835D01*
X38692615Y-96183833D01*
X38613389Y-95992564D01*
X38573000Y-95789516D01*
X38573000Y-95582484D01*
X38613389Y-95379436D01*
X38692615Y-95188167D01*
X38807635Y-95016027D01*
X38954027Y-94869635D01*
X39126165Y-94754616D01*
X39126167Y-94754615D01*
X39317436Y-94675389D01*
X39520484Y-94635000D01*
X39727516Y-94635000D01*
X39930564Y-94675389D01*
G37*
G36*
X46430564Y-94675389D02*
G01*
X46621833Y-94754615D01*
X46621835Y-94754616D01*
X46793973Y-94869635D01*
X46940365Y-95016027D01*
X47055385Y-95188167D01*
X47134611Y-95379436D01*
X47175000Y-95582484D01*
X47175000Y-95789516D01*
X47134611Y-95992564D01*
X47055385Y-96183833D01*
X47055384Y-96183835D01*
X46940365Y-96355973D01*
X46793973Y-96502365D01*
X46621835Y-96617384D01*
X46621834Y-96617385D01*
X46621833Y-96617385D01*
X46430564Y-96696611D01*
X46227516Y-96737000D01*
X46020484Y-96737000D01*
X45817436Y-96696611D01*
X45626167Y-96617385D01*
X45626166Y-96617385D01*
X45626165Y-96617384D01*
X45454027Y-96502365D01*
X45307635Y-96355973D01*
X45192616Y-96183835D01*
X45192615Y-96183833D01*
X45113389Y-95992564D01*
X45073000Y-95789516D01*
X45073000Y-95582484D01*
X45113389Y-95379436D01*
X45192615Y-95188167D01*
X45307635Y-95016027D01*
X45454027Y-94869635D01*
X45626165Y-94754616D01*
X45626167Y-94754615D01*
X45817436Y-94675389D01*
X46020484Y-94635000D01*
X46227516Y-94635000D01*
X46430564Y-94675389D01*
G37*
G36*
X46430564Y-90175389D02*
G01*
X46621833Y-90254615D01*
X46621835Y-90254616D01*
X46793973Y-90369635D01*
X46940365Y-90516027D01*
X47052449Y-90683772D01*
X47055385Y-90688167D01*
X47134611Y-90879436D01*
X47175000Y-91082484D01*
X47175000Y-91289516D01*
X47134611Y-91492564D01*
X47093003Y-91593015D01*
X47055384Y-91683835D01*
X46940365Y-91855973D01*
X46793973Y-92002365D01*
X46621835Y-92117384D01*
X46621834Y-92117385D01*
X46621833Y-92117385D01*
X46430564Y-92196611D01*
X46227516Y-92237000D01*
X46020484Y-92237000D01*
X45817436Y-92196611D01*
X45626167Y-92117385D01*
X45626166Y-92117385D01*
X45626165Y-92117384D01*
X45454027Y-92002365D01*
X45307635Y-91855973D01*
X45192616Y-91683835D01*
X45154997Y-91593015D01*
X45113389Y-91492564D01*
X45073000Y-91289516D01*
X45073000Y-91082484D01*
X45113389Y-90879436D01*
X45192615Y-90688167D01*
X45195552Y-90683772D01*
X45307635Y-90516027D01*
X45454027Y-90369635D01*
X45626165Y-90254616D01*
X45626167Y-90254615D01*
X45817436Y-90175389D01*
X46020484Y-90135000D01*
X46227516Y-90135000D01*
X46430564Y-90175389D01*
G37*
G36*
X39930564Y-90175389D02*
G01*
X40121833Y-90254615D01*
X40121835Y-90254616D01*
X40293973Y-90369635D01*
X40440365Y-90516027D01*
X40552449Y-90683772D01*
X40555385Y-90688167D01*
X40634611Y-90879436D01*
X40675000Y-91082484D01*
X40675000Y-91289516D01*
X40634611Y-91492564D01*
X40593003Y-91593015D01*
X40555384Y-91683835D01*
X40440365Y-91855973D01*
X40293973Y-92002365D01*
X40121835Y-92117384D01*
X40121834Y-92117385D01*
X40121833Y-92117385D01*
X39930564Y-92196611D01*
X39727516Y-92237000D01*
X39520484Y-92237000D01*
X39317436Y-92196611D01*
X39126167Y-92117385D01*
X39126166Y-92117385D01*
X39126165Y-92117384D01*
X38954027Y-92002365D01*
X38807635Y-91855973D01*
X38692616Y-91683835D01*
X38654997Y-91593015D01*
X38613389Y-91492564D01*
X38573000Y-91289516D01*
X38573000Y-91082484D01*
X38613389Y-90879436D01*
X38692615Y-90688167D01*
X38695552Y-90683772D01*
X38807635Y-90516027D01*
X38954027Y-90369635D01*
X39126165Y-90254616D01*
X39126167Y-90254615D01*
X39317436Y-90175389D01*
X39520484Y-90135000D01*
X39727516Y-90135000D01*
X39930564Y-90175389D01*
G37*
G36*
X66288228Y-90113703D02*
G01*
X66443100Y-90177853D01*
X66582481Y-90270985D01*
X66701015Y-90389519D01*
X66794147Y-90528900D01*
X66858297Y-90683772D01*
X66891000Y-90848184D01*
X66891000Y-91015816D01*
X66858297Y-91180228D01*
X66794147Y-91335100D01*
X66701015Y-91474481D01*
X66582481Y-91593015D01*
X66443100Y-91686147D01*
X66288228Y-91750297D01*
X66123816Y-91783000D01*
X65956184Y-91783000D01*
X65791772Y-91750297D01*
X65636900Y-91686147D01*
X65497519Y-91593015D01*
X65378985Y-91474481D01*
X65285853Y-91335100D01*
X65221703Y-91180228D01*
X65189000Y-91015816D01*
X65189000Y-90848184D01*
X65221703Y-90683772D01*
X65285853Y-90528900D01*
X65378985Y-90389519D01*
X65497519Y-90270985D01*
X65636900Y-90177853D01*
X65791772Y-90113703D01*
X65956184Y-90081000D01*
X66123816Y-90081000D01*
X66288228Y-90113703D01*
G37*
G36*
X51048228Y-90113703D02*
G01*
X51203100Y-90177853D01*
X51342481Y-90270985D01*
X51461015Y-90389519D01*
X51554147Y-90528900D01*
X51618297Y-90683772D01*
X51651000Y-90848184D01*
X51651000Y-91015816D01*
X51618297Y-91180228D01*
X51554147Y-91335100D01*
X51461015Y-91474481D01*
X51342481Y-91593015D01*
X51203100Y-91686147D01*
X51048228Y-91750297D01*
X50883816Y-91783000D01*
X50716184Y-91783000D01*
X50551772Y-91750297D01*
X50396900Y-91686147D01*
X50257519Y-91593015D01*
X50138985Y-91474481D01*
X50045853Y-91335100D01*
X49981703Y-91180228D01*
X49949000Y-91015816D01*
X49949000Y-90848184D01*
X49981703Y-90683772D01*
X50045853Y-90528900D01*
X50138985Y-90389519D01*
X50257519Y-90270985D01*
X50396900Y-90177853D01*
X50551772Y-90113703D01*
X50716184Y-90081000D01*
X50883816Y-90081000D01*
X51048228Y-90113703D01*
G37*
G36*
X66288228Y-87573703D02*
G01*
X66443100Y-87637853D01*
X66582481Y-87730985D01*
X66701015Y-87849519D01*
X66794147Y-87988900D01*
X66858297Y-88143772D01*
X66891000Y-88308184D01*
X66891000Y-88475816D01*
X66858297Y-88640228D01*
X66794147Y-88795100D01*
X66701015Y-88934481D01*
X66582481Y-89053015D01*
X66443100Y-89146147D01*
X66288228Y-89210297D01*
X66123816Y-89243000D01*
X65956184Y-89243000D01*
X65791772Y-89210297D01*
X65636900Y-89146147D01*
X65497519Y-89053015D01*
X65378985Y-88934481D01*
X65285853Y-88795100D01*
X65221703Y-88640228D01*
X65189000Y-88475816D01*
X65189000Y-88308184D01*
X65221703Y-88143772D01*
X65285853Y-87988900D01*
X65378985Y-87849519D01*
X65497519Y-87730985D01*
X65636900Y-87637853D01*
X65791772Y-87573703D01*
X65956184Y-87541000D01*
X66123816Y-87541000D01*
X66288228Y-87573703D01*
G37*
G36*
X51048228Y-87573703D02*
G01*
X51203100Y-87637853D01*
X51342481Y-87730985D01*
X51461015Y-87849519D01*
X51554147Y-87988900D01*
X51618297Y-88143772D01*
X51651000Y-88308184D01*
X51651000Y-88475816D01*
X51618297Y-88640228D01*
X51554147Y-88795100D01*
X51461015Y-88934481D01*
X51342481Y-89053015D01*
X51203100Y-89146147D01*
X51048228Y-89210297D01*
X50883816Y-89243000D01*
X50716184Y-89243000D01*
X50551772Y-89210297D01*
X50396900Y-89146147D01*
X50257519Y-89053015D01*
X50138985Y-88934481D01*
X50045853Y-88795100D01*
X49981703Y-88640228D01*
X49949000Y-88475816D01*
X49949000Y-88308184D01*
X49981703Y-88143772D01*
X50045853Y-87988900D01*
X50138985Y-87849519D01*
X50257519Y-87730985D01*
X50396900Y-87637853D01*
X50551772Y-87573703D01*
X50716184Y-87541000D01*
X50883816Y-87541000D01*
X51048228Y-87573703D01*
G37*
G36*
X66288228Y-85033703D02*
G01*
X66443100Y-85097853D01*
X66582481Y-85190985D01*
X66701015Y-85309519D01*
X66794147Y-85448900D01*
X66858297Y-85603772D01*
X66891000Y-85768184D01*
X66891000Y-85935816D01*
X66858297Y-86100228D01*
X66794147Y-86255100D01*
X66701015Y-86394481D01*
X66582481Y-86513015D01*
X66443100Y-86606147D01*
X66288228Y-86670297D01*
X66123816Y-86703000D01*
X65956184Y-86703000D01*
X65791772Y-86670297D01*
X65636900Y-86606147D01*
X65497519Y-86513015D01*
X65378985Y-86394481D01*
X65285853Y-86255100D01*
X65221703Y-86100228D01*
X65189000Y-85935816D01*
X65189000Y-85768184D01*
X65221703Y-85603772D01*
X65285853Y-85448900D01*
X65378985Y-85309519D01*
X65497519Y-85190985D01*
X65636900Y-85097853D01*
X65791772Y-85033703D01*
X65956184Y-85001000D01*
X66123816Y-85001000D01*
X66288228Y-85033703D01*
G37*
G36*
X51048228Y-85033703D02*
G01*
X51203100Y-85097853D01*
X51342481Y-85190985D01*
X51461015Y-85309519D01*
X51554147Y-85448900D01*
X51618297Y-85603772D01*
X51651000Y-85768184D01*
X51651000Y-85935816D01*
X51618297Y-86100228D01*
X51554147Y-86255100D01*
X51461015Y-86394481D01*
X51342481Y-86513015D01*
X51203100Y-86606147D01*
X51048228Y-86670297D01*
X50883816Y-86703000D01*
X50716184Y-86703000D01*
X50551772Y-86670297D01*
X50396900Y-86606147D01*
X50257519Y-86513015D01*
X50138985Y-86394481D01*
X50045853Y-86255100D01*
X49981703Y-86100228D01*
X49949000Y-85935816D01*
X49949000Y-85768184D01*
X49981703Y-85603772D01*
X50045853Y-85448900D01*
X50138985Y-85309519D01*
X50257519Y-85190985D01*
X50396900Y-85097853D01*
X50551772Y-85033703D01*
X50716184Y-85001000D01*
X50883816Y-85001000D01*
X51048228Y-85033703D01*
G37*
G36*
X66288228Y-82493703D02*
G01*
X66443100Y-82557853D01*
X66582481Y-82650985D01*
X66701015Y-82769519D01*
X66794147Y-82908900D01*
X66858297Y-83063772D01*
X66891000Y-83228184D01*
X66891000Y-83395816D01*
X66858297Y-83560228D01*
X66794147Y-83715100D01*
X66701015Y-83854481D01*
X66582481Y-83973015D01*
X66443100Y-84066147D01*
X66288228Y-84130297D01*
X66123816Y-84163000D01*
X65956184Y-84163000D01*
X65791772Y-84130297D01*
X65636900Y-84066147D01*
X65497519Y-83973015D01*
X65378985Y-83854481D01*
X65285853Y-83715100D01*
X65221703Y-83560228D01*
X65189000Y-83395816D01*
X65189000Y-83228184D01*
X65221703Y-83063772D01*
X65285853Y-82908900D01*
X65378985Y-82769519D01*
X65497519Y-82650985D01*
X65636900Y-82557853D01*
X65791772Y-82493703D01*
X65956184Y-82461000D01*
X66123816Y-82461000D01*
X66288228Y-82493703D01*
G37*
G36*
X51048228Y-82493703D02*
G01*
X51203100Y-82557853D01*
X51342481Y-82650985D01*
X51461015Y-82769519D01*
X51554147Y-82908900D01*
X51618297Y-83063772D01*
X51651000Y-83228184D01*
X51651000Y-83395816D01*
X51618297Y-83560228D01*
X51554147Y-83715100D01*
X51461015Y-83854481D01*
X51342481Y-83973015D01*
X51203100Y-84066147D01*
X51048228Y-84130297D01*
X50883816Y-84163000D01*
X50716184Y-84163000D01*
X50551772Y-84130297D01*
X50396900Y-84066147D01*
X50257519Y-83973015D01*
X50138985Y-83854481D01*
X50045853Y-83715100D01*
X49981703Y-83560228D01*
X49949000Y-83395816D01*
X49949000Y-83228184D01*
X49981703Y-83063772D01*
X50045853Y-82908900D01*
X50138985Y-82769519D01*
X50257519Y-82650985D01*
X50396900Y-82557853D01*
X50551772Y-82493703D01*
X50716184Y-82461000D01*
X50883816Y-82461000D01*
X51048228Y-82493703D01*
G37*
G36*
X44562915Y-82392334D02*
G01*
X44671491Y-82425271D01*
X44671494Y-82425272D01*
X44707600Y-82444571D01*
X44771556Y-82478756D01*
X44859264Y-82550736D01*
X44931244Y-82638443D01*
X44965429Y-82702399D01*
X44984728Y-82738505D01*
X44984729Y-82738508D01*
X45017666Y-82847084D01*
X45026000Y-82931702D01*
X45026000Y-83438297D01*
X45017666Y-83522916D01*
X44985252Y-83629767D01*
X44984728Y-83631495D01*
X44974761Y-83650141D01*
X44931244Y-83731557D01*
X44859264Y-83819264D01*
X44771557Y-83891244D01*
X44707601Y-83925429D01*
X44671495Y-83944728D01*
X44671492Y-83944729D01*
X44562916Y-83977666D01*
X44450000Y-83988787D01*
X44337085Y-83977666D01*
X44228509Y-83944729D01*
X44228506Y-83944728D01*
X44192400Y-83925429D01*
X44128444Y-83891244D01*
X44040737Y-83819264D01*
X43968757Y-83731557D01*
X43925239Y-83650141D01*
X43911625Y-83629766D01*
X43894298Y-83612439D01*
X43873924Y-83598826D01*
X43851285Y-83589448D01*
X43827252Y-83584668D01*
X43802748Y-83584668D01*
X43778715Y-83589448D01*
X43756076Y-83598826D01*
X43735701Y-83612440D01*
X43718374Y-83629767D01*
X43704761Y-83650141D01*
X43661244Y-83731557D01*
X43589264Y-83819264D01*
X43501557Y-83891244D01*
X43437601Y-83925429D01*
X43401495Y-83944728D01*
X43401492Y-83944729D01*
X43292916Y-83977666D01*
X43180000Y-83988787D01*
X43067085Y-83977666D01*
X42958509Y-83944729D01*
X42958506Y-83944728D01*
X42922400Y-83925429D01*
X42858444Y-83891244D01*
X42770737Y-83819264D01*
X42707622Y-83742359D01*
X42690297Y-83725034D01*
X42669923Y-83711420D01*
X42647284Y-83702043D01*
X42623250Y-83697263D01*
X42598746Y-83697263D01*
X42574713Y-83702044D01*
X42552074Y-83711421D01*
X42531700Y-83725035D01*
X42514373Y-83742362D01*
X42500759Y-83762736D01*
X42491382Y-83785375D01*
X42486000Y-83821660D01*
X42486000Y-83986000D01*
X41334000Y-83986000D01*
X41334000Y-82384000D01*
X42486000Y-82384000D01*
X42486000Y-82548341D01*
X42488402Y-82572727D01*
X42495515Y-82596176D01*
X42507066Y-82617787D01*
X42522611Y-82636729D01*
X42541553Y-82652274D01*
X42563164Y-82663825D01*
X42586613Y-82670938D01*
X42610999Y-82673340D01*
X42635385Y-82670938D01*
X42658834Y-82663825D01*
X42680445Y-82652274D01*
X42699387Y-82636729D01*
X42707608Y-82627657D01*
X42770736Y-82550736D01*
X42858443Y-82478756D01*
X42922399Y-82444571D01*
X42958505Y-82425272D01*
X42958508Y-82425271D01*
X43067084Y-82392334D01*
X43180000Y-82381213D01*
X43292915Y-82392334D01*
X43401491Y-82425271D01*
X43401494Y-82425272D01*
X43437600Y-82444571D01*
X43501556Y-82478756D01*
X43589264Y-82550736D01*
X43661244Y-82638443D01*
X43704761Y-82719859D01*
X43718375Y-82740234D01*
X43735702Y-82757561D01*
X43756076Y-82771174D01*
X43778715Y-82780552D01*
X43802748Y-82785332D01*
X43827252Y-82785332D01*
X43851285Y-82780552D01*
X43873924Y-82771174D01*
X43894299Y-82757560D01*
X43911626Y-82740233D01*
X43925239Y-82719860D01*
X43968756Y-82638444D01*
X44040736Y-82550736D01*
X44128443Y-82478756D01*
X44192399Y-82444571D01*
X44228505Y-82425272D01*
X44228508Y-82425271D01*
X44337084Y-82392334D01*
X44450000Y-82381213D01*
X44562915Y-82392334D01*
G37*
G36*
X66288228Y-79953703D02*
G01*
X66443100Y-80017853D01*
X66582481Y-80110985D01*
X66701015Y-80229519D01*
X66794147Y-80368900D01*
X66858297Y-80523772D01*
X66891000Y-80688184D01*
X66891000Y-80855816D01*
X66858297Y-81020228D01*
X66794147Y-81175100D01*
X66701015Y-81314481D01*
X66582481Y-81433015D01*
X66443100Y-81526147D01*
X66288228Y-81590297D01*
X66123816Y-81623000D01*
X65956184Y-81623000D01*
X65791772Y-81590297D01*
X65636900Y-81526147D01*
X65497519Y-81433015D01*
X65378985Y-81314481D01*
X65285853Y-81175100D01*
X65221703Y-81020228D01*
X65189000Y-80855816D01*
X65189000Y-80688184D01*
X65221703Y-80523772D01*
X65285853Y-80368900D01*
X65378985Y-80229519D01*
X65497519Y-80110985D01*
X65636900Y-80017853D01*
X65791772Y-79953703D01*
X65956184Y-79921000D01*
X66123816Y-79921000D01*
X66288228Y-79953703D01*
G37*
G36*
X51048228Y-79953703D02*
G01*
X51203100Y-80017853D01*
X51342481Y-80110985D01*
X51461015Y-80229519D01*
X51554147Y-80368900D01*
X51618297Y-80523772D01*
X51651000Y-80688184D01*
X51651000Y-80855816D01*
X51618297Y-81020228D01*
X51554147Y-81175100D01*
X51461015Y-81314481D01*
X51342481Y-81433015D01*
X51203100Y-81526147D01*
X51048228Y-81590297D01*
X50883816Y-81623000D01*
X50716184Y-81623000D01*
X50551772Y-81590297D01*
X50396900Y-81526147D01*
X50257519Y-81433015D01*
X50138985Y-81314481D01*
X50045853Y-81175100D01*
X49981703Y-81020228D01*
X49949000Y-80855816D01*
X49949000Y-80688184D01*
X49981703Y-80523772D01*
X50045853Y-80368900D01*
X50138985Y-80229519D01*
X50257519Y-80110985D01*
X50396900Y-80017853D01*
X50551772Y-79953703D01*
X50716184Y-79921000D01*
X50883816Y-79921000D01*
X51048228Y-79953703D01*
G37*
G36*
X47238228Y-77921703D02*
G01*
X47393100Y-77985853D01*
X47532481Y-78078985D01*
X47651015Y-78197519D01*
X47744147Y-78336900D01*
X47808297Y-78491772D01*
X47841000Y-78656184D01*
X47841000Y-78823816D01*
X47808297Y-78988228D01*
X47744147Y-79143100D01*
X47651015Y-79282481D01*
X47532481Y-79401015D01*
X47393100Y-79494147D01*
X47238228Y-79558297D01*
X47073816Y-79591000D01*
X46906184Y-79591000D01*
X46741772Y-79558297D01*
X46586900Y-79494147D01*
X46447519Y-79401015D01*
X46328985Y-79282481D01*
X46235853Y-79143100D01*
X46171703Y-78988228D01*
X46139000Y-78823816D01*
X46139000Y-78656184D01*
X46171703Y-78491772D01*
X46235853Y-78336900D01*
X46328985Y-78197519D01*
X46447519Y-78078985D01*
X46586900Y-77985853D01*
X46741772Y-77921703D01*
X46906184Y-77889000D01*
X47073816Y-77889000D01*
X47238228Y-77921703D01*
G37*
G36*
X66288228Y-77413703D02*
G01*
X66443100Y-77477853D01*
X66582481Y-77570985D01*
X66701015Y-77689519D01*
X66794147Y-77828900D01*
X66858297Y-77983772D01*
X66891000Y-78148184D01*
X66891000Y-78315816D01*
X66858297Y-78480228D01*
X66794147Y-78635100D01*
X66701015Y-78774481D01*
X66582481Y-78893015D01*
X66443100Y-78986147D01*
X66288228Y-79050297D01*
X66123816Y-79083000D01*
X65956184Y-79083000D01*
X65791772Y-79050297D01*
X65636900Y-78986147D01*
X65497519Y-78893015D01*
X65378985Y-78774481D01*
X65285853Y-78635100D01*
X65221703Y-78480228D01*
X65189000Y-78315816D01*
X65189000Y-78148184D01*
X65221703Y-77983772D01*
X65285853Y-77828900D01*
X65378985Y-77689519D01*
X65497519Y-77570985D01*
X65636900Y-77477853D01*
X65791772Y-77413703D01*
X65956184Y-77381000D01*
X66123816Y-77381000D01*
X66288228Y-77413703D01*
G37*
G36*
X51048228Y-77413703D02*
G01*
X51203100Y-77477853D01*
X51342481Y-77570985D01*
X51461015Y-77689519D01*
X51554147Y-77828900D01*
X51618297Y-77983772D01*
X51651000Y-78148184D01*
X51651000Y-78315816D01*
X51618297Y-78480228D01*
X51554147Y-78635100D01*
X51461015Y-78774481D01*
X51342481Y-78893015D01*
X51203100Y-78986147D01*
X51048228Y-79050297D01*
X50883816Y-79083000D01*
X50716184Y-79083000D01*
X50551772Y-79050297D01*
X50396900Y-78986147D01*
X50257519Y-78893015D01*
X50138985Y-78774481D01*
X50045853Y-78635100D01*
X49981703Y-78480228D01*
X49949000Y-78315816D01*
X49949000Y-78148184D01*
X49981703Y-77983772D01*
X50045853Y-77828900D01*
X50138985Y-77689519D01*
X50257519Y-77570985D01*
X50396900Y-77477853D01*
X50551772Y-77413703D01*
X50716184Y-77381000D01*
X50883816Y-77381000D01*
X51048228Y-77413703D01*
G37*
G36*
X51048228Y-74873703D02*
G01*
X51203100Y-74937853D01*
X51342481Y-75030985D01*
X51461015Y-75149519D01*
X51554147Y-75288900D01*
X51618297Y-75443772D01*
X51651000Y-75608184D01*
X51651000Y-75775816D01*
X51618297Y-75940228D01*
X51554147Y-76095100D01*
X51461015Y-76234481D01*
X51342481Y-76353015D01*
X51203100Y-76446147D01*
X51048228Y-76510297D01*
X50883816Y-76543000D01*
X50716184Y-76543000D01*
X50551772Y-76510297D01*
X50396900Y-76446147D01*
X50257519Y-76353015D01*
X50138985Y-76234481D01*
X50045853Y-76095100D01*
X49981703Y-75940228D01*
X49949000Y-75775816D01*
X49949000Y-75608184D01*
X49981703Y-75443772D01*
X50045853Y-75288900D01*
X50138985Y-75149519D01*
X50257519Y-75030985D01*
X50396900Y-74937853D01*
X50551772Y-74873703D01*
X50716184Y-74841000D01*
X50883816Y-74841000D01*
X51048228Y-74873703D01*
G37*
G36*
X66288228Y-74873703D02*
G01*
X66443100Y-74937853D01*
X66582481Y-75030985D01*
X66701015Y-75149519D01*
X66794147Y-75288900D01*
X66858297Y-75443772D01*
X66891000Y-75608184D01*
X66891000Y-75775816D01*
X66858297Y-75940228D01*
X66794147Y-76095100D01*
X66701015Y-76234481D01*
X66582481Y-76353015D01*
X66443100Y-76446147D01*
X66288228Y-76510297D01*
X66123816Y-76543000D01*
X65956184Y-76543000D01*
X65791772Y-76510297D01*
X65636900Y-76446147D01*
X65497519Y-76353015D01*
X65378985Y-76234481D01*
X65285853Y-76095100D01*
X65221703Y-75940228D01*
X65189000Y-75775816D01*
X65189000Y-75608184D01*
X65221703Y-75443772D01*
X65285853Y-75288900D01*
X65378985Y-75149519D01*
X65497519Y-75030985D01*
X65636900Y-74937853D01*
X65791772Y-74873703D01*
X65956184Y-74841000D01*
X66123816Y-74841000D01*
X66288228Y-74873703D01*
G37*
G36*
X51048228Y-72333703D02*
G01*
X51203100Y-72397853D01*
X51342481Y-72490985D01*
X51461015Y-72609519D01*
X51554147Y-72748900D01*
X51618297Y-72903772D01*
X51651000Y-73068184D01*
X51651000Y-73235816D01*
X51618297Y-73400228D01*
X51554147Y-73555100D01*
X51461015Y-73694481D01*
X51342481Y-73813015D01*
X51203100Y-73906147D01*
X51048228Y-73970297D01*
X50883816Y-74003000D01*
X50716184Y-74003000D01*
X50551772Y-73970297D01*
X50396900Y-73906147D01*
X50257519Y-73813015D01*
X50138985Y-73694481D01*
X50045853Y-73555100D01*
X49981703Y-73400228D01*
X49949000Y-73235816D01*
X49949000Y-73068184D01*
X49981703Y-72903772D01*
X50045853Y-72748900D01*
X50138985Y-72609519D01*
X50257519Y-72490985D01*
X50396900Y-72397853D01*
X50551772Y-72333703D01*
X50716184Y-72301000D01*
X50883816Y-72301000D01*
X51048228Y-72333703D01*
G37*
G36*
X66288228Y-72333703D02*
G01*
X66443100Y-72397853D01*
X66582481Y-72490985D01*
X66701015Y-72609519D01*
X66794147Y-72748900D01*
X66858297Y-72903772D01*
X66891000Y-73068184D01*
X66891000Y-73235816D01*
X66858297Y-73400228D01*
X66794147Y-73555100D01*
X66701015Y-73694481D01*
X66582481Y-73813015D01*
X66443100Y-73906147D01*
X66288228Y-73970297D01*
X66123816Y-74003000D01*
X65956184Y-74003000D01*
X65791772Y-73970297D01*
X65636900Y-73906147D01*
X65497519Y-73813015D01*
X65378985Y-73694481D01*
X65285853Y-73555100D01*
X65221703Y-73400228D01*
X65189000Y-73235816D01*
X65189000Y-73068184D01*
X65221703Y-72903772D01*
X65285853Y-72748900D01*
X65378985Y-72609519D01*
X65497519Y-72490985D01*
X65636900Y-72397853D01*
X65791772Y-72333703D01*
X65956184Y-72301000D01*
X66123816Y-72301000D01*
X66288228Y-72333703D01*
G37*
G36*
X66288228Y-69793703D02*
G01*
X66443100Y-69857853D01*
X66582481Y-69950985D01*
X66701015Y-70069519D01*
X66794147Y-70208900D01*
X66858297Y-70363772D01*
X66891000Y-70528184D01*
X66891000Y-70695816D01*
X66858297Y-70860228D01*
X66794147Y-71015100D01*
X66701015Y-71154481D01*
X66582481Y-71273015D01*
X66443100Y-71366147D01*
X66288228Y-71430297D01*
X66123816Y-71463000D01*
X65956184Y-71463000D01*
X65791772Y-71430297D01*
X65636900Y-71366147D01*
X65497519Y-71273015D01*
X65378985Y-71154481D01*
X65285853Y-71015100D01*
X65221703Y-70860228D01*
X65189000Y-70695816D01*
X65189000Y-70528184D01*
X65221703Y-70363772D01*
X65285853Y-70208900D01*
X65378985Y-70069519D01*
X65497519Y-69950985D01*
X65636900Y-69857853D01*
X65791772Y-69793703D01*
X65956184Y-69761000D01*
X66123816Y-69761000D01*
X66288228Y-69793703D01*
G37*
G36*
X51048228Y-69793703D02*
G01*
X51203100Y-69857853D01*
X51342481Y-69950985D01*
X51461015Y-70069519D01*
X51554147Y-70208900D01*
X51618297Y-70363772D01*
X51651000Y-70528184D01*
X51651000Y-70695816D01*
X51618297Y-70860228D01*
X51554147Y-71015100D01*
X51461015Y-71154481D01*
X51342481Y-71273015D01*
X51203100Y-71366147D01*
X51048228Y-71430297D01*
X50883816Y-71463000D01*
X50716184Y-71463000D01*
X50551772Y-71430297D01*
X50396900Y-71366147D01*
X50257519Y-71273015D01*
X50138985Y-71154481D01*
X50045853Y-71015100D01*
X49981703Y-70860228D01*
X49949000Y-70695816D01*
X49949000Y-70528184D01*
X49981703Y-70363772D01*
X50045853Y-70208900D01*
X50138985Y-70069519D01*
X50257519Y-69950985D01*
X50396900Y-69857853D01*
X50551772Y-69793703D01*
X50716184Y-69761000D01*
X50883816Y-69761000D01*
X51048228Y-69793703D01*
G37*
G36*
X41650256Y-67606298D02*
G01*
X41756579Y-67627447D01*
X42057042Y-67751903D01*
X42327451Y-67932585D01*
X42557415Y-68162549D01*
X42738097Y-68432958D01*
X42862553Y-68733421D01*
X42881411Y-68828228D01*
X42926000Y-69052389D01*
X42926000Y-69377611D01*
X42862553Y-69696578D01*
X42757175Y-69950985D01*
X42738097Y-69997042D01*
X42557415Y-70267451D01*
X42327451Y-70497415D01*
X42057042Y-70678097D01*
X41756579Y-70802553D01*
X41650256Y-70823702D01*
X41437611Y-70866000D01*
X41112389Y-70866000D01*
X40899744Y-70823702D01*
X40793421Y-70802553D01*
X40492958Y-70678097D01*
X40222549Y-70497415D01*
X39992585Y-70267451D01*
X39811903Y-69997042D01*
X39792826Y-69950985D01*
X39687447Y-69696578D01*
X39624000Y-69377611D01*
X39624000Y-69052389D01*
X39668589Y-68828228D01*
X39687447Y-68733421D01*
X39811903Y-68432958D01*
X39992585Y-68162549D01*
X40222549Y-67932585D01*
X40492958Y-67751903D01*
X40793421Y-67627447D01*
X40899744Y-67606298D01*
X41112389Y-67564000D01*
X41437611Y-67564000D01*
X41650256Y-67606298D01*
G37*
G36*
X47238228Y-67761703D02*
G01*
X47393100Y-67825853D01*
X47532481Y-67918985D01*
X47651015Y-68037519D01*
X47744147Y-68176900D01*
X47808297Y-68331772D01*
X47841000Y-68496184D01*
X47841000Y-68663816D01*
X47808297Y-68828228D01*
X47744147Y-68983100D01*
X47651015Y-69122481D01*
X47532481Y-69241015D01*
X47393100Y-69334147D01*
X47238228Y-69398297D01*
X47073816Y-69431000D01*
X46906184Y-69431000D01*
X46741772Y-69398297D01*
X46586900Y-69334147D01*
X46447519Y-69241015D01*
X46328985Y-69122481D01*
X46235853Y-68983100D01*
X46171703Y-68828228D01*
X46139000Y-68663816D01*
X46139000Y-68496184D01*
X46171703Y-68331772D01*
X46235853Y-68176900D01*
X46328985Y-68037519D01*
X46447519Y-67918985D01*
X46586900Y-67825853D01*
X46741772Y-67761703D01*
X46906184Y-67729000D01*
X47073816Y-67729000D01*
X47238228Y-67761703D01*
G37*
G36*
X51048228Y-67253703D02*
G01*
X51203100Y-67317853D01*
X51342481Y-67410985D01*
X51461015Y-67529519D01*
X51554147Y-67668900D01*
X51618297Y-67823772D01*
X51651000Y-67988184D01*
X51651000Y-68155816D01*
X51618297Y-68320228D01*
X51554147Y-68475100D01*
X51461015Y-68614481D01*
X51342481Y-68733015D01*
X51203100Y-68826147D01*
X51048228Y-68890297D01*
X50883816Y-68923000D01*
X50716184Y-68923000D01*
X50551772Y-68890297D01*
X50396900Y-68826147D01*
X50257519Y-68733015D01*
X50138985Y-68614481D01*
X50045853Y-68475100D01*
X49981703Y-68320228D01*
X49949000Y-68155816D01*
X49949000Y-67988184D01*
X49981703Y-67823772D01*
X50045853Y-67668900D01*
X50138985Y-67529519D01*
X50257519Y-67410985D01*
X50396900Y-67317853D01*
X50551772Y-67253703D01*
X50716184Y-67221000D01*
X50883816Y-67221000D01*
X51048228Y-67253703D01*
G37*
G36*
X66288228Y-67253703D02*
G01*
X66443100Y-67317853D01*
X66582481Y-67410985D01*
X66701015Y-67529519D01*
X66794147Y-67668900D01*
X66858297Y-67823772D01*
X66891000Y-67988184D01*
X66891000Y-68155816D01*
X66858297Y-68320228D01*
X66794147Y-68475100D01*
X66701015Y-68614481D01*
X66582481Y-68733015D01*
X66443100Y-68826147D01*
X66288228Y-68890297D01*
X66123816Y-68923000D01*
X65956184Y-68923000D01*
X65791772Y-68890297D01*
X65636900Y-68826147D01*
X65497519Y-68733015D01*
X65378985Y-68614481D01*
X65285853Y-68475100D01*
X65221703Y-68320228D01*
X65189000Y-68155816D01*
X65189000Y-67988184D01*
X65221703Y-67823772D01*
X65285853Y-67668900D01*
X65378985Y-67529519D01*
X65497519Y-67410985D01*
X65636900Y-67317853D01*
X65791772Y-67253703D01*
X65956184Y-67221000D01*
X66123816Y-67221000D01*
X66288228Y-67253703D01*
G37*
G36*
X66288228Y-64713703D02*
G01*
X66443100Y-64777853D01*
X66582481Y-64870985D01*
X66701015Y-64989519D01*
X66794147Y-65128900D01*
X66858297Y-65283772D01*
X66891000Y-65448184D01*
X66891000Y-65615816D01*
X66858297Y-65780228D01*
X66794147Y-65935100D01*
X66701015Y-66074481D01*
X66582481Y-66193015D01*
X66443100Y-66286147D01*
X66288228Y-66350297D01*
X66123816Y-66383000D01*
X65956184Y-66383000D01*
X65791772Y-66350297D01*
X65636900Y-66286147D01*
X65497519Y-66193015D01*
X65378985Y-66074481D01*
X65285853Y-65935100D01*
X65221703Y-65780228D01*
X65189000Y-65615816D01*
X65189000Y-65448184D01*
X65221703Y-65283772D01*
X65285853Y-65128900D01*
X65378985Y-64989519D01*
X65497519Y-64870985D01*
X65636900Y-64777853D01*
X65791772Y-64713703D01*
X65956184Y-64681000D01*
X66123816Y-64681000D01*
X66288228Y-64713703D01*
G37*
G36*
X51048228Y-64713703D02*
G01*
X51203100Y-64777853D01*
X51342481Y-64870985D01*
X51461015Y-64989519D01*
X51554147Y-65128900D01*
X51618297Y-65283772D01*
X51651000Y-65448184D01*
X51651000Y-65615816D01*
X51618297Y-65780228D01*
X51554147Y-65935100D01*
X51461015Y-66074481D01*
X51342481Y-66193015D01*
X51203100Y-66286147D01*
X51048228Y-66350297D01*
X50883816Y-66383000D01*
X50716184Y-66383000D01*
X50551772Y-66350297D01*
X50396900Y-66286147D01*
X50257519Y-66193015D01*
X50138985Y-66074481D01*
X50045853Y-65935100D01*
X49981703Y-65780228D01*
X49949000Y-65615816D01*
X49949000Y-65448184D01*
X49981703Y-65283772D01*
X50045853Y-65128900D01*
X50138985Y-64989519D01*
X50257519Y-64870985D01*
X50396900Y-64777853D01*
X50551772Y-64713703D01*
X50716184Y-64681000D01*
X50883816Y-64681000D01*
X51048228Y-64713703D01*
G37*
G36*
X66288228Y-62173703D02*
G01*
X66443100Y-62237853D01*
X66582481Y-62330985D01*
X66701015Y-62449519D01*
X66794147Y-62588900D01*
X66858297Y-62743772D01*
X66891000Y-62908184D01*
X66891000Y-63075816D01*
X66858297Y-63240228D01*
X66794147Y-63395100D01*
X66701015Y-63534481D01*
X66582481Y-63653015D01*
X66443100Y-63746147D01*
X66288228Y-63810297D01*
X66123816Y-63843000D01*
X65956184Y-63843000D01*
X65791772Y-63810297D01*
X65636900Y-63746147D01*
X65497519Y-63653015D01*
X65378985Y-63534481D01*
X65285853Y-63395100D01*
X65221703Y-63240228D01*
X65189000Y-63075816D01*
X65189000Y-62908184D01*
X65221703Y-62743772D01*
X65285853Y-62588900D01*
X65378985Y-62449519D01*
X65497519Y-62330985D01*
X65636900Y-62237853D01*
X65791772Y-62173703D01*
X65956184Y-62141000D01*
X66123816Y-62141000D01*
X66288228Y-62173703D01*
G37*
G36*
X51048228Y-62173703D02*
G01*
X51203100Y-62237853D01*
X51342481Y-62330985D01*
X51461015Y-62449519D01*
X51554147Y-62588900D01*
X51618297Y-62743772D01*
X51651000Y-62908184D01*
X51651000Y-63075816D01*
X51618297Y-63240228D01*
X51554147Y-63395100D01*
X51461015Y-63534481D01*
X51342481Y-63653015D01*
X51203100Y-63746147D01*
X51048228Y-63810297D01*
X50883816Y-63843000D01*
X50716184Y-63843000D01*
X50551772Y-63810297D01*
X50396900Y-63746147D01*
X50257519Y-63653015D01*
X50138985Y-63534481D01*
X50045853Y-63395100D01*
X49981703Y-63240228D01*
X49949000Y-63075816D01*
X49949000Y-62908184D01*
X49981703Y-62743772D01*
X50045853Y-62588900D01*
X50138985Y-62449519D01*
X50257519Y-62330985D01*
X50396900Y-62237853D01*
X50551772Y-62173703D01*
X50716184Y-62141000D01*
X50883816Y-62141000D01*
X51048228Y-62173703D01*
G37*
G36*
X39483512Y-61333927D02*
G01*
X39632812Y-61363624D01*
X39796784Y-61431544D01*
X39944354Y-61530147D01*
X40069853Y-61655646D01*
X40168456Y-61803216D01*
X40236376Y-61967188D01*
X40266073Y-62116488D01*
X40270949Y-62141000D01*
X40271000Y-62141259D01*
X40271000Y-62318741D01*
X40236376Y-62492812D01*
X40168456Y-62656784D01*
X40069853Y-62804354D01*
X39944354Y-62929853D01*
X39796784Y-63028456D01*
X39632812Y-63096376D01*
X39483512Y-63126073D01*
X39458742Y-63131000D01*
X39281258Y-63131000D01*
X39256488Y-63126073D01*
X39107188Y-63096376D01*
X38943216Y-63028456D01*
X38795646Y-62929853D01*
X38670147Y-62804354D01*
X38571544Y-62656784D01*
X38503624Y-62492812D01*
X38469000Y-62318741D01*
X38469000Y-62141259D01*
X38469052Y-62141000D01*
X38473927Y-62116488D01*
X38503624Y-61967188D01*
X38571544Y-61803216D01*
X38670147Y-61655646D01*
X38795646Y-61530147D01*
X38943216Y-61431544D01*
X39107188Y-61363624D01*
X39256488Y-61333927D01*
X39281258Y-61329000D01*
X39458742Y-61329000D01*
X39483512Y-61333927D01*
G37*
G36*
X66288228Y-59633703D02*
G01*
X66443100Y-59697853D01*
X66582481Y-59790985D01*
X66701015Y-59909519D01*
X66794147Y-60048900D01*
X66858297Y-60203772D01*
X66891000Y-60368184D01*
X66891000Y-60535816D01*
X66858297Y-60700228D01*
X66794147Y-60855100D01*
X66701015Y-60994481D01*
X66582481Y-61113015D01*
X66443100Y-61206147D01*
X66288228Y-61270297D01*
X66123816Y-61303000D01*
X65956184Y-61303000D01*
X65791772Y-61270297D01*
X65636900Y-61206147D01*
X65497519Y-61113015D01*
X65378985Y-60994481D01*
X65285853Y-60855100D01*
X65221703Y-60700228D01*
X65189000Y-60535816D01*
X65189000Y-60368184D01*
X65221703Y-60203772D01*
X65285853Y-60048900D01*
X65378985Y-59909519D01*
X65497519Y-59790985D01*
X65636900Y-59697853D01*
X65791772Y-59633703D01*
X65956184Y-59601000D01*
X66123816Y-59601000D01*
X66288228Y-59633703D01*
G37*
G36*
X51048228Y-59633703D02*
G01*
X51203100Y-59697853D01*
X51342481Y-59790985D01*
X51461015Y-59909519D01*
X51554147Y-60048900D01*
X51618297Y-60203772D01*
X51651000Y-60368184D01*
X51651000Y-60535816D01*
X51618297Y-60700228D01*
X51554147Y-60855100D01*
X51461015Y-60994481D01*
X51342481Y-61113015D01*
X51203100Y-61206147D01*
X51048228Y-61270297D01*
X50883816Y-61303000D01*
X50716184Y-61303000D01*
X50551772Y-61270297D01*
X50396900Y-61206147D01*
X50257519Y-61113015D01*
X50138985Y-60994481D01*
X50045853Y-60855100D01*
X49981703Y-60700228D01*
X49949000Y-60535816D01*
X49949000Y-60368184D01*
X49981703Y-60203772D01*
X50045853Y-60048900D01*
X50138985Y-59909519D01*
X50257519Y-59790985D01*
X50396900Y-59697853D01*
X50551772Y-59633703D01*
X50716184Y-59601000D01*
X50883816Y-59601000D01*
X51048228Y-59633703D01*
G37*
G36*
X43065000Y-60591000D02*
G01*
X41263000Y-60591000D01*
X41263000Y-58789000D01*
X43065000Y-58789000D01*
X43065000Y-60591000D01*
G37*
G36*
X39483512Y-58793927D02*
G01*
X39632812Y-58823624D01*
X39796784Y-58891544D01*
X39944354Y-58990147D01*
X40069853Y-59115646D01*
X40168456Y-59263216D01*
X40236376Y-59427188D01*
X40266073Y-59576488D01*
X40270949Y-59601000D01*
X40271000Y-59601259D01*
X40271000Y-59778741D01*
X40236376Y-59952812D01*
X40168456Y-60116784D01*
X40069853Y-60264354D01*
X39944354Y-60389853D01*
X39796784Y-60488456D01*
X39632812Y-60556376D01*
X39483512Y-60586073D01*
X39458742Y-60591000D01*
X39281258Y-60591000D01*
X39256488Y-60586073D01*
X39107188Y-60556376D01*
X38943216Y-60488456D01*
X38795646Y-60389853D01*
X38670147Y-60264354D01*
X38571544Y-60116784D01*
X38503624Y-59952812D01*
X38469000Y-59778741D01*
X38469000Y-59601259D01*
X38469052Y-59601000D01*
X38473927Y-59576488D01*
X38503624Y-59427188D01*
X38571544Y-59263216D01*
X38670147Y-59115646D01*
X38795646Y-58990147D01*
X38943216Y-58891544D01*
X39107188Y-58823624D01*
X39256488Y-58793927D01*
X39281258Y-58789000D01*
X39458742Y-58789000D01*
X39483512Y-58793927D01*
G37*
G36*
X51048228Y-57093703D02*
G01*
X51203100Y-57157853D01*
X51342481Y-57250985D01*
X51461015Y-57369519D01*
X51554147Y-57508900D01*
X51618297Y-57663772D01*
X51651000Y-57828184D01*
X51651000Y-57995816D01*
X51618297Y-58160228D01*
X51554147Y-58315100D01*
X51461015Y-58454481D01*
X51342481Y-58573015D01*
X51203100Y-58666147D01*
X51048228Y-58730297D01*
X50883816Y-58763000D01*
X50716184Y-58763000D01*
X50551772Y-58730297D01*
X50396900Y-58666147D01*
X50257519Y-58573015D01*
X50138985Y-58454481D01*
X50045853Y-58315100D01*
X49981703Y-58160228D01*
X49949000Y-57995816D01*
X49949000Y-57828184D01*
X49981703Y-57663772D01*
X50045853Y-57508900D01*
X50138985Y-57369519D01*
X50257519Y-57250985D01*
X50396900Y-57157853D01*
X50551772Y-57093703D01*
X50716184Y-57061000D01*
X50883816Y-57061000D01*
X51048228Y-57093703D01*
G37*
G36*
X66288228Y-57093703D02*
G01*
X66443100Y-57157853D01*
X66582481Y-57250985D01*
X66701015Y-57369519D01*
X66794147Y-57508900D01*
X66858297Y-57663772D01*
X66891000Y-57828184D01*
X66891000Y-57995816D01*
X66858297Y-58160228D01*
X66794147Y-58315100D01*
X66701015Y-58454481D01*
X66582481Y-58573015D01*
X66443100Y-58666147D01*
X66288228Y-58730297D01*
X66123816Y-58763000D01*
X65956184Y-58763000D01*
X65791772Y-58730297D01*
X65636900Y-58666147D01*
X65497519Y-58573015D01*
X65378985Y-58454481D01*
X65285853Y-58315100D01*
X65221703Y-58160228D01*
X65189000Y-57995816D01*
X65189000Y-57828184D01*
X65221703Y-57663772D01*
X65285853Y-57508900D01*
X65378985Y-57369519D01*
X65497519Y-57250985D01*
X65636900Y-57157853D01*
X65791772Y-57093703D01*
X65956184Y-57061000D01*
X66123816Y-57061000D01*
X66288228Y-57093703D01*
G37*
G36*
X40271000Y-58051000D02*
G01*
X38469000Y-58051000D01*
X38469000Y-56249000D01*
X40271000Y-56249000D01*
X40271000Y-58051000D01*
G37*
G36*
X42277512Y-56253927D02*
G01*
X42426812Y-56283624D01*
X42590784Y-56351544D01*
X42738354Y-56450147D01*
X42863853Y-56575646D01*
X42962456Y-56723216D01*
X43030376Y-56887188D01*
X43060073Y-57036488D01*
X43064949Y-57061000D01*
X43065000Y-57061259D01*
X43065000Y-57238741D01*
X43030376Y-57412812D01*
X42962456Y-57576784D01*
X42863853Y-57724354D01*
X42738354Y-57849853D01*
X42590784Y-57948456D01*
X42426812Y-58016376D01*
X42277512Y-58046073D01*
X42252742Y-58051000D01*
X42075258Y-58051000D01*
X42050488Y-58046073D01*
X41901188Y-58016376D01*
X41737216Y-57948456D01*
X41589646Y-57849853D01*
X41464147Y-57724354D01*
X41365544Y-57576784D01*
X41297624Y-57412812D01*
X41263000Y-57238741D01*
X41263000Y-57061259D01*
X41263052Y-57061000D01*
X41267927Y-57036488D01*
X41297624Y-56887188D01*
X41365544Y-56723216D01*
X41464147Y-56575646D01*
X41589646Y-56450147D01*
X41737216Y-56351544D01*
X41901188Y-56283624D01*
X42050488Y-56253927D01*
X42075258Y-56249000D01*
X42252742Y-56249000D01*
X42277512Y-56253927D01*
G37*
G36*
X66288228Y-54553703D02*
G01*
X66443100Y-54617853D01*
X66582481Y-54710985D01*
X66701015Y-54829519D01*
X66794147Y-54968900D01*
X66858297Y-55123772D01*
X66891000Y-55288184D01*
X66891000Y-55455816D01*
X66858297Y-55620228D01*
X66794147Y-55775100D01*
X66701015Y-55914481D01*
X66582481Y-56033015D01*
X66443100Y-56126147D01*
X66288228Y-56190297D01*
X66123816Y-56223000D01*
X65956184Y-56223000D01*
X65791772Y-56190297D01*
X65636900Y-56126147D01*
X65497519Y-56033015D01*
X65378985Y-55914481D01*
X65285853Y-55775100D01*
X65221703Y-55620228D01*
X65189000Y-55455816D01*
X65189000Y-55288184D01*
X65221703Y-55123772D01*
X65285853Y-54968900D01*
X65378985Y-54829519D01*
X65497519Y-54710985D01*
X65636900Y-54617853D01*
X65791772Y-54553703D01*
X65956184Y-54521000D01*
X66123816Y-54521000D01*
X66288228Y-54553703D01*
G37*
G36*
X51651000Y-56223000D02*
G01*
X49949000Y-56223000D01*
X49949000Y-54521000D01*
X51651000Y-54521000D01*
X51651000Y-56223000D01*
G37*
G36*
X39930564Y-51749389D02*
G01*
X40121833Y-51828615D01*
X40121835Y-51828616D01*
X40293973Y-51943635D01*
X40440365Y-52090027D01*
X40555385Y-52262167D01*
X40634611Y-52453436D01*
X40675000Y-52656484D01*
X40675000Y-52863516D01*
X40634611Y-53066564D01*
X40555385Y-53257833D01*
X40555384Y-53257835D01*
X40440365Y-53429973D01*
X40293973Y-53576365D01*
X40121835Y-53691384D01*
X40121834Y-53691385D01*
X40121833Y-53691385D01*
X39930564Y-53770611D01*
X39727516Y-53811000D01*
X39520484Y-53811000D01*
X39317436Y-53770611D01*
X39126167Y-53691385D01*
X39126166Y-53691385D01*
X39126165Y-53691384D01*
X38954027Y-53576365D01*
X38807635Y-53429973D01*
X38692616Y-53257835D01*
X38692615Y-53257833D01*
X38613389Y-53066564D01*
X38573000Y-52863516D01*
X38573000Y-52656484D01*
X38613389Y-52453436D01*
X38692615Y-52262167D01*
X38807635Y-52090027D01*
X38954027Y-51943635D01*
X39126165Y-51828616D01*
X39126167Y-51828615D01*
X39317436Y-51749389D01*
X39520484Y-51709000D01*
X39727516Y-51709000D01*
X39930564Y-51749389D01*
G37*
G36*
X46430564Y-51749389D02*
G01*
X46621833Y-51828615D01*
X46621835Y-51828616D01*
X46793973Y-51943635D01*
X46940365Y-52090027D01*
X47055385Y-52262167D01*
X47134611Y-52453436D01*
X47175000Y-52656484D01*
X47175000Y-52863516D01*
X47134611Y-53066564D01*
X47055385Y-53257833D01*
X47055384Y-53257835D01*
X46940365Y-53429973D01*
X46793973Y-53576365D01*
X46621835Y-53691384D01*
X46621834Y-53691385D01*
X46621833Y-53691385D01*
X46430564Y-53770611D01*
X46227516Y-53811000D01*
X46020484Y-53811000D01*
X45817436Y-53770611D01*
X45626167Y-53691385D01*
X45626166Y-53691385D01*
X45626165Y-53691384D01*
X45454027Y-53576365D01*
X45307635Y-53429973D01*
X45192616Y-53257835D01*
X45192615Y-53257833D01*
X45113389Y-53066564D01*
X45073000Y-52863516D01*
X45073000Y-52656484D01*
X45113389Y-52453436D01*
X45192615Y-52262167D01*
X45307635Y-52090027D01*
X45454027Y-51943635D01*
X45626165Y-51828616D01*
X45626167Y-51828615D01*
X45817436Y-51749389D01*
X46020484Y-51709000D01*
X46227516Y-51709000D01*
X46430564Y-51749389D01*
G37*
G36*
X57263512Y-48633927D02*
G01*
X57412812Y-48663624D01*
X57576784Y-48731544D01*
X57724354Y-48830147D01*
X57849853Y-48955646D01*
X57948456Y-49103216D01*
X58016376Y-49267188D01*
X58051000Y-49441259D01*
X58051000Y-49618741D01*
X58016376Y-49792812D01*
X57948456Y-49956784D01*
X57849853Y-50104354D01*
X57724354Y-50229853D01*
X57576784Y-50328456D01*
X57412812Y-50396376D01*
X57263512Y-50426073D01*
X57238742Y-50431000D01*
X57061258Y-50431000D01*
X57036488Y-50426073D01*
X56887188Y-50396376D01*
X56723216Y-50328456D01*
X56575646Y-50229853D01*
X56450147Y-50104354D01*
X56351544Y-49956784D01*
X56283624Y-49792812D01*
X56249000Y-49618741D01*
X56249000Y-49441259D01*
X56283624Y-49267188D01*
X56351544Y-49103216D01*
X56450147Y-48955646D01*
X56575646Y-48830147D01*
X56723216Y-48731544D01*
X56887188Y-48663624D01*
X57036488Y-48633927D01*
X57061258Y-48629000D01*
X57238742Y-48629000D01*
X57263512Y-48633927D01*
G37*
G36*
X59803512Y-48633927D02*
G01*
X59952812Y-48663624D01*
X60116784Y-48731544D01*
X60264354Y-48830147D01*
X60389853Y-48955646D01*
X60488456Y-49103216D01*
X60556376Y-49267188D01*
X60591000Y-49441259D01*
X60591000Y-49618741D01*
X60556376Y-49792812D01*
X60488456Y-49956784D01*
X60389853Y-50104354D01*
X60264354Y-50229853D01*
X60116784Y-50328456D01*
X59952812Y-50396376D01*
X59803512Y-50426073D01*
X59778742Y-50431000D01*
X59601258Y-50431000D01*
X59576488Y-50426073D01*
X59427188Y-50396376D01*
X59263216Y-50328456D01*
X59115646Y-50229853D01*
X58990147Y-50104354D01*
X58891544Y-49956784D01*
X58823624Y-49792812D01*
X58789000Y-49618741D01*
X58789000Y-49441259D01*
X58823624Y-49267188D01*
X58891544Y-49103216D01*
X58990147Y-48955646D01*
X59115646Y-48830147D01*
X59263216Y-48731544D01*
X59427188Y-48663624D01*
X59576488Y-48633927D01*
X59601258Y-48629000D01*
X59778742Y-48629000D01*
X59803512Y-48633927D01*
G37*
G36*
X63131000Y-50431000D02*
G01*
X61329000Y-50431000D01*
X61329000Y-48629000D01*
X63131000Y-48629000D01*
X63131000Y-50431000D01*
G37*
G36*
X54723512Y-48633927D02*
G01*
X54872812Y-48663624D01*
X55036784Y-48731544D01*
X55184354Y-48830147D01*
X55309853Y-48955646D01*
X55408456Y-49103216D01*
X55476376Y-49267188D01*
X55511000Y-49441259D01*
X55511000Y-49618741D01*
X55476376Y-49792812D01*
X55408456Y-49956784D01*
X55309853Y-50104354D01*
X55184354Y-50229853D01*
X55036784Y-50328456D01*
X54872812Y-50396376D01*
X54723512Y-50426073D01*
X54698742Y-50431000D01*
X54521258Y-50431000D01*
X54496488Y-50426073D01*
X54347188Y-50396376D01*
X54183216Y-50328456D01*
X54035646Y-50229853D01*
X53910147Y-50104354D01*
X53811544Y-49956784D01*
X53743624Y-49792812D01*
X53709000Y-49618741D01*
X53709000Y-49441259D01*
X53743624Y-49267188D01*
X53811544Y-49103216D01*
X53910147Y-48955646D01*
X54035646Y-48830147D01*
X54183216Y-48731544D01*
X54347188Y-48663624D01*
X54496488Y-48633927D01*
X54521258Y-48629000D01*
X54698742Y-48629000D01*
X54723512Y-48633927D01*
G37*
G36*
X46430564Y-47249389D02*
G01*
X46621833Y-47328615D01*
X46621835Y-47328616D01*
X46793973Y-47443635D01*
X46940365Y-47590027D01*
X47055385Y-47762167D01*
X47134611Y-47953436D01*
X47175000Y-48156484D01*
X47175000Y-48363516D01*
X47134611Y-48566564D01*
X47094407Y-48663625D01*
X47055384Y-48757835D01*
X46940365Y-48929973D01*
X46793973Y-49076365D01*
X46621835Y-49191384D01*
X46621834Y-49191385D01*
X46621833Y-49191385D01*
X46430564Y-49270611D01*
X46227516Y-49311000D01*
X46020484Y-49311000D01*
X45817436Y-49270611D01*
X45626167Y-49191385D01*
X45626166Y-49191385D01*
X45626165Y-49191384D01*
X45454027Y-49076365D01*
X45307635Y-48929973D01*
X45192616Y-48757835D01*
X45153593Y-48663625D01*
X45113389Y-48566564D01*
X45073000Y-48363516D01*
X45073000Y-48156484D01*
X45113389Y-47953436D01*
X45192615Y-47762167D01*
X45307635Y-47590027D01*
X45454027Y-47443635D01*
X45626165Y-47328616D01*
X45626167Y-47328615D01*
X45817436Y-47249389D01*
X46020484Y-47209000D01*
X46227516Y-47209000D01*
X46430564Y-47249389D01*
G37*
G36*
X39930564Y-47249389D02*
G01*
X40121833Y-47328615D01*
X40121835Y-47328616D01*
X40293973Y-47443635D01*
X40440365Y-47590027D01*
X40555385Y-47762167D01*
X40634611Y-47953436D01*
X40675000Y-48156484D01*
X40675000Y-48363516D01*
X40634611Y-48566564D01*
X40594407Y-48663625D01*
X40555384Y-48757835D01*
X40440365Y-48929973D01*
X40293973Y-49076365D01*
X40121835Y-49191384D01*
X40121834Y-49191385D01*
X40121833Y-49191385D01*
X39930564Y-49270611D01*
X39727516Y-49311000D01*
X39520484Y-49311000D01*
X39317436Y-49270611D01*
X39126167Y-49191385D01*
X39126166Y-49191385D01*
X39126165Y-49191384D01*
X38954027Y-49076365D01*
X38807635Y-48929973D01*
X38692616Y-48757835D01*
X38653593Y-48663625D01*
X38613389Y-48566564D01*
X38573000Y-48363516D01*
X38573000Y-48156484D01*
X38613389Y-47953436D01*
X38692615Y-47762167D01*
X38807635Y-47590027D01*
X38954027Y-47443635D01*
X39126165Y-47328616D01*
X39126167Y-47328615D01*
X39317436Y-47249389D01*
X39520484Y-47209000D01*
X39727516Y-47209000D01*
X39930564Y-47249389D01*
G37*
G36*
X69971256Y-43603298D02*
G01*
X70077579Y-43624447D01*
X70378042Y-43748903D01*
X70648451Y-43929585D01*
X70878415Y-44159549D01*
X70957039Y-44277218D01*
X71059098Y-44429960D01*
X71183553Y-44730422D01*
X71247000Y-45049389D01*
X71247000Y-45374611D01*
X71241183Y-45403853D01*
X71183553Y-45693579D01*
X71059097Y-45994042D01*
X70878415Y-46264451D01*
X70648451Y-46494415D01*
X70378042Y-46675097D01*
X70077579Y-46799553D01*
X69971256Y-46820702D01*
X69758611Y-46863000D01*
X69433389Y-46863000D01*
X69220744Y-46820702D01*
X69114421Y-46799553D01*
X68813958Y-46675097D01*
X68543549Y-46494415D01*
X68313585Y-46264451D01*
X68132903Y-45994042D01*
X68008447Y-45693579D01*
X67950817Y-45403853D01*
X67945000Y-45374611D01*
X67945000Y-45049389D01*
X68008447Y-44730422D01*
X68132902Y-44429960D01*
X68234961Y-44277218D01*
X68313585Y-44159549D01*
X68543549Y-43929585D01*
X68813958Y-43748903D01*
X69114421Y-43624447D01*
X69220744Y-43603298D01*
X69433389Y-43561000D01*
X69758611Y-43561000D01*
X69971256Y-43603298D01*
G37*
G36*
X50913512Y-43807927D02*
G01*
X51062812Y-43837624D01*
X51226784Y-43905544D01*
X51374354Y-44004147D01*
X51499853Y-44129646D01*
X51598456Y-44277216D01*
X51666376Y-44441188D01*
X51701000Y-44615259D01*
X51701000Y-44792741D01*
X51666376Y-44966812D01*
X51598456Y-45130784D01*
X51499853Y-45278354D01*
X51374354Y-45403853D01*
X51226784Y-45502456D01*
X51062812Y-45570376D01*
X50913512Y-45600073D01*
X50888742Y-45605000D01*
X50711258Y-45605000D01*
X50686488Y-45600073D01*
X50537188Y-45570376D01*
X50373216Y-45502456D01*
X50225646Y-45403853D01*
X50100147Y-45278354D01*
X50001544Y-45130784D01*
X49933624Y-44966812D01*
X49899000Y-44792741D01*
X49899000Y-44615259D01*
X49933624Y-44441188D01*
X50001544Y-44277216D01*
X50100147Y-44129646D01*
X50225646Y-44004147D01*
X50373216Y-43905544D01*
X50537188Y-43837624D01*
X50686488Y-43807927D01*
X50711258Y-43803000D01*
X50888742Y-43803000D01*
X50913512Y-43807927D01*
G37*
G36*
X62597512Y-43807927D02*
G01*
X62746812Y-43837624D01*
X62910784Y-43905544D01*
X63058354Y-44004147D01*
X63183853Y-44129646D01*
X63282456Y-44277216D01*
X63350376Y-44441188D01*
X63385000Y-44615259D01*
X63385000Y-44792741D01*
X63350376Y-44966812D01*
X63282456Y-45130784D01*
X63183853Y-45278354D01*
X63058354Y-45403853D01*
X62910784Y-45502456D01*
X62746812Y-45570376D01*
X62597512Y-45600073D01*
X62572742Y-45605000D01*
X62395258Y-45605000D01*
X62370488Y-45600073D01*
X62221188Y-45570376D01*
X62057216Y-45502456D01*
X61909646Y-45403853D01*
X61784147Y-45278354D01*
X61685544Y-45130784D01*
X61617624Y-44966812D01*
X61583000Y-44792741D01*
X61583000Y-44615259D01*
X61617624Y-44441188D01*
X61685544Y-44277216D01*
X61784147Y-44129646D01*
X61909646Y-44004147D01*
X62057216Y-43905544D01*
X62221188Y-43837624D01*
X62370488Y-43807927D01*
X62395258Y-43803000D01*
X62572742Y-43803000D01*
X62597512Y-43807927D01*
G37*
G36*
X60057512Y-43807927D02*
G01*
X60206812Y-43837624D01*
X60370784Y-43905544D01*
X60518354Y-44004147D01*
X60643853Y-44129646D01*
X60742456Y-44277216D01*
X60810376Y-44441188D01*
X60845000Y-44615259D01*
X60845000Y-44792741D01*
X60810376Y-44966812D01*
X60742456Y-45130784D01*
X60643853Y-45278354D01*
X60518354Y-45403853D01*
X60370784Y-45502456D01*
X60206812Y-45570376D01*
X60057512Y-45600073D01*
X60032742Y-45605000D01*
X59855258Y-45605000D01*
X59830488Y-45600073D01*
X59681188Y-45570376D01*
X59517216Y-45502456D01*
X59369646Y-45403853D01*
X59244147Y-45278354D01*
X59145544Y-45130784D01*
X59077624Y-44966812D01*
X59043000Y-44792741D01*
X59043000Y-44615259D01*
X59077624Y-44441188D01*
X59145544Y-44277216D01*
X59244147Y-44129646D01*
X59369646Y-44004147D01*
X59517216Y-43905544D01*
X59681188Y-43837624D01*
X59830488Y-43807927D01*
X59855258Y-43803000D01*
X60032742Y-43803000D01*
X60057512Y-43807927D01*
G37*
G36*
X58305000Y-45605000D02*
G01*
X56503000Y-45605000D01*
X56503000Y-43803000D01*
X58305000Y-43803000D01*
X58305000Y-45605000D01*
G37*
G36*
X53453512Y-43807927D02*
G01*
X53602812Y-43837624D01*
X53766784Y-43905544D01*
X53914354Y-44004147D01*
X54039853Y-44129646D01*
X54138456Y-44277216D01*
X54206376Y-44441188D01*
X54241000Y-44615259D01*
X54241000Y-44792741D01*
X54206376Y-44966812D01*
X54138456Y-45130784D01*
X54039853Y-45278354D01*
X53914354Y-45403853D01*
X53766784Y-45502456D01*
X53602812Y-45570376D01*
X53453512Y-45600073D01*
X53428742Y-45605000D01*
X53251258Y-45605000D01*
X53226488Y-45600073D01*
X53077188Y-45570376D01*
X52913216Y-45502456D01*
X52765646Y-45403853D01*
X52640147Y-45278354D01*
X52541544Y-45130784D01*
X52473624Y-44966812D01*
X52439000Y-44792741D01*
X52439000Y-44615259D01*
X52473624Y-44441188D01*
X52541544Y-44277216D01*
X52640147Y-44129646D01*
X52765646Y-44004147D01*
X52913216Y-43905544D01*
X53077188Y-43837624D01*
X53226488Y-43807927D01*
X53251258Y-43803000D01*
X53428742Y-43803000D01*
X53453512Y-43807927D01*
G37*
G36*
X49161000Y-45605000D02*
G01*
X47359000Y-45605000D01*
X47359000Y-43803000D01*
X49161000Y-43803000D01*
X49161000Y-45605000D01*
G37*
M02*
